<svg height="512" viewBox="0 0 64 64" width="512" xmlns="http://www.w3.org/2000/svg"><g id="planning" fill="rgb(0,0,0)"><path d="m38 25h-12a3 3 0 0 0 -3 3v3h-6a10 10 0 0 0 -10 10c0 5.08 3.87 10 10.59 10l-.8.79a1 1 0 0 0 .71 1.71c.56 0 .54-.13 3.21-2.79a1 1 0 0 0 .21-1.09c-.1-.26 0-.12-2.71-2.83a1 1 0 0 0 -1.42 1.42l.8.79c-5.5 0-8.59-3.9-8.59-8a8 8 0 0 1 8-8h6v3a3 3 0 0 0 3 3h12a3 3 0 0 0 3-3v-8a3 3 0 0 0 -3-3zm1 11a1 1 0 0 1 -1 1h-12a1 1 0 0 1 -1-1v-8a1 1 0 0 1 1-1h12a1 1 0 0 1 1 1z"/><path d="m38 43h-12a3 3 0 0 0 -3 3v8a3 3 0 0 0 3 3h12a3 3 0 0 0 3-3v-8a3 3 0 0 0 -3-3zm1 11a1 1 0 0 1 -1 1h-12a1 1 0 0 1 -1-1v-8a1 1 0 0 1 1-1h12a1 1 0 0 1 1 1z"/><path d="m36 11h-4a1 1 0 0 0 0 2h4a1 1 0 0 0 0-2z"/><path d="m28 13a1 1 0 0 0 0-2 1 1 0 0 0 0 2z"/><path d="m36 29h-4a1 1 0 0 0 0 2h4a1 1 0 0 0 0-2z"/><path d="m28 31a1 1 0 0 0 0-2 1 1 0 0 0 0 2z"/><path d="m34.79 47-3.79 3.84-1.79-1.84a1 1 0 0 0 -1.42 1.42c2.7 2.7 2.66 2.79 3.21 2.79s.4 0 5.21-4.79a1 1 0 0 0 -1.42-1.42z"/><path d="m57 23a10 10 0 0 0 -10-10h-6v-3a3 3 0 0 0 -3-3h-12a3 3 0 0 0 -3 3v8a3 3 0 0 0 3 3h12a3 3 0 0 0 3-3v-3h6a8 8 0 0 1 8 8c0 4-3 8-8.59 8l.8-.79a1 1 0 0 0 -1.42-1.42c-2.71 2.71-2.61 2.57-2.71 2.83a1 1 0 0 0 .21 1.09c2.71 2.7 2.71 2.79 3.21 2.79a1 1 0 0 0 .71-1.71l-.8-.79c6.74 0 10.59-4.93 10.59-10zm-18-5a1 1 0 0 1 -1 1h-12a1 1 0 0 1 -1-1v-8a1 1 0 0 1 1-1h12a1 1 0 0 1 1 1z"/><path d="m8 15h9.59l-.8.79a1 1 0 0 0 .71 1.71c.56 0 .54-.13 3.21-2.79a1 1 0 0 0 .21-1.09c-.1-.26 0-.12-2.71-2.83a1 1 0 0 0 -1.42 1.42l.8.79h-9.59a1 1 0 0 0 0 2z"/><path d="m36 15h-8a1 1 0 0 0 0 2h8a1 1 0 0 0 0-2z"/><path d="m36 33h-8a1 1 0 0 0 0 2h8a1 1 0 0 0 0-2z"/></g></svg>