<svg height="512pt" viewBox="0 -16 512 512" width="512pt" xmlns="http://www.w3.org/2000/svg"><path d="m92.308594 52.234375c0-13.871094-11.28125-25.15625-25.152344-25.15625s-25.15625 11.285156-25.15625 25.15625c0 13.867187 11.285156 25.152344 25.152344 25.152344 13.871094 0 25.15625-11.285157 25.15625-25.152344zm-35.308594 0c0-5.601563 4.554688-10.15625 10.152344-10.15625 5.601562 0 10.15625 4.554687 10.15625 10.15625 0 5.597656-4.554688 10.152344-10.15625 10.152344-5.597656 0-10.152344-4.554688-10.152344-10.152344zm0 0"/><path d="m126.914062 77.386719c13.871094 0 25.15625-11.285157 25.15625-25.152344 0-13.871094-11.285156-25.15625-25.15625-25.15625-13.867187 0-25.152343 11.285156-25.152343 25.15625 0 13.867187 11.28125 25.152344 25.152343 25.152344zm0-35.308594c5.601563 0 10.15625 4.554687 10.15625 10.15625 0 5.597656-4.554687 10.152344-10.15625 10.152344-5.597656 0-10.152343-4.554688-10.152343-10.152344 0-5.601563 4.554687-10.15625 10.152343-10.15625zm0 0"/><path d="m186.675781 77.386719c13.867188 0 25.152344-11.285157 25.152344-25.152344 0-13.871094-11.285156-25.15625-25.152344-25.15625-13.871093 0-25.15625 11.285156-25.15625 25.15625 0 13.867187 11.285157 25.152344 25.15625 25.152344zm0-35.308594c5.597657 0 10.152344 4.554687 10.152344 10.15625 0 5.597656-4.554687 10.152344-10.152344 10.152344-5.601562 0-10.15625-4.554688-10.15625-10.152344 0-5.601563 4.554688-10.15625 10.15625-10.15625zm0 0"/><path d="m269.667969 59.734375h182.664062c4.144531 0 7.5-3.359375 7.5-7.5 0-4.144531-3.355469-7.5-7.5-7.5h-182.664062c-4.144531 0-7.5 3.355469-7.5 7.5 0 4.140625 3.355469 7.5 7.5 7.5zm0 0"/><path d="m480.683594 0h-449.367188c-17.292968 0-31.316406 14.074219-31.316406 31.316406v417.25c0 17.269532 14.050781 31.316406 31.316406 31.316406h449.367188c17.269531 0 31.316406-14.046874 31.316406-31.316406v-417.25c0-17.265625-14.050781-31.316406-31.316406-31.316406zm0 464.882812h-449.367188c-8.996094 0-16.316406-7.320312-16.316406-16.316406v-344.101562h41.808594c4.144531 0 7.5-3.359375 7.5-7.5 0-4.144532-3.355469-7.5-7.5-7.5h-41.808594v-58.148438c0-9 7.320312-16.316406 16.316406-16.316406h449.367188c8.996094 0 16.316406 7.320312 16.316406 16.316406v58.148438h-412.191406c-4.140625 0-7.5 3.355468-7.5 7.5 0 4.140625 3.359375 7.5 7.5 7.5h412.191406v344.101562c0 8.996094-7.320312 16.316406-16.316406 16.316406zm0 0"/><path d="m448.121094 126.140625h-384.238282c-4.136718-.09375-7.761718 3.253906-7.675781 7.648437v149.632813c-.082031 4.195313 3.335938 7.738281 7.671875 7.644531h384.242188c4.335937.09375 7.761718-3.453125 7.671875-7.65625v-149.609375c.089843-4.230469-3.375-7.753906-7.671875-7.660156zm-376.914063 18.476563 164.144531 63.988281-164.144531 63.992187zm32.390625-3.476563h304.804688l-152.402344 59.414063zm152.402344 75.515625 152.402344 59.410156h-304.804688zm20.648438-8.050781 164.144531-63.988281v127.976562zm0 0"/><path d="m234.925781 301.929688c-.984375 0-171.261719 0-171.386719.003906-4.09375.089844-7.300781 3.429687-7.332031 7.496094 0 1.695312-.023437 129.367187 0 132.71875 0 4.109374 3.351563 7.527343 7.554688 7.492187 135.824219 0 171.289062.011719 171.699219-.011719 4.304687-.269531 7.011718-3.964844 7.039062-7.488281 0-16.613281 0-116.054687 0-132.652344.050781-4.101562-3.308594-7.597656-7.574219-7.558593zm-163.71875 22.800781 65.902344 51.054687-65.902344 51.058594zm14.425781-7.800781h127.441407l-63.71875 49.371093zm63.722657 68.34375 63.71875 49.367187h-127.441407zm12.246093-9.488282 65.898438-51.054687v102.113281zm0 0"/><path d="m448.300781 301.929688c-.101562 0-171.304687 0-171.453125.003906-3.996094.054687-7.386718 3.375-7.347656 7.5625v132.578125c-.039062 4.152343 3.332031 7.601562 7.554688 7.566406h83.945312c4.144531 0 7.5-3.359375 7.5-7.5s-3.355469-7.5-7.5-7.5h-62.074219l63.71875-49.367187 63.722657 49.367187h-37.367188c-4.144531 0-7.5 3.359375-7.5 7.5s3.355469 7.5 7.5 7.5h59.285156c4.171875 0 7.574219-3.414063 7.503906-7.617187v-132.472657c.070313-4.203125-3.332031-7.609375-7.488281-7.621093zm-21.933593 15-63.722657 49.371093-63.71875-49.371093zm-141.867188 109.914062v-102.113281l65.898438 51.054687zm156.289062-102.113281v102.113281l-65.898437-51.058594zm0 0"/></svg>