<svg height="512pt" viewBox="-16 0 512 512" width="512pt" xmlns="http://www.w3.org/2000/svg"><path d="m59.308594 34.097656h-.199219c-4.171875 0-7.558594 3.382813-7.558594 7.554688 0 4.175781 3.386719 7.558594 7.558594 7.558594h.199219c4.175781 0 7.558594-3.382813 7.558594-7.558594 0-4.171875-3.382813-7.554688-7.558594-7.554688zm0 0"/><path d="m95.566406 34.097656h-.199218c-4.175782 0-7.558594 3.382813-7.558594 7.554688 0 4.175781 3.382812 7.558594 7.558594 7.558594h.199218c4.175782 0 7.558594-3.382813 7.558594-7.558594 0-4.171875-3.382812-7.554688-7.558594-7.554688zm0 0"/><path d="m131.828125 34.269531h-.230469c-4.171875 0-7.558594 3.382813-7.558594 7.554688 0 4.175781 3.386719 7.558593 7.558594 7.558593h.230469c4.171875 0 7.554687-3.382812 7.554687-7.558593 0-4.171875-3.382812-7.554688-7.554687-7.554688zm0 0"/><path d="m198.671875 51.445312h141.140625c4.171875 0 7.554688-3.382812 7.554688-7.558593 0-4.171875-3.382813-7.558594-7.554688-7.558594h-141.140625c-4.175781 0-7.558594 3.386719-7.558594 7.558594 0 4.175781 3.382813 7.558593 7.558594 7.558593zm0 0"/><path d="m391.5625 291.441406h-56.449219c-3.726562 0-7.183593 1.171875-10.035156 3.160156-.96875.367188-1.882813.933594-2.664063 1.710938-.777343.777344-1.34375 1.679688-1.710937 2.644531-2.027344 2.875-3.226563 6.371094-3.226563 10.148438v56.429687c0 9.722656 7.914063 17.632813 17.636719 17.632813h56.449219c9.742188 0 17.667969-7.910157 17.667969-17.632813v-56.429687c0-9.738281-7.925781-17.664063-17.667969-17.664063zm-58.972656 25.761719 20.023437 20.058594-20.023437 19.738281zm10.730468-10.644531h40.449219l-20.386719 20.09375zm19.976563 41.402344 20.058594 20.09375h-40.449219zm10.765625-10.609376 20.054688-19.765624v39.851562zm0 0"/><path d="m265.890625 291.441406h-56.421875c-3.738281 0-7.207031 1.179688-10.066406 3.167969-.957032.367187-1.855469.933594-2.632813 1.703125-.757812.761719-1.320312 1.644531-1.691406 2.585938-2.054687 2.886718-3.273437 6.402343-3.273437 10.207031v56.429687c0 9.722656 7.925781 17.632813 17.664062 17.632813h56.421875c9.742187 0 17.667969-7.910157 17.667969-17.632813v-56.429687c0-9.738281-7.925782-17.664063-17.667969-17.664063zm-58.972656 25.738282 20.042969 20.082031-20.042969 19.761719zm10.753906-10.621094h40.429687l-20.378906 20.09375zm19.964844 41.402344 20.050781 20.09375h-40.429688zm10.761719-10.609376 20.042968-19.761718v39.84375zm0 0"/><path d="m153.246094 297.214844c-.003906-.003906-.007813-.007813-.015625-.011719-3.230469-3.527344-7.859375-5.761719-13.011719-5.761719h-56.421875c-9.742187 0-17.667969 7.925782-17.667969 17.664063v56.429687c0 9.722656 7.925782 17.632813 17.667969 17.632813h56.421875c9.742188 0 17.667969-7.910157 17.667969-17.632813v-56.429687c0-4.523438-1.726563-8.640625-4.53125-11.769531-.039063-.039063-.070313-.082032-.109375-.121094zm-72.003906 19.964844 20.332031 20.371093-20.332031 20.042969zm10.757812-10.621094h41.007812l-20.671874 20.378906zm20.25 41.6875 19.765625 19.808594h-39.855469zm10.765625-10.609375 19.753906-19.480469v39.277344zm0 0"/><path d="m150.328125 401.347656h-76.640625c-4.175781 0-7.558594 3.386719-7.558594 7.558594 0 4.175781 3.382813 7.558594 7.558594 7.558594h76.640625c4.175781 0 7.558594-3.382813 7.558594-7.558594 0-4.171875-3.386719-7.558594-7.558594-7.558594zm0 0"/><path d="m150.328125 431.667969h-76.640625c-4.175781 0-7.558594 3.382812-7.558594 7.558593 0 4.171876 3.382813 7.554688 7.558594 7.554688h76.640625c4.175781 0 7.558594-3.382812 7.558594-7.554688 0-4.175781-3.386719-7.558593-7.558594-7.558593zm0 0"/><path d="m272.621094 401.347656h-76.640625c-4.171875 0-7.558594 3.386719-7.558594 7.558594 0 4.175781 3.386719 7.558594 7.558594 7.558594h76.640625c4.175781 0 7.558594-3.382813 7.558594-7.558594 0-4.171875-3.382813-7.558594-7.558594-7.558594zm0 0"/><path d="m272.621094 431.667969h-76.640625c-4.171875 0-7.558594 3.382812-7.558594 7.558593 0 4.171876 3.386719 7.554688 7.558594 7.554688h76.640625c4.175781 0 7.558594-3.382812 7.558594-7.554688 0-4.175781-3.382813-7.558593-7.558594-7.558593zm0 0"/><path d="m400.699219 399.003906h-76.640625c-4.175782 0-7.558594 3.382813-7.558594 7.554688 0 4.175781 3.382812 7.558594 7.558594 7.558594h76.640625c4.171875 0 7.558593-3.382813 7.558593-7.558594 0-4.171875-3.386718-7.554688-7.558593-7.554688zm0 0"/><path d="m400.699219 429.292969h-76.640625c-4.175782 0-7.558594 3.382812-7.558594 7.554687 0 4.175782 3.382812 7.558594 7.558594 7.558594h76.640625c4.171875 0 7.558593-3.382812 7.558593-7.558594 0-4.171875-3.386718-7.554687-7.558593-7.554687zm0 0"/><path d="m307.5625 165.160156h76.640625c4.175781 0 7.558594-3.386718 7.558594-7.558594 0-4.175781-3.382813-7.558593-7.558594-7.558593h-76.640625c-4.175781 0-7.558594 3.382812-7.558594 7.558593 0 4.171876 3.382813 7.558594 7.558594 7.558594zm0 0"/><path d="m307.5625 197.910156h76.640625c4.175781 0 7.558594-3.382812 7.558594-7.554687 0-4.175781-3.382813-7.558594-7.558594-7.558594h-76.640625c-4.175781 0-7.558594 3.382813-7.558594 7.558594 0 4.171875 3.382813 7.554687 7.558594 7.554687zm0 0"/><path d="m307.5625 230.691406h76.640625c4.175781 0 7.558594-3.382812 7.558594-7.558594 0-4.171874-3.382813-7.558593-7.558594-7.558593h-76.640625c-4.175781 0-7.558594 3.386719-7.558594 7.558593 0 4.175782 3.382813 7.558594 7.558594 7.558594zm0 0"/><path d="m279.234375 218.066406v-55.425781c0-6.945313-5.652344-12.59375-12.597656-12.59375h-180.289063c-6.949218 0-12.601562 5.648437-12.601562 12.59375v55.425781c0 6.960938 5.652344 12.625 12.601562 12.625h180.289063c6.945312 0 12.597656-5.664062 12.597656-12.625zm-15.113281-2.492187h-175.257813v-50.414063h175.257813zm0 0"/><path d="m417.96875 117.292969h-360.578125c-9.742187 0-17.664063 7.910156-17.664063 17.636719v110.847656c0 9.742187 7.921876 17.664062 17.664063 17.664062h161.585937c4.175782 0 7.558594-3.382812 7.558594-7.554687 0-4.175781-3.382812-7.558594-7.558594-7.558594h-161.585937c-1.382813 0-2.550781-1.167969-2.550781-2.550781v-110.847656c0-1.367188 1.167968-2.523438 2.550781-2.523438h360.578125c1.382812 0 2.554688 1.15625 2.554688 2.523438v110.847656c0 1.382812-1.167969 2.550781-2.554688 2.550781h-163.820312c-4.175782 0-7.558594 3.382813-7.558594 7.558594 0 4.171875 3.382812 7.554687 7.558594 7.554687h163.820312c9.742188 0 17.667969-7.921875 17.667969-17.664062v-110.847656c0-9.726563-7.925781-17.636719-17.667969-17.636719zm0 0"/><path d="m452.28125 0h-424.589844c-15.269531 0-27.691406 12.417969-27.691406 27.683594v456.632812c0 15.265625 12.421875 27.683594 27.691406 27.683594h424.589844c15.28125 0 27.71875-12.417969 27.71875-27.683594v-456.632812c0-15.265625-12.4375-27.683594-27.71875-27.683594zm0 496.886719h-424.589844c-6.933594 0-12.578125-5.640625-12.578125-12.570313v-396.511718h120.664063c4.175781 0 7.558594-3.382813 7.558594-7.558594 0-4.175782-3.382813-7.558594-7.558594-7.558594h-120.664063v-45.003906c0-6.929688 5.644531-12.570313 12.578125-12.570313h424.589844c6.949219 0 12.605469 5.640625 12.605469 12.570313v45.003906h-293.964844c-4.175781 0-7.558594 3.382812-7.558594 7.558594 0 4.175781 3.382813 7.558594 7.558594 7.558594h293.964844v396.511718c0 6.929688-5.65625 12.570313-12.605469 12.570313zm0 0"/></svg>