<svg id="Layer_1" height="512" viewBox="0 0 100 100" width="512" xmlns="http://www.w3.org/2000/svg" data-name="Layer 1"><path d="m75 24h-50a1 1 0 0 0 -1 1v6a1 1 0 0 0 1 1h1.5v30a1 1 0 0 0 1 1h20l-13.64 11.23a1 1 0 0 0 -.13 1.41 1 1 0 0 0 1.41.13l13.86-11.4v10.63a1 1 0 0 0 2 0v-10.63l13.86 11.4a1 1 0 0 0 1.41-.13 1 1 0 0 0 -.13-1.41l-13.65-11.23h20a1 1 0 0 0 1-1v-30h1.51a1 1 0 0 0 1-1v-6a1 1 0 0 0 -1-1zm-3.5 37h-43v-29h43zm2.5-31h-48v-4h48z"/><path d="m60 41h-20a1 1 0 0 1 0-2h20a1 1 0 0 1 0 2z"/><path d="m60 47h-20a1 1 0 0 1 0-2h20a1 1 0 0 1 0 2z"/><path d="m60 53h-20a1 1 0 0 1 0-2h20a1 1 0 0 1 0 2z"/></svg>