<svg id="icons" height="512" viewBox="0 0 48 48" width="512" xmlns="http://www.w3.org/2000/svg"><g fill="rgb(0,0,0)"><path d="m7.13 42h33.74a2.13 2.13 0 0 0 2.13-2.13v-23.74a2.13 2.13 0 0 0 -2.13-2.13h-33.74a2.13 2.13 0 0 0 -2.13 2.13v23.74a2.13 2.13 0 0 0 2.13 2.13zm-.13-25.87a.13.13 0 0 1 .13-.13h33.74a.13.13 0 0 1 .13.13v23.74a.13.13 0 0 1 -.13.13h-33.74a.13.13 0 0 1 -.13-.13z"/><path d="m36 8a1 1 0 0 0 0-2h-24a1 1 0 0 0 0 2z"/><path d="m8 11a1 1 0 0 0 1 1h30a1 1 0 0 0 0-2h-30a1 1 0 0 0 -1 1z"/></g></svg>