<?xml version="1.0" encoding="iso-8859-1"?>
<!-- Generator: Adobe Illustrator 19.0.0, SVG Export Plug-In . SVG Version: 6.00 Build 0)  -->
<svg version="1.1" id="Layer_1" xmlns="http://www.w3.org/2000/svg" xmlns:xlink="http://www.w3.org/1999/xlink" x="0px" y="0px"
	 viewBox="0 0 512 512" style="enable-background:new 0 0 512 512;" xml:space="preserve">
<g>
	<g>
		<path d="M260.655,361.891c-37.236-17.455-65.164-37.236-81.455-59.345h123.345c6.982,0,11.636-4.655,11.636-11.636
			s-4.655-11.636-11.636-11.636H167.564c-2.327-8.145-4.655-15.127-4.655-23.273c0-36.073,30.255-64,54.691-81.455
			c5.818-3.491,6.982-10.473,3.491-16.291s-10.473-6.982-16.291-3.491c-43.055,30.255-65.164,65.164-65.164,101.236
			c0,48.873,39.564,94.255,111.709,126.836c43.055,19.782,73.309,44.218,88.436,70.982H209.455c-6.982,0-11.636,4.655-11.636,11.636
			c0,6.982,4.655,11.636,11.636,11.636h138.473c1.164,3.491,1.164,8.145,1.164,11.636v11.636c0,6.982,4.655,11.636,11.636,11.636
			s11.636-4.655,11.636-11.636v-11.636C372.364,439.855,332.8,394.473,260.655,361.891z"/>
	</g>
</g>
<g>
	<g>
		<path d="M221.091,390.982c-3.491-5.818-10.473-6.982-16.291-3.491c-43.055,30.255-65.164,65.164-65.164,101.236v11.636
			c0,6.982,4.655,11.636,11.636,11.636c6.982,0,11.636-4.655,11.636-11.636v-11.636c0-36.073,30.255-64,54.691-81.455
			C223.418,403.782,224.582,396.8,221.091,390.982z"/>
	</g>
</g>
<g>
	<g>
		<path d="M260.655,129.164c-43.055-19.782-73.309-44.218-88.436-70.982h130.327c6.982,0,11.636-4.655,11.636-11.636
			s-4.655-11.636-11.636-11.636H164.073c-1.164-3.491-1.164-8.146-1.164-11.636V11.636C162.909,4.655,158.255,0,151.273,0
			c-6.982,0-11.636,4.655-11.636,11.636v11.636c0,48.873,39.564,94.255,111.709,126.836c37.236,17.455,65.164,37.236,81.455,59.345
			H209.455c-6.982,0-11.636,4.655-11.636,11.636c0,6.982,4.655,11.636,11.636,11.636h134.982c2.327,8.145,4.655,15.127,4.655,23.273
			c0,36.073-30.255,65.164-55.855,82.618c-5.818,3.491-6.982,10.473-3.491,16.291c2.327,3.491,5.818,4.655,9.309,4.655
			c2.327,0,4.655-1.164,6.982-2.327c43.055-29.091,66.327-64,66.327-101.236C372.364,207.127,332.8,161.745,260.655,129.164z"/>
	</g>
</g>
<g>
	<g>
		<path d="M360.727,0c-6.982,0-11.636,4.655-11.636,11.636v11.636c0,36.073-30.255,65.164-55.855,82.618
			c-5.818,3.491-6.982,10.473-3.491,16.291c2.327,3.491,5.818,4.655,9.309,4.655c2.327,0,4.655-1.164,6.982-2.327
			c43.055-29.091,66.327-64,66.327-101.236V11.636C372.364,4.655,367.709,0,360.727,0z"/>
	</g>
</g>
<g>
</g>
<g>
</g>
<g>
</g>
<g>
</g>
<g>
</g>
<g>
</g>
<g>
</g>
<g>
</g>
<g>
</g>
<g>
</g>
<g>
</g>
<g>
</g>
<g>
</g>
<g>
</g>
<g>
</g>
</svg>
