<svg id="Capa_1" enable-background="new 0 0 512 512" height="512" viewBox="0 0 512 512" width="512" xmlns="http://www.w3.org/2000/svg"><g><path d="m489.5 177.25h-13.995l1.382-48.779-60.616-32.741-32.741-60.616-68.866 1.952-58.664-36.124-58.664 36.123-68.866-1.952-32.741 60.616-60.616 32.741 1.383 48.779h-13.996c-12.407 0-22.5 10.094-22.5 22.5v112.5c0 12.406 10.093 22.5 22.5 22.5h13.996l-1.383 48.779 60.616 32.741 32.742 60.616 68.866-1.952 58.663 36.125 58.663-36.123 68.866 1.952 32.741-60.616 60.616-32.741-1.382-48.779h13.996c12.406 0 22.5-10.094 22.5-22.5v-112.5c0-12.407-10.094-22.501-22.5-22.501zm-439.131-39.971 56.429-30.481 30.48-56.429 64.11 1.817 54.612-33.628 54.612 33.629 64.108-1.817 30.481 56.429 56.429 30.481-1.132 39.971h-34.309c-30.664-66.228-96.921-108.751-170.189-108.751-34.035 0-67.371 9.22-96.405 26.662l7.725 12.857c26.701-16.04 57.366-24.519 88.68-24.519 65.053 0 124.099 36.437 153.504 93.75h-307.008c12.448-24.221 30.523-45.254 52.776-61.292l-8.771-12.17c-26.252 18.921-47.14 44.25-60.678 73.462h-34.321zm411.262 237.442-56.429 30.481-30.481 56.429-64.108-1.817-54.613 33.628-54.612-33.629-64.11 1.817-30.48-56.429-56.429-30.481 1.133-39.971h34.309c30.664 66.228 96.921 108.751 170.189 108.751 73.269 0 139.525-42.523 170.189-108.75h34.309zm35.369-62.471c0 4.136-3.364 7.5-7.5 7.5h-211v15h131.003c-29.404 57.313-88.449 93.75-153.503 93.75s-124.1-36.437-153.504-93.75h131.004v-15h-211c-4.135 0-7.5-3.364-7.5-7.5v-112.5c0-4.136 3.365-7.5 7.5-7.5h467c4.136 0 7.5 3.364 7.5 7.5z"/><path d="m248.5 319.75h15v15h-15z"/><path d="m300.999 113.499h15v15h-15z"/><path d="m330.999 128.5h15v15h-15z"/><path d="m242.371 218.194-27.314 71.718 14.018 5.339 6.51-17.093h26.292l6.445 17.079 14.034-5.296-27.082-71.762zm-1.074 44.964 7.493-19.675 7.425 19.675z"/><path d="m354.905 263.584-28.524-45.396-14.311-.005v75.629h15v-46.333l28.525 45.397h14.31v-74.804h-15z"/><path d="m423.301 218.072h-24.193v73.942h24.747l.066-.001c17.778-.313 30.683-15.86 30.683-36.971 0-22.112-12.58-36.97-31.303-36.97zm.415 58.943h-9.608v-43.942h9.193c7.881 0 16.303 5.771 16.303 21.971 0 14.865-8.225 21.802-15.888 21.971z"/><path d="m100.524 251.401c2.207-3.377 3.491-7.409 3.491-11.736 0-11.842-9.634-21.476-21.477-21.476h-25.142v75.739h28.225c13.15 0 23.849-10.731 23.849-23.922 0-7.516-3.495-14.231-8.946-18.605zm-28.128-18.212h10.143c3.571 0 6.477 2.905 6.477 6.476 0 3.58-2.905 6.493-6.476 6.493h-10.144zm13.225 45.74h-13.225v-17.771h13.225c4.879 0 8.849 3.97 8.849 8.849 0 4.92-3.97 8.922-8.849 8.922z"/><path d="m186.511 241.475c0-12.84-10.846-23.285-24.178-23.285h-23.649l-.013 75.738 15 .002.005-25.156 22.609 26.727 11.452-9.688-18.606-21.995c10.031-2.837 17.38-11.776 17.38-22.343zm-32.83-8.286h8.651c4.975 0 9.178 3.794 9.178 8.285s-4.203 8.285-9.219 8.285l-8.614.047z"/></g></svg>