<?xml version="1.0"?>
<svg xmlns="http://www.w3.org/2000/svg" viewBox="0 0 64 64" width="512" height="512"><g id="website-web-browser-imange-design"><path d="M48,18h7a1,1,0,0,0,0-2H48a1,1,0,0,0,0,2Z"/><path d="M43,22H55a1,1,0,0,0,0-2H43a1,1,0,0,0,0,2Z"/><path d="M43,26H55a1,1,0,0,0,0-2H43a1,1,0,0,0,0,2Z"/><path d="M43,30H55a1,1,0,0,0,0-2H43a1,1,0,0,0,0,2Z"/><path d="M43,34H55a1,1,0,0,0,0-2H43a1,1,0,0,0,0,2Z"/><path d="M43,38h7a1,1,0,0,0,0-2H43a1,1,0,0,0,0,2Z"/><path d="M59,2H5A3.009,3.009,0,0,0,2,5V59a3.009,3.009,0,0,0,3,3H59a3.009,3.009,0,0,0,3-3V5A3.009,3.009,0,0,0,59,2Zm1,57a1,1,0,0,1-1,1H5a1,1,0,0,1-1-1V12H60Zm0-49H4V5A1,1,0,0,1,5,4H59a1,1,0,0,1,1,1Z"/><path d="M8,6H7A1,1,0,0,0,7,8H8A1,1,0,0,0,8,6Z"/><path d="M13,6H12a1,1,0,0,0,0,2h1a1,1,0,0,0,0-2Z"/><path d="M18,6H17a1,1,0,0,0,0,2h1a1,1,0,0,0,0-2Z"/><path d="M57,6H56a1,1,0,0,0,0,2h1a1,1,0,0,0,0-2Z"/><path d="M43,18h1a1,1,0,0,0,0-2H43a1,1,0,0,0,0,2Z"/><path d="M55,36H54a1,1,0,0,0,0,2h1a1,1,0,0,0,0-2Z"/><path d="M52,6H28a1,1,0,0,0,0,2H52a1,1,0,0,0,0-2Z"/><path d="M9,38H38a1,1,0,0,0,1-1V17a1,1,0,0,0-1-1H9a1,1,0,0,0-1,1V37A1,1,0,0,0,9,38Zm13.218-5.862.012-.019L28,22.887,36.2,36H19.8ZM17.446,36H10.868L17,26.8l3.2,4.8ZM37,18V33.514L28.848,20.47a1.039,1.039,0,0,0-1.7,0l-5.79,9.266-3.53-5.291a1.039,1.039,0,0,0-1.664,0L10,33.7V18Z"/><path d="M38,56H26a1,1,0,0,1-1-1V43a1,1,0,0,1,1-1H38a1,1,0,0,1,1,1V55A1,1,0,0,1,38,56ZM27,54H37V44H27Z"/><path d="M55,56H43a1,1,0,0,1-1-1V43a1,1,0,0,1,1-1H55a1,1,0,0,1,1,1V55A1,1,0,0,1,55,56ZM44,54H54V44H44Z"/><path d="M21,56H9a1,1,0,0,1-1-1V43a1,1,0,0,1,1-1H21a1,1,0,0,1,1,1V55A1,1,0,0,1,21,56ZM10,54H20V44H10Z"/></g></svg>
