<?xml version="1.0" encoding="iso-8859-1"?>
<!-- Generator: Adobe Illustrator 19.0.0, SVG Export Plug-In . SVG Version: 6.00 Build 0)  -->
<svg version="1.1" id="Capa_1" xmlns="http://www.w3.org/2000/svg" xmlns:xlink="http://www.w3.org/1999/xlink" x="0px" y="0px"
	 viewBox="0 0 511.871 511.871" style="enable-background:new 0 0 511.871 511.871;" xml:space="preserve">
<g>
	<g>
		<g>
			<path d="M477.802,119.338H344.681c-4.713,0-8.533,3.821-8.533,8.533c0,4.713,3.821,8.533,8.533,8.533h133.121
				c4.704,0,8.533,3.829,8.533,8.533v42.667H349.377c-4.713,0-8.533,3.821-8.533,8.533s3.821,8.533,8.533,8.533h136.958v281.6
				c0,4.704-3.829,8.533-8.533,8.533H34.069c-4.704,0-8.533-3.829-8.533-8.533v-281.6h136.958c4.713,0,8.533-3.821,8.533-8.533
				s-3.821-8.533-8.533-8.533H25.535v-42.667c0-4.704,3.829-8.533,8.533-8.533H167.19c4.713,0,8.533-3.821,8.533-8.533
				c0-4.713-3.821-8.533-8.533-8.533H34.069c-14.117,0-25.6,11.483-25.6,25.6v341.333c0,14.117,11.483,25.6,25.6,25.6h443.733
				c14.117,0,25.6-11.483,25.6-25.6V144.938C503.402,130.821,491.919,119.338,477.802,119.338z"/>
			<path d="M45.077,155.946c-1.538,1.621-2.475,3.754-2.475,6.058c0,2.304,0.937,4.438,2.475,6.058
				c1.621,1.533,3.754,2.475,6.058,2.475c2.217,0,4.438-0.942,6.058-2.475c1.533-1.621,2.475-3.842,2.475-6.058
				c0-2.221-0.942-4.438-2.475-6.058C53.948,152.788,48.231,152.788,45.077,155.946z"/>
			<path d="M79.21,155.946c-1.538,1.621-2.475,3.838-2.475,6.058c0,2.217,0.938,4.438,2.475,6.058
				c1.621,1.533,3.838,2.475,6.058,2.475c2.217,0,4.438-0.942,6.058-2.475c1.533-1.621,2.475-3.842,2.475-6.058
				c0-2.221-0.942-4.438-2.475-6.058C88.081,152.788,82.365,152.788,79.21,155.946z"/>
			<path d="M113.344,155.946c-1.538,1.621-2.475,3.838-2.475,6.058c0,2.304,0.937,4.438,2.475,5.971
				c1.621,1.621,3.754,2.563,6.058,2.563s4.438-0.942,6.058-2.475c1.533-1.621,2.475-3.754,2.475-6.058
				c0-2.221-0.942-4.438-2.475-6.058C122.302,152.788,116.498,152.788,113.344,155.946z"/>
			<path d="M129.569,293.517c-1.725,2.375-2.113,5.467-1.025,8.192l17.067,42.667c0.958,2.392,2.95,4.225,5.417,4.983
				c0.821,0.254,1.667,0.379,2.508,0.379c1.679,0,3.346-0.496,4.771-1.458l47.646-32.122c2.989,8.436,5.723,15.29,7.567,19.764
				c0.005,0.012,0.016,0.02,0.021,0.032c0.434,1.041,1.064,1.978,1.851,2.762c0.368,0.366,0.845,0.565,1.269,0.855
				c0.483,0.333,0.911,0.74,1.459,0.97c1.025,0.429,2.132,0.653,3.26,0.658c0.011,0,0.02,0.006,0.032,0.006h3.65l-10.892,21.783
				c-1.321,2.646-1.179,5.787,0.375,8.304c1.554,2.513,4.3,4.046,7.258,4.046h68.267c2.958,0,5.704-1.533,7.258-4.046
				c1.554-2.517,1.696-5.658,0.375-8.304l-10.892-21.783h1.125c0.44,0,0.819-0.186,1.241-0.251c0.429,0.066,0.853,0.255,1.28,0.255
				c3.354,0,6.537-1.992,7.896-5.288c1.843-4.474,4.579-11.329,7.568-19.763l47.644,32.121c1.425,0.962,3.092,1.458,4.771,1.458
				c0.842,0,1.687-0.125,2.508-0.379c2.467-0.758,4.458-2.592,5.417-4.983l17.067-42.667c1.088-2.725,0.7-5.817-1.025-8.192
				l-52.29-71.886c4.386-34.377,4.112-73.794-7.852-114.255C311.015,69.708,290.869,34.488,262.281,2.7
				c-3.242-3.6-9.45-3.6-12.692,0c-28.596,31.8-48.742,67.021-59.879,104.675c-11.965,40.461-12.238,79.879-7.852,114.255
				L129.569,293.517z M235.61,358.271l8.533-17.067h23.583l8.533,17.067H235.61z M326.2,245.403l39.527,54.343l-11.387,28.471
				l-42.65-28.752C316.522,284.958,322.035,266.548,326.2,245.403z M206.077,112.217c9.571-32.363,26.325-62.875,49.858-90.817
				c23.525,27.933,40.279,58.446,49.858,90.817c11.626,39.31,11.626,77.229,7.064,110.296c-0.028,0.156-0.043,0.305-0.063,0.462
				c-5.143,36.873-15.949,67.662-22.876,87.246c-1.915,5.419-3.697,10.072-5.221,13.917h-57.524
				c-1.524-3.845-3.307-8.499-5.221-13.921c-6.927-19.582-17.733-50.369-22.876-87.242c-0.02-0.157-0.034-0.305-0.062-0.461
				C194.451,189.446,194.451,151.527,206.077,112.217z M200.181,299.464l-42.65,28.753l-11.388-28.471l39.527-54.343
				C189.836,266.547,195.35,284.958,200.181,299.464z"/>
			<path d="M247.402,418.004v25.6c0,4.713,3.821,8.533,8.533,8.533c4.713,0,8.533-3.821,8.533-8.533v-25.6
				c0-4.713-3.821-8.533-8.533-8.533C251.223,409.471,247.402,413.292,247.402,418.004z"/>
			<path d="M213.269,400.938v25.6c0,4.713,3.821,8.533,8.533,8.533s8.533-3.821,8.533-8.533v-25.6c0-4.713-3.821-8.533-8.533-8.533
				S213.269,396.225,213.269,400.938z"/>
			<path d="M290.069,392.404c-4.713,0-8.533,3.821-8.533,8.533v25.6c0,4.713,3.821,8.533,8.533,8.533s8.533-3.821,8.533-8.533v-25.6
				C298.602,396.225,294.781,392.404,290.069,392.404z"/>
			<path d="M255.935,196.138c23.525,0,42.667-19.142,42.667-42.667c0-23.525-19.142-42.667-42.667-42.667
				s-42.667,19.142-42.667,42.667C213.269,176.996,232.41,196.138,255.935,196.138z M255.935,127.871
				c14.117,0,25.6,11.483,25.6,25.6s-11.483,25.6-25.6,25.6c-14.117,0-25.6-11.483-25.6-25.6S241.819,127.871,255.935,127.871z"/>
		</g>
	</g>
</g>
<g>
</g>
<g>
</g>
<g>
</g>
<g>
</g>
<g>
</g>
<g>
</g>
<g>
</g>
<g>
</g>
<g>
</g>
<g>
</g>
<g>
</g>
<g>
</g>
<g>
</g>
<g>
</g>
<g>
</g>
</svg>
