<?xml version="1.0"?>
<svg xmlns="http://www.w3.org/2000/svg" id="Outline" viewBox="0 0 512 512" width="512" height="512"><path d="M472,24H40A24.028,24.028,0,0,0,16,48V464a24.028,24.028,0,0,0,24,24H472a24.028,24.028,0,0,0,24-24V48A24.028,24.028,0,0,0,472,24ZM40,40H472a8.009,8.009,0,0,1,8,8V88H32V48A8.009,8.009,0,0,1,40,40ZM472,472H40a8.009,8.009,0,0,1-8-8V104H480V464A8.009,8.009,0,0,1,472,472Z"/><circle cx="120" cy="64" r="8"/><circle cx="88" cy="64" r="8"/><circle cx="56" cy="64" r="8"/><path d="M72,312H264a8,8,0,0,0,8-8V144a8,8,0,0,0-8-8H72a8,8,0,0,0-8,8V304A8,8,0,0,0,72,312Zm107.406-31.207L200,253.333,232,296H188.53ZM169.87,296H102.13L136,239.549ZM80,152H256V296h-4l-45.6-60.8a8,8,0,0,0-12.8,0l-23.083,30.778L142.86,219.884a8,8,0,0,0-13.72,0L83.47,296H80Z"/><circle cx="176" cy="192" r="8"/><path d="M440,136H344a8,8,0,0,0,0,16h96a8,8,0,0,0,0-16Z"/><path d="M312,184h96a8,8,0,0,0,0-16H312a8,8,0,0,0,0,16Z"/><path d="M312,216h48a8,8,0,0,0,0-16H312a8,8,0,0,0,0,16Z"/><path d="M440,200H408a8,8,0,0,0,0,16h32a8,8,0,0,0,0-16Z"/><path d="M344,328H328a24,24,0,0,0,0,48h16a24,24,0,0,0,0-48Zm0,32H328a8,8,0,0,1,0-16h16a8,8,0,0,1,0,16Z"/><path d="M312,312h96a8,8,0,0,0,8-8V272a8,8,0,0,0-8-8H312a8,8,0,0,0-8,8v32A8,8,0,0,0,312,312Zm88-16H384V280h16Zm-80-16h48v16H320Z"/><path d="M424,328H408a24,24,0,0,0,0,48h16a24,24,0,0,0,0-48Zm0,32H408a8,8,0,0,1,0-16h16a8,8,0,0,1,0,16Z"/><path d="M312,248h32a8,8,0,0,0,0-16H312a8,8,0,0,0,0,16Z"/><circle cx="312" cy="144" r="8"/><path d="M168,424H104a8,8,0,0,0,0,16h64a8,8,0,0,0,0-16Z"/><circle cx="72" cy="432" r="8"/><path d="M304,424H240a8,8,0,0,0,0,16h64a8,8,0,0,0,0-16Z"/><circle cx="208" cy="432" r="8"/><path d="M440,424H376a8,8,0,0,0,0,16h64a8,8,0,0,0,0-16Z"/><circle cx="344" cy="432" r="8"/><path d="M72,392H264a8,8,0,0,0,8-8V336a8,8,0,0,0-8-8H72a8,8,0,0,0-8,8v48A8,8,0,0,0,72,392Zm88-16H128V344h32Zm16-32h32v32H176Zm80,32H224V344h32ZM80,344h32v32H80Z"/></svg>
