<svg id="Layer_1" height="512" viewBox="0 0 256 256" width="512" xmlns="http://www.w3.org/2000/svg" data-name="Layer 1"><path d="m95.019 217.543a4.052 4.052 0 0 1 -.724-.065 4 4 0 0 1 -3.216-4.654c7.873-43.116-9.4-68.364-9.573-68.614a4 4 0 0 1 -.073-4.486c2.561-3.918 4.417-15.277 4.51-27.623.118-15.27-2.374-22.627-3.529-23.639a10.577 10.577 0 0 0 -9.931-1.072 7.356 7.356 0 0 0 -4.609 5.934c-.778 5.062-3.187 12.235-5.978 20.54-3.078 9.163-6.567 19.55-8.21 28.386a177.818 177.818 0 0 0 -2.686 32.232 4 4 0 0 1 -1.016 2.762l-15.673 17.543a4 4 0 1 1 -5.967-5.329l14.635-16.386a184.348 184.348 0 0 1 2.841-32.285c1.747-9.389 5.331-20.058 8.493-29.47 2.561-7.625 4.98-14.826 5.655-19.21a15.374 15.374 0 0 1 9.432-12.097 18.6 18.6 0 0 1 17.722 1.99c9.465 6.836 8.19 46.06 2.258 59.724 4.275 7.283 16.811 32.877 9.568 72.543a4 4 0 0 1 -3.929 3.276z"/><path d="m88.191 253.489a4 4 0 0 1 -2.88-6.774l13.643-14.169a3.994 3.994 0 0 1 3.618-1.157c.149.028 15.7 2.784 28.96-3.844 13.812-6.906 20.872-11.98 23.643-22.139a4 4 0 0 1 7.719 2.1c-3.531 12.944-12.489 19.542-27.784 27.189-12.665 6.333-26.529 5.505-31.816 4.872l-12.222 12.697a3.986 3.986 0 0 1 -2.881 1.225z"/><path d="m199.46 173.011a4 4 0 0 1 -.271-7.991l11.016-.757a7.436 7.436 0 0 0 -1.213-14.822l-6.992.553a4 4 0 1 1 -.631-7.975l6.992-.553a15.436 15.436 0 0 1 2.434 30.775l-11.057.76c-.093.007-.186.01-.278.01z"/><path d="m199.46 150.006a4 4 0 0 1 -.235-7.992l9.213-.553a7.436 7.436 0 0 0 -1.249-14.819l-6.992.553a4 4 0 0 1 -.631-7.976l6.993-.552a15.435 15.435 0 0 1 2.433 30.774l-9.292.559c-.078 0-.159.006-.24.006z"/><path d="m199.878 127.207a4 4 0 0 1 -.312-7.988l6.993-.552a7.435 7.435 0 1 0 -1.171-14.824l-5.609.443a4 4 0 0 1 -.631-7.975l5.609-.444a15.435 15.435 0 0 1 2.432 30.775l-6.992.553c-.107.005-.214.012-.319.012z"/><path d="m199.467 95.406a4 4 0 0 1 -2.371-7.225l20.889-15.341a7.435 7.435 0 0 0 -9.346-11.564l-6.532 5.752a4 4 0 1 1 -5.287-6l6.6-5.815c.042-.038.086-.074.13-.11a15.435 15.435 0 1 1 19.4 24.016c-.047.039-.095.076-.144.113l-20.971 15.4a3.985 3.985 0 0 1 -2.368.774z"/><path d="m199.464 173.494a4 4 0 0 1 -4-4v-149.377c0-5.3-5.111-9.606-11.394-9.606h-83.9c-6.284 0-11.4 4.309-11.4 9.606v65.121a4 4 0 0 1 -8 0v-65.121c0-9.708 8.7-17.606 19.4-17.606h83.9c10.694 0 19.394 7.9 19.394 17.606v149.377a4 4 0 0 1 -4 4z"/><path d="m184.07 209.874h-86.47a4 4 0 0 1 0-8h86.47c6.283 0 11.394-4.311 11.394-9.61v-24.078a4 4 0 1 1 8 0v24.078c0 9.71-8.7 17.61-19.394 17.61z"/><path d="m198.831 32.062h-113.769a4 4 0 0 1 0-8h113.769a4 4 0 1 1 0 8z"/><path d="m199.464 187.135h-100.978a4 4 0 1 1 0-8h100.978a4 4 0 0 1 0 8z"/></svg>