<svg id="Capa_1" enable-background="new 0 0 512 512" height="512" viewBox="0 0 512 512" width="512" xmlns="http://www.w3.org/2000/svg"><g><g><path d="m434.22 399.05c26.28 0 47.66-21.385 47.66-47.67v-47.69c0-16.856-8.804-31.685-22.046-40.161 13.242-8.476 22.045-23.305 22.045-40.16v-47.692c0-16.856-8.804-31.685-22.047-40.161 13.243-8.476 22.047-23.305 22.047-40.162v-47.693c0-26.28-21.381-47.661-47.662-47.661h-356.434c-26.281 0-47.662 21.381-47.662 47.661v47.692c0 16.857 8.804 31.686 22.047 40.162-13.243 8.476-22.047 23.305-22.047 40.161v47.692c0 16.855 8.803 31.684 22.045 40.16-13.243 8.476-22.046 23.305-22.046 40.161v47.69c0 26.285 21.38 47.67 47.66 47.67h155.659v45.243c-2.848 2.141-5.384 4.677-7.525 7.525h-128.086c-6.87-9.138-17.799-15.061-30.086-15.061-20.744 0-37.621 16.877-37.621 37.621s16.877 37.621 37.621 37.621c12.287 0 23.216-5.922 30.086-15.06h128.086c15.095 20.079 45.08 20.074 60.171 0h128.086c6.87 9.138 17.799 15.06 30.086 15.06 20.744 0 37.621-16.877 37.621-37.621s-16.877-37.621-37.621-37.621c-12.287 0-23.216 5.922-30.086 15.061h-128.085c-2.141-2.848-4.677-5.384-7.525-7.525v-45.242zm-389.099-303.696v-47.693c0-18.01 14.652-32.661 32.662-32.661h356.434c18.01 0 32.662 14.651 32.662 32.661v47.692c0 18.01-14.652 32.662-32.662 32.662h-356.434c-18.01.001-32.662-14.652-32.662-32.661zm-.001 256.026v-47.69c0-18.009 14.651-32.66 32.66-32.66h110.33c4.143 0 7.5-3.357 7.5-7.5s-3.357-7.5-7.5-7.5h-110.327c-18.01 0-32.662-14.651-32.662-32.661v-47.692c0-18.01 14.652-32.661 32.662-32.661h356.434c18.01 0 32.662 14.651 32.662 32.661v47.692c0 18.01-14.652 32.661-32.662 32.661h-211.107c-4.143 0-7.5 3.357-7.5 7.5s3.357 7.5 7.5 7.5h211.11c18.009 0 32.66 14.651 32.66 32.66v47.69c0 18.015-14.651 32.67-32.66 32.67-8.363 0-339.758 0-356.439 0-18.01 0-32.661-14.655-32.661-32.67zm22.622 145.62c-12.474 0-22.621-10.147-22.621-22.621s10.147-22.621 22.621-22.621 22.621 10.147 22.621 22.621-10.147 22.621-22.621 22.621zm36.858-15.06c1.018-4.972 1.019-10.149 0-15.121h114.543c-1.018 4.971-1.019 10.149 0 15.121zm151.4 15.06c-12.474 0-22.621-10.147-22.621-22.621s10.147-22.621 22.621-22.621 22.621 10.147 22.621 22.621-10.147 22.621-22.621 22.621zm188.258-45.242c12.474 0 22.621 10.147 22.621 22.621s-10.148 22.621-22.621 22.621-22.621-10.147-22.621-22.621 10.147-22.621 22.621-22.621zm-36.858 15.06c-1.018 4.971-1.019 10.149 0 15.121h-114.543c1.018-4.972 1.019-10.149 0-15.121zm-143.84-29.297c-4.971-1.018-10.149-1.018-15.121 0v-38.471h15.121z"/><path d="m101.629 37.651c-18.669 0-33.856 15.188-33.856 33.856s15.188 33.855 33.856 33.855 33.856-15.188 33.856-33.855c-.001-18.668-15.188-33.856-33.856-33.856zm0 52.712c-10.397 0-18.856-8.459-18.856-18.855 0-10.397 8.459-18.856 18.856-18.856 10.396 0 18.855 8.459 18.855 18.856 0 10.396-8.459 18.855-18.855 18.855z"/><path d="m191.992 37.651c-18.668 0-33.855 15.188-33.855 33.856s15.188 33.855 33.855 33.855c18.669 0 33.856-15.188 33.856-33.855.001-18.668-15.187-33.856-33.856-33.856zm0 52.712c-10.396 0-18.855-8.459-18.855-18.855 0-10.397 8.459-18.856 18.855-18.856 10.397 0 18.856 8.459 18.856 18.856.001 10.396-8.458 18.855-18.856 18.855z"/><path d="m444.23 71.51c0-18.67-15.19-33.859-33.86-33.859h-19.45c-4.143 0-7.5 3.357-7.5 7.5s3.357 7.5 7.5 7.5h19.45c10.399 0 18.86 8.46 18.86 18.859 0 10.394-8.461 18.851-18.86 18.851h-128.01c-10.4 0-18.86-8.456-18.86-18.851 0-10.399 8.461-18.859 18.86-18.859h73.559c4.143 0 7.5-3.357 7.5-7.5s-3.357-7.5-7.5-7.5h-73.559c-18.671 0-33.86 15.189-33.86 33.859 0 18.665 15.19 33.851 33.86 33.851h128.01c18.671-.001 33.86-15.186 33.86-33.851z"/><path d="m101.629 165.667c-18.669 0-33.856 15.188-33.856 33.855 0 18.669 15.188 33.856 33.856 33.856s33.856-15.188 33.856-33.856c-.001-18.667-15.188-33.855-33.856-33.855zm0 52.712c-10.397 0-18.856-8.459-18.856-18.856 0-10.396 8.459-18.855 18.856-18.855 10.396 0 18.855 8.459 18.855 18.855 0 10.397-8.459 18.856-18.855 18.856z"/><path d="m225.849 199.523c0-18.668-15.188-33.855-33.856-33.855s-33.855 15.188-33.855 33.855c0 18.669 15.188 33.856 33.855 33.856 18.668 0 33.856-15.188 33.856-33.856zm-33.857 18.856c-10.396 0-18.855-8.459-18.855-18.856 0-10.396 8.459-18.855 18.855-18.855 10.397 0 18.856 8.459 18.856 18.855.001 10.397-8.458 18.856-18.856 18.856z"/><path d="m282.356 233.379h128.015c18.669 0 33.856-15.188 33.856-33.856s-15.188-33.855-33.856-33.855h-128.015c-18.669 0-33.856 15.188-33.856 33.855 0 18.668 15.188 33.856 33.856 33.856zm0-52.712h128.015c10.397 0 18.856 8.459 18.856 18.855 0 10.397-8.459 18.856-18.856 18.856h-128.015c-10.397 0-18.856-8.459-18.856-18.856 0-10.396 8.459-18.855 18.856-18.855z"/><path d="m101.629 293.682c-18.669 0-33.856 15.188-33.856 33.856s15.188 33.855 33.856 33.855 33.856-15.188 33.856-33.855c-.001-18.669-15.188-33.856-33.856-33.856zm0 52.712c-10.397 0-18.856-8.459-18.856-18.855 0-10.397 8.459-18.856 18.856-18.856 10.396 0 18.855 8.459 18.855 18.856 0 10.396-8.459 18.855-18.855 18.855z"/><path d="m191.992 293.682c-18.668 0-33.855 15.188-33.855 33.856s15.188 33.855 33.855 33.855c18.669 0 33.856-15.188 33.856-33.855.001-18.669-15.187-33.856-33.856-33.856zm0 52.712c-10.396 0-18.855-8.459-18.855-18.855 0-10.397 8.459-18.856 18.855-18.856 10.397 0 18.856 8.459 18.856 18.856.001 10.396-8.458 18.855-18.856 18.855z"/><path d="m282.356 361.394h128.015c18.669 0 33.856-15.188 33.856-33.855 0-18.669-15.188-33.856-33.856-33.856h-128.015c-18.669 0-33.856 15.188-33.856 33.856 0 18.667 15.188 33.855 33.856 33.855zm0-52.712h128.015c10.397 0 18.856 8.459 18.856 18.856s-8.459 18.855-18.856 18.855h-128.015c-10.397 0-18.856-8.459-18.856-18.855 0-10.397 8.459-18.856 18.856-18.856z"/></g></g></svg>