<svg id="Layer_1" enable-background="new 0 0 512 512" height="512" viewBox="0 0 512 512" width="512" xmlns="http://www.w3.org/2000/svg"><g><path d="m330.488 0h-15.092c-9.916.307-9.909 14.696 0 15h15.092c6.895 0 12.505 5.61 12.505 12.505v32.885c0 6.895-5.61 12.505-12.505 12.505h-148.976c-6.895 0-12.505-5.61-12.505-12.505v-32.885c0-6.895 5.61-12.505 12.505-12.505h94.669c9.916-.307 9.909-14.696 0-15h-94.669c-15.167 0-27.505 12.339-27.505 27.505v32.885c0 7.874 3.327 14.986 8.648 20.005-5.321 5.019-8.648 12.131-8.648 20.005v32.885c0 7.874 3.327 14.986 8.648 20.005-5.321 5.019-8.648 12.131-8.648 20.005v32.885c0 15.166 12.338 27.505 27.505 27.505h148.977c15.167 0 27.505-12.339 27.505-27.505v-32.885c0-7.874-3.327-14.986-8.648-20.005 5.321-5.019 8.648-12.131 8.648-20.005v-32.885c0-7.874-3.327-14.986-8.648-20.005 5.321-5.019 8.648-12.131 8.648-20.005v-32.885c-.001-15.166-12.339-27.505-27.506-27.505zm12.505 173.294v32.885c0 6.895-5.61 12.505-12.505 12.505h-148.976c-6.895 0-12.505-5.61-12.505-12.505v-32.885c0-6.895 5.61-12.505 12.505-12.505h148.977c6.894 0 12.504 5.61 12.504 12.505zm0-72.895v32.885c0 6.895-5.61 12.505-12.505 12.505h-148.976c-6.895 0-12.505-5.61-12.505-12.505v-32.885c0-6.895 5.61-12.505 12.505-12.505h148.977c6.894.001 12.504 5.61 12.504 12.505z"/><path d="m268.859 34.335c0 4.142 3.358 7.5 7.5 7.5h42.01c9.916-.307 9.909-14.696 0-15h-42.01c-4.142 0-7.5 3.358-7.5 7.5z"/><path d="m235.015 26.835c-9.916.307-9.909 14.696 0 15h16.671c9.916-.307 9.909-14.696 0-15z"/><path d="m276.359 114.417h42.01c9.916-.307 9.909-14.696 0-15h-42.01c-9.916.307-9.909 14.695 0 15z"/><path d="m235.015 114.417h16.671c9.916-.307 9.909-14.696 0-15h-16.671c-9.916.307-9.909 14.695 0 15z"/><path d="m276.359 186.998h42.01c9.916-.307 9.909-14.696 0-15h-42.01c-9.916.307-9.909 14.696 0 15z"/><path d="m235.015 186.998h16.671c9.916-.307 9.909-14.696 0-15h-16.671c-9.916.307-9.909 14.696 0 15z"/><path d="m488.226 247.055h-106.14c-13.109 0-23.774 10.665-23.774 23.774v63.514c0 13.109 10.665 23.774 23.774 23.774h30.483l-4.718 15.153c-.894 5.658 1.493 8.901 7.161 9.73h40.29c5.667-.829 8.054-4.072 7.161-9.73l-4.718-15.153h30.483c13.109 0 23.774-10.665 23.774-23.774v-63.514c-.002-13.109-10.667-23.774-23.776-23.774zm-106.141 15h106.14c4.838 0 8.774 3.936 8.774 8.774v39.677h-123.688v-39.677c0-4.838 3.936-8.774 8.774-8.774zm63.025 105.945h-19.909l3.078-9.883h13.753zm43.116-24.883h-106.14c-4.838 0-8.774-3.936-8.774-8.774v-8.837h123.688v8.837c0 4.838-3.936 8.774-8.774 8.774z"/><path d="m129.914 247.055h-106.14c-13.109 0-23.774 10.665-23.774 23.774v63.514c0 13.109 10.665 23.774 23.774 23.774h30.483l-4.718 15.153c-.894 5.658 1.493 8.901 7.161 9.73h40.29c5.667-.829 8.054-4.072 7.161-9.73l-4.718-15.153h30.482c13.109 0 23.775-10.665 23.775-23.774v-63.514c-.001-13.109-10.667-23.774-23.776-23.774zm-43.115 120.945h-19.909l3.078-9.883h13.753zm43.115-24.883h-106.14c-4.838 0-8.774-3.936-8.774-8.774v-8.837h21.601c9.916-.307 9.909-14.696 0-15h-21.601v-39.677c0-4.838 3.936-8.774 8.774-8.774h106.14c4.838 0 8.775 3.936 8.775 8.774v39.677h-60.391c-9.916.307-9.909 14.696 0 15h60.391v8.837c0 4.838-3.937 8.774-8.775 8.774z"/><path d="m309.07 376.055h-106.14c-13.109 0-23.774 10.665-23.774 23.774v63.514c0 13.109 10.665 23.774 23.774 23.774h30.482l-4.718 15.153c-.893 5.657 1.494 8.9 7.161 9.729h40.289c5.667-.829 8.054-4.072 7.161-9.729l-4.718-15.153h30.482c13.109 0 23.774-10.665 23.774-23.774v-63.514c.001-13.109-10.664-23.774-23.773-23.774zm-106.14 15h106.14c4.838 0 8.774 3.936 8.774 8.774v40.677h-123.688v-40.677c0-4.838 3.936-8.774 8.774-8.774zm63.024 105.945h-19.908l3.077-9.883h13.754zm43.116-24.883h-106.14c-4.838 0-8.774-3.936-8.774-8.774v-7.837h123.688v7.837c0 4.838-3.936 8.774-8.774 8.774z"/><path d="m248.511 312.509c.307 9.916 14.696 9.909 15 0v-12c-.307-9.916-14.696-9.909-15 0z"/><path d="m248.511 353.617c.307 9.916 14.696 9.909 15 0v-10.108c-.307-9.916-14.696-9.909-15 0z"/><path d="m256.011 277.009c4.142 0 7.5-3.358 7.5-7.5v-12c-.307-9.916-14.696-9.909-15 0v12c0 4.142 3.358 7.5 7.5 7.5z"/><path d="m114.914 131.467h12c9.916-.307 9.909-14.696 0-15h-12c-9.917.307-9.909 14.696 0 15z"/><path d="m78.358 137.912c3.868 0 7.052-2.928 7.457-6.688 8.365-2.262 6.866-14.653-1.901-14.757h-5.555c-4.142 0-7.5 3.358-7.5 7.5v6.445c-.001 4.142 3.357 7.5 7.499 7.5z"/><path d="m78.358 223.912c4.142 0 7.5-3.358 7.5-7.5v-12c-.307-9.916-14.696-9.909-15 0v12c0 4.142 3.358 7.5 7.5 7.5z"/><path d="m78.358 180.912c4.142 0 7.5-3.358 7.5-7.5v-12c-.307-9.916-14.696-9.909-15 0v12c0 4.142 3.358 7.5 7.5 7.5z"/><path d="m441.142 161.412c-.307-9.916-14.696-9.909-15 0v12c.307 9.916 14.696 9.909 15 0z"/><path d="m426.185 131.224c1.227 9.3 14.721 8.619 14.957-.812v-6.445c0-4.142-3.358-7.5-7.5-7.5h-5.555c-8.774.106-10.262 12.498-1.902 14.757z"/><path d="m433.642 196.912c-4.142 0-7.5 3.358-7.5 7.5v12c.307 9.916 14.696 9.909 15 0v-12c0-4.142-3.358-7.5-7.5-7.5z"/><path d="m385.086 131.467h12c9.916-.307 9.909-14.696 0-15h-12c-9.916.307-9.909 14.696 0 15z"/></g></svg>