<svg enable-background="new 0 0 100 100" height="512" viewBox="0 0 100 100" width="512" xmlns="http://www.w3.org/2000/svg"><g id="Layer_35"><g><path d="m87.2 64.7c-2.9 0-5.3 2-6 4.7h-6.2v-11.4h.9c10.2 0 19.1-8.9 19.1-19 0-8.8-5.1-15.7-13.4-18.2-.8-6.4-5-11.6-11.1-13.9s-12.8-1-17.6 3.2c-4.7-2.1-10.5-2.1-15.7.1-4.5 1.9-7.9 5.3-9.5 9.4-3-.2-6 .8-8.3 2.9s-3.6 4.9-3.6 7.9c-6.3 1.5-10.8 7-10.8 13.7 0 7.6 6.4 14 14 14h6v11.3h-6.2c-.7-2.7-3.1-4.7-6-4.7-3.4 0-6.2 2.8-6.2 6.2s2.8 6.2 6.2 6.2c2.9 0 5.3-2 6-4.7h7.7c.8 0 1.5-.7 1.5-1.5v-12.9h8.8v15.5l-5.8 5.8c-.9-.6-2-.9-3.2-.9-3.4 0-6.2 2.8-6.2 6.2s2.8 6.2 6.2 6.2 6.2-2.8 6.2-6.2c0-1.2-.3-2.2-.9-3.2l6.1-6.1c.3-.3.4-.7.4-1.1v-16.2h8.8v24.1c-2.7.7-4.7 3.1-4.7 6 0 3.4 2.8 6.2 6.2 6.2s6.2-2.8 6.2-6.2c0-2.9-2-5.3-4.7-6v-24.1h8.8v16.2c0 .4.2.8.4 1.1l6.1 6.1c-.6.9-.9 2-.9 3.2 0 3.4 2.8 6.2 6.2 6.2s6.2-2.8 6.2-6.2-2.8-6.2-6.2-6.2c-1.2 0-2.2.3-3.2.9l-5.7-5.7v-15.6h8.9v12.8c0 .8.7 1.5 1.5 1.5h7.7c.7 2.7 3.1 4.7 6 4.7 3.4 0 6.2-2.8 6.2-6.2s-2.8-6.1-6.2-6.1zm-74.4 9.3c-1.7 0-3.2-1.4-3.2-3.2 0-1.7 1.4-3.2 3.2-3.2 1.7 0 3.2 1.4 3.2 3.2s-1.5 3.2-3.2 3.2zm15.1 13.7c-1.7 0-3.2-1.4-3.2-3.2 0-1.7 1.4-3.2 3.2-3.2 1.7 0 3.2 1.4 3.2 3.2-.1 1.8-1.5 3.2-3.2 3.2zm25.3.4c0 1.7-1.4 3.2-3.2 3.2-1.7 0-3.2-1.4-3.2-3.2 0-1.7 1.4-3.2 3.2-3.2 1.7 0 3.2 1.4 3.2 3.2zm22.1-3.6c0 1.7-1.4 3.2-3.2 3.2-1.7 0-3.2-1.4-3.2-3.2 0-1.7 1.4-3.2 3.2-3.2 1.8.1 3.2 1.5 3.2 3.2zm-67.3-40.4c0-5.7 3.9-10.2 9.6-10.9.8-.1 1.4-.8 1.3-1.6-.2-2.6.7-5 2.6-6.8 1.5-1.4 3.5-2.2 5.5-2.2.5 0 1 0 1.5.1.8.1 1.5-.3 1.7-1.1 1-3.7 4-6.9 8.2-8.7 4.7-2 10.1-1.9 14.1.2.6.3 1.3.2 1.8-.3 4-4 9.8-5.3 15.2-3.3 5.3 2 8.9 6.7 9.3 12.4 0 .6.5 1.2 1.1 1.3 7.5 2.1 12.1 8.1 12.1 15.8 0 8.5-7.5 16-16.1 16h-56.9c-6 0-11-5-11-10.9zm79.2 29.9c-1.7 0-3.2-1.4-3.2-3.2 0-1.7 1.4-3.2 3.2-3.2 1.7 0 3.2 1.4 3.2 3.2s-1.4 3.2-3.2 3.2z"/></g></g></svg>