<svg id="Capa_1" enable-background="new 0 0 322.047 322.047" height="512" viewBox="0 0 322.047 322.047" width="512" xmlns="http://www.w3.org/2000/svg"><path d="m29.581 198.714c-16.312 0-29.581-13.269-29.581-29.579 0-16.312 13.269-29.581 29.581-29.581 16.309 0 29.579 13.269 29.579 29.581 0 16.31-13.269 29.579-29.579 29.579zm0-48.425c-10.392 0-18.846 8.455-18.846 18.846s8.455 18.844 18.846 18.844 18.844-8.452 18.844-18.844-8.452-18.846-18.844-18.846z"/><path d="m161.024 198.714c-16.312 0-29.581-13.269-29.581-29.579 0-16.312 13.269-29.581 29.581-29.581s29.581 13.269 29.581 29.581c0 16.31-13.269 29.579-29.581 29.579zm0-48.425c-10.392 0-18.846 8.455-18.846 18.846s8.455 18.844 18.846 18.844 18.846-8.452 18.846-18.844-8.455-18.846-18.846-18.846z"/><path d="m292.466 198.714c-16.309 0-29.579-13.269-29.579-29.579 0-16.312 13.269-29.581 29.579-29.581 16.312 0 29.581 13.269 29.581 29.581 0 16.31-13.269 29.579-29.581 29.579zm0-48.425c-10.392 0-18.844 8.455-18.844 18.846s8.452 18.844 18.844 18.844 18.846-8.452 18.846-18.844-8.454-18.846-18.846-18.846z"/><path d="m53.675 166.391h85.879v10.735h-85.879z"/><path d="m182.494 166.391h85.879v10.735h-85.879z"/><path d="m85.879 155.656h10.735v10.735h-10.735z"/><path d="m85.879 134.186h10.735v10.735h-10.735z"/><path d="m85.879 112.717h10.735v10.735h-10.735z"/><path d="m85.879 91.247h10.735v10.735h-10.735z"/><path d="m225.433 236.168h10.735v10.735h-10.735z"/><path d="m225.433 214.698h10.735v10.735h-10.735z"/><path d="m225.433 193.228h10.735v10.735h-10.735z"/><path d="m225.433 171.759h10.735v10.735h-10.735z"/><path d="m139.554 80.512h-96.614c-2.964 0-5.367-2.403-5.367-5.367v-42.94c0-2.964 2.403-5.367 5.367-5.367h96.614c2.964 0 5.367 2.403 5.367 5.367v42.94c0 2.964-2.403 5.367-5.367 5.367zm-91.247-10.735h85.879v-32.205h-85.879z"/><path d="m59.042 48.307h10.735v10.735h-10.735z"/><path d="m80.512 48.307h42.94v10.735h-42.94z"/><path d="m279.108 295.21h-96.614c-2.964 0-5.367-2.401-5.367-5.367v-42.94c0-2.964 2.403-5.367 5.367-5.367h96.614c2.964 0 5.367 2.403 5.367 5.367v42.94c0 2.966-2.403 5.367-5.367 5.367zm-91.247-10.735h85.879v-32.205h-85.879z"/><path d="m198.596 263.005h42.94v10.735h-42.94z"/><path d="m252.27 263.005h10.735v10.735h-10.735z"/></svg>