<svg id="Capa_1" enable-background="new 0 0 512 512" height="512" viewBox="0 0 512 512" width="512" xmlns="http://www.w3.org/2000/svg"><g><path d="m510.852 258.276-60.18-95.842c-1.372-2.185-3.771-3.512-6.352-3.512h-55.373v-51.731c16.76-3.472 29.395-18.339 29.395-36.101 0-20.329-16.551-36.868-36.895-36.868-20.329 0-36.867 16.539-36.867 36.868 0 17.76 12.623 32.625 29.367 36.099v51.733h-131.936c-4.142 0-7.5 3.358-7.5 7.5s3.358 7.5 7.5 7.5h52.547l55.471 88.343-55.472 88.37h-45.103v-39.783c0-4.142-3.358-7.5-7.5-7.5s-7.5 3.358-7.5 7.5v39.783h-67.803l52.969-84.383c1.531-2.438 1.531-5.538 0-7.976l-52.966-84.354h40.746c4.142 0 7.5-3.358 7.5-7.5s-3.358-7.5-7.5-7.5h-54.312-65.634v-51.732c16.744-3.474 29.367-18.34 29.367-36.099 0-20.329-16.539-36.868-36.867-36.868s-36.867 16.539-36.867 36.868c0 17.76 12.623 32.625 29.367 36.099v51.733h-64.954c-2.729 0-5.243 1.482-6.563 3.871-1.321 2.388-1.24 5.305.21 7.616l57.649 91.856-57.65 91.884c-1.45 2.311-1.531 5.228-.21 7.616s3.834 3.87 6.563 3.87h41.584c4.142 0 7.5-3.358 7.5-7.5s-3.358-7.5-7.5-7.5h-28.023l52.945-84.385c1.529-2.438 1.529-5.535 0-7.973l-52.942-84.355h51.392v27.226c0 4.142 3.358 7.5 7.5 7.5s7.5-3.358 7.5-7.5v-27.226h61.488l55.471 88.343-55.472 88.37h-65.247c-4.142 0-7.5 3.358-7.5 7.5s3.358 7.5 7.5 7.5h150.759v39.147c-16.744 3.477-29.367 18.354-29.367 36.127 0 20.329 16.539 36.868 36.867 36.868 20.329 0 36.867-16.539 36.867-36.868 0-17.773-12.623-32.65-29.367-36.127v-39.147h194.866c2.581 0 4.98-1.327 6.352-3.513l60.18-95.871c1.531-2.438 1.531-5.538 0-7.976zm-151.271-187.186c0-12.058 9.81-21.868 21.867-21.868 12.073 0 21.895 9.81 21.895 21.868s-9.822 21.868-21.895 21.868c-12.058.001-21.867-9.81-21.867-21.868zm-301.494 0c0-12.058 9.81-21.868 21.867-21.868 12.058 0 21.867 9.81 21.867 21.868s-9.81 21.868-21.867 21.868c-12.058.001-21.867-9.81-21.867-21.868zm205.734 369.82c0 12.058-9.81 21.868-21.867 21.868s-21.867-9.81-21.867-21.868c0-12.074 9.81-21.896 21.867-21.896 12.058-.001 21.867 9.822 21.867 21.896zm176.352-90.275h-127.906l52.969-84.383c1.531-2.438 1.531-5.538 0-7.976l-52.966-84.354h61.679v27.226c0 4.142 3.358 7.5 7.5 7.5s7.5-3.358 7.5-7.5v-27.226h51.226l55.471 88.343z"/></g></svg>