<svg id="Capa_1" enable-background="new 0 0 511.998 511.998" height="512" viewBox="0 0 511.998 511.998" width="512" xmlns="http://www.w3.org/2000/svg"><g><path d="m0 165.517c0 11.972 9.739 21.711 21.71 21.711h33.155l9.91 13.327c2.632 3.539 6.671 5.568 11.08 5.568 4.41 0 8.449-2.03 11.08-5.568l9.912-13.327h33.154c11.972 0 21.711-9.739 21.711-21.711v-139.232c0-11.972-9.739-21.711-21.711-21.711h-108.29c-11.972 0-21.711 9.739-21.711 21.711zm15-139.232c0-3.7 3.011-6.711 6.711-6.711h108.291c3.7 0 6.711 3.011 6.711 6.711v139.231c0 3.701-3.011 6.711-6.711 6.711h-33.264c-4.65 0-9.085 2.228-11.86 5.96l-9.021 12.13-9.021-12.13c-2.775-3.732-7.21-5.96-11.861-5.96h-33.265c-3.7 0-6.71-3.01-6.71-6.711z"/><path d="m61.983 59.335h27.746c4.143 0 7.5-3.358 7.5-7.5s-3.357-7.5-7.5-7.5h-27.746c-4.143 0-7.5 3.358-7.5 7.5s3.358 7.5 7.5 7.5z"/><path d="m45.814 88.291h60.083c4.143 0 7.5-3.358 7.5-7.5s-3.357-7.5-7.5-7.5h-60.083c-4.143 0-7.5 3.358-7.5 7.5s3.358 7.5 7.5 7.5z"/><path d="m45.814 117.246h60.083c4.143 0 7.5-3.358 7.5-7.5s-3.357-7.5-7.5-7.5h-60.083c-4.143 0-7.5 3.358-7.5 7.5s3.358 7.5 7.5 7.5z"/><path d="m45.814 146.201h60.083c4.143 0 7.5-3.358 7.5-7.5s-3.357-7.5-7.5-7.5h-60.083c-4.143 0-7.5 3.358-7.5 7.5s3.358 7.5 7.5 7.5z"/><path d="m141.806 507.424h108.291c11.972 0 21.711-9.739 21.711-21.711v-139.232c0-11.972-9.739-21.711-21.711-21.711h-33.154l-9.91-13.327c-2.632-3.539-6.67-5.568-11.079-5.568h-.002c-4.409 0-8.448 2.029-11.081 5.568l-9.91 13.327h-33.154c-11.972 0-21.711 9.739-21.711 21.711v139.231c-.001 11.973 9.738 21.712 21.71 21.712zm-6.711-160.943c0-3.701 3.011-6.711 6.711-6.711h33.264c4.65 0 9.085-2.228 11.861-5.96l9.021-12.13 9.021 12.13c2.775 3.732 7.21 5.96 11.861 5.96h33.263c3.7 0 6.711 3.01 6.711 6.711v139.231c0 3.7-3.011 6.711-6.711 6.711h-108.291c-3.7 0-6.711-3.011-6.711-6.711z"/><path d="m182.078 380.797h27.746c4.143 0 7.5-3.358 7.5-7.5s-3.357-7.5-7.5-7.5h-27.746c-4.143 0-7.5 3.358-7.5 7.5s3.358 7.5 7.5 7.5z"/><path d="m165.91 409.752h60.083c4.143 0 7.5-3.358 7.5-7.5s-3.357-7.5-7.5-7.5h-60.083c-4.143 0-7.5 3.358-7.5 7.5s3.358 7.5 7.5 7.5z"/><path d="m165.91 438.708h60.083c4.143 0 7.5-3.358 7.5-7.5s-3.357-7.5-7.5-7.5h-60.083c-4.143 0-7.5 3.358-7.5 7.5s3.358 7.5 7.5 7.5z"/><path d="m165.91 467.663h60.083c4.143 0 7.5-3.358 7.5-7.5s-3.357-7.5-7.5-7.5h-60.083c-4.143 0-7.5 3.358-7.5 7.5s3.358 7.5 7.5 7.5z"/><path d="m329.92 59.335c4.143 0 7.5-3.358 7.5-7.5s-3.357-7.5-7.5-7.5h-27.746c-4.143 0-7.5 3.358-7.5 7.5s3.357 7.5 7.5 7.5z"/><path d="m346.088 73.291h-60.083c-4.143 0-7.5 3.358-7.5 7.5s3.357 7.5 7.5 7.5h60.083c4.143 0 7.5-3.358 7.5-7.5s-3.358-7.5-7.5-7.5z"/><path d="m346.088 102.246h-60.083c-4.143 0-7.5 3.358-7.5 7.5s3.357 7.5 7.5 7.5h60.083c4.143 0 7.5-3.358 7.5-7.5s-3.358-7.5-7.5-7.5z"/><path d="m346.088 131.201h-60.083c-4.143 0-7.5 3.358-7.5 7.5s3.357 7.5 7.5 7.5h60.083c4.143 0 7.5-3.358 7.5-7.5s-3.358-7.5-7.5-7.5z"/><path d="m450.015 380.797c4.143 0 7.5-3.358 7.5-7.5s-3.357-7.5-7.5-7.5h-27.746c-4.143 0-7.5 3.358-7.5 7.5s3.357 7.5 7.5 7.5z"/><path d="m398.601 402.252c0 4.142 3.357 7.5 7.5 7.5h60.083c4.143 0 7.5-3.358 7.5-7.5s-3.357-7.5-7.5-7.5h-60.083c-4.143 0-7.5 3.358-7.5 7.5z"/><path d="m406.101 438.708h60.083c4.143 0 7.5-3.358 7.5-7.5s-3.357-7.5-7.5-7.5h-60.083c-4.143 0-7.5 3.358-7.5 7.5s3.357 7.5 7.5 7.5z"/><path d="m406.101 467.663h60.083c4.143 0 7.5-3.358 7.5-7.5s-3.357-7.5-7.5-7.5h-60.083c-4.143 0-7.5 3.358-7.5 7.5s3.357 7.5 7.5 7.5z"/><path d="m504.498 248.499h-34.383c-3.407-14.618-16.534-25.543-32.175-25.543-15.64 0-28.767 10.926-32.174 25.543h-55.746c-3.407-14.618-16.534-25.543-32.175-25.543s-28.768 10.926-32.175 25.543h-55.746c-3.407-14.618-16.534-25.543-32.175-25.543s-28.768 10.926-32.175 25.543h-55.746c-3.407-14.618-16.534-25.543-32.174-25.543-15.641 0-28.768 10.926-32.175 25.543h-37.979c-4.143 0-7.5 3.358-7.5 7.5s3.357 7.5 7.5 7.5h37.98c3.407 14.618 16.534 25.544 32.175 25.544 15.64 0 28.767-10.926 32.174-25.544h55.746c3.407 14.618 16.534 25.544 32.175 25.544s28.768-10.926 32.175-25.544h55.746c3.407 14.618 16.534 25.544 32.175 25.544s28.768-10.926 32.175-25.544h55.746c3.407 14.618 16.534 25.544 32.174 25.544 15.641 0 28.768-10.926 32.175-25.544h34.383c4.143 0 7.5-3.358 7.5-7.5s-3.358-7.5-7.501-7.5zm-426.843 25.544c-9.949 0-18.044-8.094-18.044-18.044 0-9.949 8.095-18.043 18.044-18.043s18.043 8.094 18.043 18.043c0 9.95-8.094 18.044-18.043 18.044zm120.095 0c-9.949 0-18.044-8.094-18.044-18.044 0-9.949 8.095-18.043 18.044-18.043s18.044 8.094 18.044 18.043c0 9.95-8.095 18.044-18.044 18.044zm120.096 0c-9.949 0-18.044-8.094-18.044-18.044 0-9.949 8.095-18.043 18.044-18.043s18.044 8.094 18.044 18.043c0 9.95-8.095 18.044-18.044 18.044zm120.094 0c-9.949 0-18.043-8.094-18.043-18.044 0-9.949 8.094-18.043 18.043-18.043s18.044 8.094 18.044 18.043c0 9.95-8.094 18.044-18.044 18.044z"/><path d="m490.287 324.771h-33.153l-9.911-13.327c-2.632-3.539-6.671-5.568-11.08-5.568-4.41 0-8.449 2.03-11.08 5.568l-9.912 13.327h-33.154c-11.972 0-21.711 9.739-21.711 21.711v139.231c0 11.972 9.739 21.711 21.711 21.711h38.444c4.143 0 7.5-3.358 7.5-7.5s-3.357-7.5-7.5-7.5h-38.444c-3.7 0-6.711-3.011-6.711-6.711v-139.232c0-3.701 3.011-6.711 6.711-6.711h33.264c4.65 0 9.085-2.228 11.86-5.96l9.022-12.13 9.021 12.13c2.775 3.732 7.21 5.96 11.86 5.96h33.263c3.7 0 6.711 3.01 6.711 6.711v139.231c0 3.7-3.011 6.711-6.711 6.711h-34.847c-4.143 0-7.5 3.358-7.5 7.5s3.357 7.5 7.5 7.5h34.847c11.972 0 21.711-9.739 21.711-21.711v-139.231c0-11.971-9.739-21.71-21.711-21.71z"/><path d="m384.403 88.905c4.143 0 7.5-3.358 7.5-7.5v-55.12c0-11.972-9.739-21.711-21.711-21.711h-108.291c-11.972 0-21.711 9.74-21.711 21.711v139.231c0 11.972 9.739 21.711 21.711 21.711h33.154l9.91 13.327c2.632 3.539 6.67 5.568 11.079 5.568h.002c4.409 0 8.448-2.029 11.081-5.568l9.91-13.327h33.154c11.972 0 21.711-9.739 21.711-21.711v-49.111c0-4.142-3.357-7.5-7.5-7.5s-7.5 3.358-7.5 7.5v49.111c0 3.701-3.011 6.711-6.711 6.711h-33.264c-4.65 0-9.085 2.228-11.861 5.96l-9.021 12.13-9.021-12.13c-2.775-3.732-7.21-5.96-11.861-5.96h-33.263c-3.7 0-6.711-3.01-6.711-6.711v-139.23c0-3.701 3.011-6.711 6.711-6.711h108.291c3.7 0 6.711 3.011 6.711 6.711v55.12c.001 4.141 3.359 7.499 7.501 7.499z"/></g></svg>