<svg id="Capa_1" enable-background="new 0 0 512 512" height="512" viewBox="0 0 512 512" width="512" xmlns="http://www.w3.org/2000/svg"><g><path d="m489.42 41.417h-18.837v-19.037c0-4.729-3.847-8.575-8.575-8.575h-25.46c-4.729 0-8.575 3.847-8.575 8.575v19.036h-54.028v-19.036c0-4.729-3.847-8.575-8.575-8.575h-25.461c-4.729 0-8.575 3.847-8.575 8.575v19.036h-54.027v-19.036c0-4.729-3.847-8.575-8.575-8.575h-25.462c-4.729 0-8.575 3.847-8.575 8.575v19.036h-54.027v-19.036c0-4.729-3.847-8.575-8.575-8.575h-25.461c-4.729 0-8.575 3.847-8.575 8.575v19.036h-54.029v-19.036c0-4.729-3.847-8.575-8.575-8.575h-25.46c-4.729 0-8.575 3.847-8.575 8.575v19.036h-18.838c-12.451.001-22.58 10.129-22.58 22.581v411.618c0 12.45 10.129 22.58 22.58 22.58h101.784c4.142 0 7.5-3.357 7.5-7.5s-3.358-7.5-7.5-7.5h-26.519v-192.087h67.83v192.087h-6.31c-4.142 0-7.5 3.357-7.5 7.5s3.358 7.5 7.5 7.5h330.055c12.451 0 22.58-10.13 22.58-22.58v-411.618c0-12.452-10.129-22.58-22.58-22.58zm-46.447-12.612h12.61v40.223h-12.61zm-96.64 0h12.611v40.223h-12.611zm-96.639 0h12.611v40.223h-12.611zm-96.638 0h12.611v40.223h-12.611zm-96.639 0h12.611v40.223h-12.611zm-33.837 27.612h18.837v19.036c0 4.729 3.847 8.575 8.575 8.575h25.46c4.729 0 8.575-3.847 8.575-8.575v-19.036h54.028v19.036c0 4.729 3.847 8.575 8.575 8.575h25.461c4.729 0 8.575-3.847 8.575-8.575v-19.036h54.027v19.036c0 4.729 3.847 8.575 8.575 8.575h25.461c4.729 0 8.575-3.847 8.575-8.575v-19.036h54.027v19.036c0 4.729 3.847 8.575 8.575 8.575h25.461c4.729 0 8.575-3.847 8.575-8.575v-19.036h54.028v19.036c0 4.729 3.847 8.575 8.575 8.575h25.46c4.729 0 8.575-3.847 8.575-8.575v-19.036h18.837c4.18 0 7.58 3.4 7.58 7.58v46.448h-355.133c-4.142 0-7.5 3.357-7.5 7.5s3.358 7.5 7.5 7.5h23.811v67.833h-26.42v-32.83c0-4.733-3.851-8.585-8.585-8.585h-32.825v-26.418h9.018c4.142 0 7.5-3.357 7.5-7.5s-3.358-7.5-7.5-7.5h-91.863v-46.448c0-4.18 3.4-7.58 7.58-7.58zm378.97 385.351v-26.415h54.025v26.415c-11.719 0 5.149 0-54.025 0zm54.025-41.415h-81.635v-26.415h81.635zm-88.05-41.415c-4.733 0-8.585 3.852-8.585 8.585v39.244c0 4.734 3.852 8.586 8.585 8.586h19.024v32.829c0 4.734 3.852 8.586 8.586 8.586h19.029v26.427h-67.83v-150.672h32.825c4.733 0 8.585-3.852 8.585-8.586v-39.244c0-4.733-3.852-8.585-8.585-8.585h-32.825v-150.663h67.83v233.493zm-269.685-82.83v-26.415h109.245v26.415zm26.415-109.245v26.415h-81.635v-26.415zm-54.025 41.415h95.44v26.415h-95.44zm178.275-82.833v150.663h-26.42v-32.83c0-4.733-3.851-8.585-8.585-8.585h-32.825v-109.248zm65.456 150.663c-4.143 0-7.5 3.357-7.5 7.5s3.357 7.5 7.5 7.5h58.784v26.415h-150.66v-26.415h56.876c4.143 0 7.5-3.357 7.5-7.5s-3.357-7.5-7.5-7.5h-15.456v-150.663h67.83v150.663zm-91.876 56.415h67.83v26.415h-67.83zm74.245 41.415c4.733 0 8.585-3.852 8.585-8.586v-32.829h26.42v150.672h-67.83v-109.257zm-273.75 109.257c-4.18 0-7.58-3.4-7.58-7.58v-350.17h67.845v26.418h-46.64c-4.734 0-8.585 3.852-8.585 8.585v39.244c0 4.734 3.852 8.586 8.585 8.586h19.025v32.829c0 4.734 3.852 8.586 8.585 8.586h19.025c0 40.942.005 67.728.005 233.502zm158.095-192.087h26.41v74.244c0 4.734 3.852 8.586 8.585 8.586h32.834v109.257h-67.83v-192.087zm316.325 184.507c0 4.18-3.4 7.58-7.58 7.58h-60.255v-26.427h32.825c4.733 0 8.585-3.852 8.585-8.586v-80.659c0-4.733-3.852-8.585-8.585-8.585h-32.825v-233.493h67.835z"/></g></svg>