<svg id="Layer_1" enable-background="new 0 0 450 450" height="512" viewBox="0 0 450 450" width="512" xmlns="http://www.w3.org/2000/svg"><g><g><path d="m393.9 354.9h-72.1c-2.8 0-5-2.2-5-5s2.2-5 5-5h72.1c7.1 0 12.9-5.8 12.9-12.9v-190.6c0-7.1-5.8-12.9-12.9-12.9h-337.3c-7.1 0-12.9 5.8-12.9 12.9v190.5c0 7.1 5.8 12.9 12.9 12.9h72.1c2.8 0 5 2.2 5 5s-2.2 5-5 5h-72.1c-12.6 0-22.9-10.3-22.9-22.9v-190.5c0-12.6 10.3-22.9 22.9-22.9h337.3c12.6 0 22.9 10.3 22.9 22.9v190.5c.1 12.7-10.2 23-22.9 23z"/></g><g><g><path d="m134 256.5h-95.3c-2.8 0-5-2.2-5-5s2.2-5 5-5h95.3c2.8 0 5 2.2 5 5s-2.2 5-5 5z"/></g><g><path d="m87.9 294.6h-49.2c-2.8 0-5-2.2-5-5s2.2-5 5-5h49.3c2.8 0 5 2.2 5 5s-2.3 5-5.1 5z"/></g><g><path d="m411.9 256.5h-95.4c-2.8 0-5-2.2-5-5s2.2-5 5-5h95.4c2.8 0 5 2.2 5 5s-2.3 5-5 5z"/></g><g><path d="m411.9 294.6h-49.3c-2.8 0-5-2.2-5-5s2.2-5 5-5h49.3c2.8 0 5 2.2 5 5s-2.3 5-5 5z"/></g></g><g><path d="m225.3 103c-2.8 0-5-2.2-5-5v-30.5c0-2.8 2.2-5 5-5s5 2.2 5 5v30.5c0 2.8-2.3 5-5 5z"/></g><g><path d="m225.3 72.5c-18.7 0-33.9-15.2-33.9-33.9s15.2-33.9 33.9-33.9 33.9 15.2 33.9 33.9-15.3 33.9-33.9 33.9zm0-57.8c-13.2 0-23.9 10.7-23.9 23.9s10.7 23.9 23.9 23.9 23.9-10.7 23.9-23.9-10.8-23.9-23.9-23.9z"/></g><g><path d="m269.8 128.5c-2.8 0-5-2.2-5-5v-12.8c0-4.3-3.5-7.8-7.8-7.8h-63.6c-4.3 0-7.8 3.5-7.8 7.8v12.8c0 2.8-2.2 5-5 5s-5-2.2-5-5v-12.8c0-9.8 8-17.8 17.8-17.8h63.6c9.8 0 17.8 8 17.8 17.8v12.8c0 2.8-2.2 5-5 5z"/></g><g><g><path d="m225.3 446.7c-56.1 0-101.7-45.6-101.7-101.7s45.6-101.7 101.7-101.7 101.7 45.7 101.7 101.7-45.7 101.7-101.7 101.7zm0-193.3c-50.6 0-91.7 41.1-91.7 91.7s41.1 91.7 91.7 91.7 91.7-41.1 91.7-91.7-41.2-91.7-91.7-91.7z"/></g><g><path d="m225.3 423c-42.9 0-77.9-34.9-77.9-77.9s34.9-77.9 77.9-77.9 77.9 34.9 77.9 77.9-34.9 77.9-77.9 77.9zm0-145.8c-37.4 0-67.9 30.5-67.9 67.9s30.5 67.9 67.9 67.9 67.9-30.5 67.9-67.9-30.4-67.9-67.9-67.9z"/></g><g><path d="m225.3 285.4c-2.8 0-5-2.2-5-5v-8.2c0-2.8 2.2-5 5-5s5 2.2 5 5v8.2c0 2.7-2.2 5-5 5z"/></g><g><path d="m257.7 294c-.9 0-1.7-.2-2.5-.7-2.4-1.4-3.2-4.4-1.8-6.8l4.1-7.1c1.4-2.4 4.4-3.2 6.8-1.8s3.2 4.4 1.8 6.8l-4.1 7.1c-.9 1.6-2.6 2.5-4.3 2.5z"/></g><g><path d="m281.4 317.7c-1.7 0-3.4-.9-4.3-2.5-1.4-2.4-.6-5.5 1.8-6.8l7.1-4.1c2.4-1.4 5.5-.6 6.8 1.8 1.4 2.4.6 5.5-1.8 6.8l-7.1 4.1c-.8.5-1.7.7-2.5.7z"/></g><g><path d="m298.2 350.1h-8.2c-2.8 0-5-2.2-5-5s2.2-5 5-5h8.2c2.8 0 5 2.2 5 5s-2.2 5-5 5z"/></g><g><path d="m288.4 386.5c-.9 0-1.7-.2-2.5-.7l-7.1-4.1c-2.4-1.4-3.2-4.4-1.8-6.8s4.4-3.2 6.8-1.8l7.1 4.1c2.4 1.4 3.2 4.4 1.8 6.8-.8 1.6-2.5 2.5-4.3 2.5z"/></g><g><path d="m261.8 413.2c-1.7 0-3.4-.9-4.3-2.5l-4.1-7.1c-1.4-2.4-.6-5.5 1.8-6.8 2.4-1.4 5.5-.6 6.8 1.8l4.1 7.1c1.4 2.4.6 5.5-1.8 6.8-.8.5-1.7.7-2.5.7z"/></g><g><path d="m225.3 423c-2.8 0-5-2.2-5-5v-8.2c0-2.8 2.2-5 5-5s5 2.2 5 5v8.2c0 2.7-2.2 5-5 5z"/></g><g><path d="m188.9 413.2c-.9 0-1.7-.2-2.5-.7-2.4-1.4-3.2-4.4-1.8-6.8l4.1-7.1c1.4-2.4 4.4-3.2 6.8-1.8s3.2 4.4 1.8 6.8l-4.1 7.1c-.9 1.6-2.6 2.5-4.3 2.5z"/></g><g><path d="m162.2 386.5c-1.7 0-3.4-.9-4.3-2.5-1.4-2.4-.6-5.5 1.8-6.8l7.1-4.1c2.4-1.4 5.4-.6 6.8 1.8s.6 5.5-1.8 6.8l-7.1 4.1c-.8.5-1.7.7-2.5.7z"/></g><g><path d="m160.6 350.1h-8.2c-2.8 0-5-2.2-5-5s2.2-5 5-5h8.2c2.8 0 5 2.2 5 5s-2.2 5-5 5z"/></g><g><path d="m169.3 317.7c-.9 0-1.7-.2-2.5-.7l-7.1-4.1c-2.4-1.4-3.2-4.4-1.8-6.8s4.4-3.2 6.8-1.8l7.1 4.1c2.4 1.4 3.2 4.4 1.8 6.8-.9 1.6-2.6 2.5-4.3 2.5z"/></g><g><path d="m193 294c-1.7 0-3.4-.9-4.3-2.5l-4.1-7.1c-1.4-2.4-.6-5.5 1.8-6.8 2.4-1.4 5.4-.6 6.8 1.8l4.1 7.1c1.4 2.4.6 5.5-1.8 6.8-.8.5-1.7.7-2.5.7z"/></g><g><path d="m225.3 360c-8.2 0-14.9-6.7-14.9-14.9s6.7-14.9 14.9-14.9 14.9 6.7 14.9 14.9-6.7 14.9-14.9 14.9zm0-19.8c-2.7 0-4.9 2.2-4.9 4.9s2.2 4.9 4.9 4.9 4.9-2.2 4.9-4.9-2.2-4.9-4.9-4.9z"/></g><g><path d="m225.3 340.2c-2.8 0-5-2.2-5-5v-31c0-2.8 2.2-5 5-5s5 2.2 5 5v31c0 2.8-2.2 5-5 5z"/></g><g><path d="m215.4 350.1h-32.4c-2.8 0-5-2.2-5-5s2.2-5 5-5h32.4c2.8 0 5 2.2 5 5s-2.2 5-5 5z"/></g></g><g><g><path d="m225.3 253.4c-2.8 0-5-2.2-5-5v-28.7c0-2.8 2.2-5 5-5s5 2.2 5 5v28.7c0 2.7-2.3 5-5 5z"/></g><g><path d="m390.8 224.6h-331c-2.8 0-5-2.2-5-5s2.2-5 5-5h331c2.8 0 5 2.2 5 5s-2.3 5-5 5z"/></g><g><g><path d="m85.6 224.6c-2.8 0-5-2.2-5-5v-26.1c0-2.8 2.2-5 5-5s5 2.2 5 5v26.1c0 2.8-2.2 5-5 5z"/></g><g><path d="m132.2 224.6c-2.8 0-5-2.2-5-5v-26.1c0-2.8 2.2-5 5-5s5 2.2 5 5v26.1c0 2.8-2.3 5-5 5z"/></g><g><path d="m178.7 224.6c-2.8 0-5-2.2-5-5v-26.1c0-2.8 2.2-5 5-5s5 2.2 5 5v26.1c0 2.8-2.2 5-5 5z"/></g><g><path d="m225.3 224.6c-2.8 0-5-2.2-5-5v-26.1c0-2.8 2.2-5 5-5s5 2.2 5 5v26.1c0 2.8-2.3 5-5 5z"/></g><g><path d="m271.8 224.6c-2.8 0-5-2.2-5-5v-26.1c0-2.8 2.2-5 5-5s5 2.2 5 5v26.1c0 2.8-2.2 5-5 5z"/></g><g><path d="m318.4 224.6c-2.8 0-5-2.2-5-5v-26.1c0-2.8 2.2-5 5-5s5 2.2 5 5v26.1c0 2.8-2.3 5-5 5z"/></g><g><path d="m364.9 224.6c-2.8 0-5-2.2-5-5v-26.1c0-2.8 2.2-5 5-5s5 2.2 5 5v26.1c0 2.8-2.2 5-5 5z"/></g></g><g><g><path d="m85.6 198.5c-10.5 0-19.1-8.6-19.1-19.1s8.6-19.1 19.1-19.1 19.1 8.6 19.1 19.1-8.6 19.1-19.1 19.1zm0-28.2c-5 0-9.1 4.1-9.1 9.1s4.1 9.1 9.1 9.1 9.1-4.1 9.1-9.1-4.1-9.1-9.1-9.1z"/></g><g><path d="m132.2 198.5c-10.5 0-19.1-8.6-19.1-19.1s8.6-19.1 19.1-19.1 19.1 8.6 19.1 19.1-8.6 19.1-19.1 19.1zm0-28.2c-5 0-9.1 4.1-9.1 9.1s4.1 9.1 9.1 9.1 9.1-4.1 9.1-9.1-4.1-9.1-9.1-9.1z"/></g><g><path d="m178.7 198.5c-10.5 0-19.1-8.6-19.1-19.1s8.6-19.1 19.1-19.1 19.1 8.6 19.1 19.1-8.6 19.1-19.1 19.1zm0-28.2c-5 0-9.1 4.1-9.1 9.1s4.1 9.1 9.1 9.1 9.1-4.1 9.1-9.1-4.1-9.1-9.1-9.1z"/></g><g><path d="m225.3 198.5c-10.5 0-19.1-8.6-19.1-19.1s8.6-19.1 19.1-19.1 19.1 8.6 19.1 19.1-8.6 19.1-19.1 19.1zm0-28.2c-5 0-9.1 4.1-9.1 9.1s4.1 9.1 9.1 9.1 9.1-4.1 9.1-9.1-4.1-9.1-9.1-9.1z"/></g><g><path d="m271.8 198.5c-10.5 0-19.1-8.6-19.1-19.1s8.6-19.1 19.1-19.1 19.1 8.6 19.1 19.1-8.6 19.1-19.1 19.1zm0-28.2c-5 0-9.1 4.1-9.1 9.1s4.1 9.1 9.1 9.1 9.1-4.1 9.1-9.1-4.1-9.1-9.1-9.1z"/></g><g><path d="m318.4 198.5c-10.5 0-19.1-8.6-19.1-19.1s8.6-19.1 19.1-19.1 19.1 8.6 19.1 19.1-8.6 19.1-19.1 19.1zm0-28.2c-5 0-9.1 4.1-9.1 9.1s4.1 9.1 9.1 9.1 9.1-4.1 9.1-9.1-4.1-9.1-9.1-9.1z"/></g><g><path d="m364.9 198.5c-10.5 0-19.1-8.6-19.1-19.1s8.6-19.1 19.1-19.1 19.1 8.6 19.1 19.1-8.6 19.1-19.1 19.1zm0-28.2c-5 0-9.1 4.1-9.1 9.1s4.1 9.1 9.1 9.1 9.1-4.1 9.1-9.1-4.1-9.1-9.1-9.1z"/></g></g></g></g></svg>