<svg id="Layer_1" enable-background="new 0 0 64 64" height="512" viewBox="0 0 64 64" width="512" xmlns="http://www.w3.org/2000/svg"><g><path d="m57 14c1.654 0 3-1.346 3-3v-8c0-1.654-1.346-3-3-3h-16c-1.654 0-3 1.346-3 3v3h-4.586l-1.707-1.707c-.391-.391-1.023-.391-1.414 0s-.391 1.023 0 1.414l.293.293h-4.586v-3c0-1.654-1.346-3-3-3h-16c-1.654 0-3 1.346-3 3v8c0 1.654 1.346 3 3 3h16c1.654 0 3-1.346 3-3v-3h4.586l-.293.293c-.391.391-.391 1.023 0 1.414.195.195.451.293.707.293s.512-.098.707-.293l1.707-1.707h4.586v3c0 1.654 1.346 3 3 3h7v3.586l-.293-.293c-.391-.391-1.023-.391-1.414 0s-.391 1.023 0 1.414l1.707 1.707v4.586h-7c-1.654 0-3 1.346-3 3v3h-4.586l.293-.293c.391-.391.391-1.023 0-1.414s-1.023-.391-1.414 0l-1.707 1.707h-4.586v-3c0-1.654-1.346-3-3-3h-16c-1.654 0-3 1.346-3 3v8c0 1.654 1.346 3 3 3h7v4.586l-.293-.293c-.391-.391-1.023-.391-1.414 0s-.391 1.023 0 1.414l1.707 1.707v3.586h-7c-1.654 0-3 1.346-3 3v8c0 1.654 1.346 3 3 3h16c1.654 0 3-1.346 3-3v-3h4.586l-.293.293c-.391.391-.391 1.023 0 1.414.195.195.451.293.707.293s.512-.098.707-.293l1.707-1.707h4.586v3c0 1.654 1.346 3 3 3h16c1.654 0 3-1.346 3-3v-8c0-1.654-1.346-3-3-3h-16c-1.654 0-3 1.346-3 3v3h-4.586l-1.707-1.707c-.391-.391-1.023-.391-1.414 0s-.391 1.023 0 1.414l.293.293h-4.586v-3c0-1.654-1.346-3-3-3h-7v-3.586l1.707-1.707c.391-.391.391-1.023 0-1.414s-1.023-.391-1.414 0l-.293.293v-4.586h7c1.654 0 3-1.346 3-3v-3h4.586l1.707 1.707c.195.195.451.293.707.293s.512-.098.707-.293c.391-.391.391-1.023 0-1.414l-.293-.293h4.586v3c0 1.654 1.346 3 3 3h16c1.654 0 3-1.346 3-3v-8c0-1.654-1.346-3-3-3h-7v-4.586l1.707-1.707c.391-.391.391-1.023 0-1.414s-1.023-.391-1.414 0l-.293.293v-3.586zm-33-3c0 .551-.448 1-1 1h-16c-.552 0-1-.449-1-1v-8c0-.551.448-1 1-1h16c.552 0 1 .449 1 1zm16 42c0-.551.448-1 1-1h16c.552 0 1 .449 1 1v8c0 .551-.448 1-1 1h-16c-.552 0-1-.449-1-1zm-16 0v8c0 .551-.448 1-1 1h-16c-.552 0-1-.449-1-1v-8c0-.551.448-1 1-1h16c.552 0 1 .449 1 1zm0-17c0 .551-.448 1-1 1h-16c-.552 0-1-.449-1-1v-8c0-.551.448-1 1-1h16c.552 0 1 .449 1 1zm34-8v8c0 .551-.448 1-1 1h-16c-.552 0-1-.449-1-1v-8c0-.551.448-1 1-1h16c.552 0 1 .449 1 1zm-18-17v-8c0-.551.448-1 1-1h16c.552 0 1 .449 1 1v8c0 .551-.448 1-1 1h-16c-.552 0-1-.449-1-1z"/><path d="m21 4h-12c-.553 0-1 .448-1 1s.447 1 1 1h12c.553 0 1-.448 1-1s-.447-1-1-1z"/><path d="m56 5c0-.552-.447-1-1-1h-12c-.553 0-1 .448-1 1s.447 1 1 1h12c.553 0 1-.448 1-1z"/><path d="m21 29h-12c-.553 0-1 .448-1 1s.447 1 1 1h12c.553 0 1-.448 1-1s-.447-1-1-1z"/><path d="m45 29h-2c-.553 0-1 .448-1 1s.447 1 1 1h2c.553 0 1-.448 1-1s-.447-1-1-1z"/><path d="m48 30c0 .552.447 1 1 1h6c.553 0 1-.448 1-1s-.447-1-1-1h-6c-.553 0-1 .448-1 1z"/><path d="m11 54h-2c-.553 0-1 .448-1 1s.447 1 1 1h2c.553 0 1-.448 1-1s-.447-1-1-1z"/><path d="m14 55c0 .552.447 1 1 1h6c.553 0 1-.448 1-1s-.447-1-1-1h-6c-.553 0-1 .448-1 1z"/><path d="m43 56h12c.553 0 1-.448 1-1s-.447-1-1-1h-12c-.553 0-1 .448-1 1s.447 1 1 1z"/></g></svg>