<svg clip-rule="evenodd" fill-rule="evenodd" height="512" image-rendering="optimizeQuality" shape-rendering="geometricPrecision" text-rendering="geometricPrecision" viewBox="0 0 1707 1707" width="512" xmlns="http://www.w3.org/2000/svg"><g id="Layer_x0020_1"><g id="_512339912"><g><path d="m1687 938h-166c-11 0-20-9-20-20s9-20 20-20h166c11 0 20 9 20 20s-9 20-20 20zm-374 0h-168c-11 0-20-9-20-20s9-20 20-20h168c11 0 20 9 20 20s-9 20-20 20zm-376 0h-168c-11 0-20-9-20-20s9-20 20-20h168c11 0 20 9 20 20s-9 20-20 20zm-375 0h-168c-11 0-20-9-20-20s9-20 20-20h168c11 0 20 9 20 20s-9 20-20 20zm-376 0h-166c-11 0-20-9-20-20s9-20 20-20h166c11 0 20 9 20 20s-9 20-20 20z"/></g><g><path d="m290 1042c-68 0-124-56-124-124s56-124 124-124 124 56 124 124-56 124-124 124zm0-208c-46 0-84 38-84 84s38 84 84 84 84-38 84-84-38-84-84-84z"/></g><g><path d="m666 1042c-69 0-124-56-124-124s55-124 124-124c68 0 123 56 123 124s-55 124-123 124zm0-208c-47 0-84 38-84 84s37 84 84 84c46 0 83-38 83-84s-37-84-83-84z"/></g><g><path d="m1041 1042c-68 0-124-56-124-124s56-124 124-124 124 56 124 124-56 124-124 124zm0-208c-46 0-84 38-84 84s38 84 84 84 84-38 84-84-38-84-84-84z"/></g><g><path d="m1417 1042c-68 0-124-56-124-124s56-124 124-124 124 56 124 124-56 124-124 124zm0-208c-46 0-84 38-84 84s38 84 84 84 84-38 84-84-38-84-84-84z"/></g><g><path d="m430 736c-6 0-13-3-16-8l-54-77h-8c-70 0-127-57-127-127v-113c0-70 57-127 127-127h325c70 0 127 57 127 127v113c0 70-57 127-127 127h-177l-54 77c-3 5-9 8-16 8zm-78-412c-48 0-87 39-87 87v113c0 48 39 87 87 87h18c7 0 13 3 17 8l43 62 43-62c4-5 10-8 17-8h187c48 0 87-39 87-87v-113c0-48-39-87-87-87z"/></g><g><path d="m663 435h-297c-11 0-20-9-20-20s9-20 20-20h297c11 0 20 9 20 20s-9 20-20 20z"/></g><g><path d="m663 540h-297c-11 0-20-9-20-20s9-20 20-20h297c11 0 20 9 20 20s-9 20-20 20z"/></g><g><path d="m1341 435h-297c-12 0-20-9-20-20s9-20 20-20h297c11 0 20 9 20 20s-9 20-20 20z"/></g><g><path d="m1341 540h-297c-12 0-20-9-20-20s9-20 20-20h297c11 0 20 9 20 20s-9 20-20 20z"/></g><g><path d="m1108 736c-7 0-13-3-17-8l-53-77h-8c-71 0-128-57-128-127v-113c0-70 57-127 128-127h325c70 0 127 57 127 127v113c0 70-57 127-127 127h-177l-54 77c-4 5-10 8-16 8zm-78-412c-48 0-88 39-88 87v113c0 48 40 87 88 87h18c7 0 13 3 16 8l44 62 43-62c3-5 10-8 16-8h188c48 0 87-39 87-87v-113c0-48-39-87-87-87z"/></g><g><g><path d="m1291 1291h-876c-11 0-20-9-20-20s9-20 20-20h876c11 0 20 9 20 20s-9 20-20 20z"/></g><g><path d="m1159 1423c-5 0-10-2-14-6-8-8-8-20 0-28l118-118-118-117c-8-8-8-21 0-29s21-8 29 0l131 132c8 8 8 20 0 28l-131 132c-4 4-9 6-15 6z"/></g></g></g></g></svg>