<svg id="Layer_1" enable-background="new 0 0 512 512" height="512" viewBox="0 0 512 512" width="512" xmlns="http://www.w3.org/2000/svg"><g><g><g><g><path d="m213.1 471h-158c-7.7 0-14-6.3-14-14v-158c0-7.7 6.3-14 14-14h44.2c-.4-2.2-.6-4.5-.6-6.8 0-9.8 4.1-19.2 11.3-25.9 7.3-6.8 16.7-10.1 26.7-9.5 17.9 1.2 32.1 15.7 32.9 33.6.1 2.9-.1 5.7-.6 8.5h44.2c7.7 0 14 6.3 14 14v50.7c0 1.6-.8 3.2-2.2 4.1s-3.1 1.1-4.6.5c-3.6-1.5-7.4-2.1-11.4-1.9-12.8.8-23.4 11.4-24.1 24.2-.4 7.1 2.1 13.9 7 19.1s11.5 8 18.7 8c3.4 0 6.7-.7 9.8-1.9 1.5-.6 3.2-.4 4.6.5s2.2 2.4 2.2 4.1v50.7c-.2 7.7-6.4 14-14.1 14zm-158-176.2c-2.3 0-4.2 1.9-4.2 4.2v158c0 2.3 1.9 4.2 4.2 4.2h158c2.3 0 4.2-1.9 4.2-4.2v-44.2c-2.2.4-4.5.6-6.8.6-9.8 0-19-3.9-25.7-11.1-6.8-7.1-10.2-16.5-9.6-26.4 1-18 15.3-32.4 33.3-33.4 3-.2 6 0 8.9.6v-44.1c0-2.3-1.9-4.2-4.2-4.2h-50.7c-1.6 0-3.2-.8-4.1-2.2s-1.1-3.1-.5-4.6c1.5-3.5 2.1-7.2 1.9-11.1-.6-12.8-11.1-23.5-23.8-24.4-7.2-.5-14.1 1.9-19.3 6.9-5.3 4.9-8.2 11.6-8.2 18.8 0 3.4.7 6.7 1.9 9.8.6 1.5.4 3.2-.5 4.6s-2.4 2.2-4.1 2.2z"/></g></g></g><g><path d="m456.9 403.1h-157.9c-7.7 0-14-6.3-14-14v-44.1c-2.2.4-4.5.6-6.8.6-9.8 0-19.2-4.1-25.9-11.3-6.8-7.3-10.1-16.7-9.5-26.7 1.2-17.9 15.7-32.1 33.6-33 2.9-.1 5.7.1 8.5.6v-48.2h-54.7c-1.6 0-3.2-.8-4.1-2.2s-1.1-3.1-.5-4.6c1.5-3.6 2.1-7.4 1.9-11.4-.8-12.8-11.4-23.4-24.2-24.1-7.2-.4-13.9 2.1-19.1 7s-8 11.5-8 18.6c0 3.4.7 6.7 1.9 9.8.6 1.5.4 3.2-.5 4.6s-2.4 2.2-4.1 2.2h-59.8c-2.7 0-4.9-2.2-4.9-4.9v-167c0-7.7 6.3-14 14-14h333.9c7.7 0 14 6.3 14 14v50.7c0 1.6-.8 3.2-2.2 4.1s-3.1 1.1-4.6.5c-3.6-1.5-7.4-2.1-11.4-1.9-12.8.8-23.4 11.4-24.1 24.2-.4 7.1 2.1 13.9 7 19.1s11.5 8 18.7 8c3.4 0 6.7-.7 9.8-1.9 1.5-.6 3.2-.4 4.6.5s2.2 2.4 2.2 4.1v119.6c0 1.6-.8 3.2-2.2 4.1s-3.1 1.1-4.6.5c-3.6-1.5-7.4-2.1-11.4-1.9-12.8.8-23.4 11.4-24.1 24.2-.4 7.1 2.1 13.9 7 19.1s11.5 8 18.7 8c3.4 0 6.7-.7 9.8-1.9 1.5-.6 3.2-.4 4.6.5s2.2 2.4 2.2 4.1v50.7c.2 7.5-6.1 13.7-13.8 13.7zm-167.1-69.6c1 0 1.9.3 2.7.8 1.4.9 2.2 2.4 2.2 4.1v50.7c0 2.3 1.9 4.2 4.2 4.2h158c2.3 0 4.2-1.9 4.2-4.2v-44.1c-2.2.4-4.5.6-6.8.6-9.8 0-19-3.9-25.7-11.1-6.8-7.1-10.2-16.5-9.7-26.4 1-18 15.3-32.4 33.3-33.4 3-.2 6 0 8.9.6v-48.3h-48.4c.4 2.2.6 4.5.6 6.8 0 9.8-3.9 19-11.1 25.7-7.1 6.8-16.5 10.2-26.3 9.7-18.5-1-33.2-16.2-33.6-34.8 0-2.5.2-5 .6-7.4h-48.4v54.9c0 1.6-.8 3.2-2.2 4.1s-3.1 1.1-4.6.5c-3.5-1.4-7.2-2.1-11.1-1.9-12.8.6-23.5 11.1-24.4 23.9-.5 7.2 1.9 14.1 6.9 19.3 4.9 5.3 11.6 8.2 18.8 8.2 3.4 0 6.7-.6 9.8-1.9.9-.4 1.5-.6 2.1-.6zm4.9-116.3h54.9c1.6 0 3.2.8 4.1 2.2s1.1 3.1.5 4.6c-1.3 3.3-2 6.7-1.9 10.3.2 13.2 11.1 24.5 24.3 25.2 7.1.4 13.9-2.1 19.1-7s8-11.5 8-18.6c0-3.4-.6-6.7-1.9-9.8-.6-1.5-.4-3.2.5-4.6s2.4-2.2 4.1-2.2h54.9v-48.4c-2.2.4-4.5.6-6.8.6-9.8 0-19-3.9-25.7-11.1-6.8-7.1-10.2-16.5-9.7-26.4 1-18 15.3-32.4 33.3-33.4 3-.2 6 0 8.9.6v-44.2c0-2.3-1.9-4.2-4.2-4.2h-162.4v48.4c2.2-.4 4.5-.6 6.8-.6 9.8 0 19 3.9 25.7 11.1 6.8 7.1 10.2 16.5 9.7 26.4-1 17.7-15.6 32.4-33.3 33.4-3 .2-6 0-8.9-.6zm-57.9 0h48.2v-54.9c0-1.6.8-3.2 2.2-4.1s3.1-1.1 4.6-.5c3.6 1.5 7.4 2.1 11.4 1.9 12.8-.8 23.4-11.4 24.1-24.2.4-7.1-2.1-13.9-7-19.1s-11.5-8-18.7-8c-3.4 0-6.7.7-9.8 1.9-1.5.6-3.2.5-4.6-.5-1.4-.9-2.2-2.4-2.2-4.1v-54.8h-162c-2.3 0-4.2 1.9-4.2 4.2v162.2h48.4c-.4-2.2-.6-4.5-.6-6.8 0-9.8 3.9-19 11.1-25.7 7.1-6.8 16.5-10.2 26.4-9.6 18 1 32.4 15.3 33.4 33.3 0 2.9-.2 5.9-.7 8.8z"/></g></g></svg>