<svg xmlns="http://www.w3.org/2000/svg" height="512pt" version="1.1" viewBox="0 0 512 512" width="512pt">
<g id="surface1">
<path d="M 128 207.5 C 132.140625 207.5 135.5 204.144531 135.5 200 C 135.5 195.855469 132.140625 192.5 128 192.5 L 95 192.5 L 95 160 C 95 155.855469 91.640625 152.5 87.5 152.5 L 7.5 152.5 C 3.359375 152.5 0 155.855469 0 160 L 0 240 C 0 244.144531 3.359375 247.5 7.5 247.5 L 87.5 247.5 C 91.640625 247.5 95 244.144531 95 240 L 95 207.5 Z M 15 167.5 L 80 167.5 L 80 202.5 L 15 202.5 Z M 80 232.5 L 15 232.5 L 15 217.5 L 80 217.5 Z M 80 232.5 " style=" stroke:none;fill-rule:nonzero;fill:rgb(0%,0%,0%);fill-opacity:1;" />
<path d="M 55 177.5 L 40 177.5 C 35.859375 177.5 32.5 180.855469 32.5 185 C 32.5 189.144531 35.859375 192.5 40 192.5 L 55 192.5 C 59.140625 192.5 62.5 189.144531 62.5 185 C 62.5 180.855469 59.140625 177.5 55 177.5 Z M 55 177.5 " style=" stroke:none;fill-rule:nonzero;fill:rgb(0%,0%,0%);fill-opacity:1;" />
<path d="M 182.566406 25 L 167.566406 25 C 163.425781 25 160.066406 28.355469 160.066406 32.5 C 160.066406 36.644531 163.425781 40 167.566406 40 L 182.566406 40 C 186.710938 40 190.066406 36.644531 190.066406 32.5 C 190.066406 28.355469 186.710938 25 182.566406 25 Z M 182.566406 25 " style=" stroke:none;fill-rule:nonzero;fill:rgb(0%,0%,0%);fill-opacity:1;" />
<path d="M 504.5 90.5 L 424.5 90.5 C 420.359375 90.5 417 93.855469 417 98 L 417 130.5 L 345.5 130.5 C 341.359375 130.5 338 133.855469 338 138 L 338 252.269531 L 294.5 231.539062 L 294.5 47.5 C 294.5 43.355469 291.140625 40 287 40 L 222.566406 40 L 222.566406 7.5 C 222.566406 3.355469 219.210938 0 215.066406 0 L 135.066406 0 C 130.925781 0 127.566406 3.355469 127.566406 7.5 L 127.566406 87.5 C 127.566406 91.644531 130.925781 95 135.066406 95 L 215.066406 95 C 219.210938 95 222.566406 91.644531 222.566406 87.5 L 222.566406 55 L 279.5 55 L 279.5 224.390625 L 259.226562 214.730469 C 257.199219 213.761719 254.796875 213.761719 252.773438 214.730469 L 203.753906 238.089844 L 203.753906 200 C 203.753906 195.855469 200.394531 192.5 196.253906 192.5 L 159.75 192.5 C 155.609375 192.5 152.25 195.855469 152.25 200 C 152.25 204.144531 155.609375 207.5 159.75 207.5 L 188.753906 207.5 L 188.753906 245.238281 L 124.773438 275.730469 C 122.195312 276.960938 120.5 279.613281 120.5 282.5 L 120.5 443.5 C 120.5 446.390625 122.164062 449.027344 124.773438 450.269531 L 186.25 479.566406 C 189.988281 481.347656 194.464844 479.765625 196.246094 476.023438 C 198.027344 472.285156 196.441406 467.808594 192.703125 466.027344 L 135.5 438.765625 L 135.5 294.382812 L 248.5 348.234375 L 248.5 492.617188 L 219.785156 478.933594 C 216.042969 477.152344 211.570312 478.738281 209.789062 482.476562 C 208.007812 486.21875 209.59375 490.691406 213.332031 492.476562 L 252.773438 511.269531 C 253.652344 511.691406 254.898438 512 256 512 C 257.136719 512 258.394531 511.667969 259.226562 511.269531 L 387.226562 450.269531 C 389.835938 449.027344 391.496094 446.390625 391.496094 443.5 L 391.496094 351.875 C 391.496094 347.730469 388.140625 344.375 383.996094 344.375 C 379.855469 344.375 376.496094 347.730469 376.496094 351.875 L 376.496094 438.765625 L 263.496094 492.617188 L 263.496094 348.234375 L 376.496094 294.382812 L 376.496094 319.75 C 376.496094 323.890625 379.855469 327.25 383.996094 327.25 C 388.140625 327.25 391.496094 323.890625 391.496094 319.75 L 391.496094 282.5 C 391.496094 279.707031 389.894531 277.003906 387.226562 275.730469 L 387.164062 275.699219 C 387.160156 275.699219 387.160156 275.699219 387.160156 275.699219 L 353 259.417969 L 353 145.5 L 417 145.5 L 417 178 C 417 182.144531 420.359375 185.5 424.5 185.5 L 504.5 185.5 C 508.640625 185.5 512 182.144531 512 178 L 512 98 C 512 93.855469 508.640625 90.5 504.5 90.5 Z M 142.566406 15 L 207.566406 15 L 207.566406 50 L 142.566406 50 Z M 207.566406 80 L 142.566406 80 L 142.566406 65 L 207.566406 65 Z M 338 268.886719 L 338 296.113281 L 294.5 316.84375 L 294.5 248.15625 Z M 279.5 323.992188 L 263.5 331.617188 L 263.5 233.382812 L 279.5 241.007812 Z M 188.753906 261.855469 L 188.753906 303.144531 L 145.433594 282.5 Z M 203.753906 310.292969 L 203.753906 254.707031 L 248.5 233.382812 L 248.5 331.617188 Z M 366.566406 282.5 L 353 288.964844 L 353 276.035156 Z M 432 105.5 L 497 105.5 L 497 140.5 L 432 140.5 Z M 497 170.5 L 432 170.5 L 432 155.5 L 497 155.5 Z M 497 170.5 " style=" stroke:none;fill-rule:nonzero;fill:rgb(0%,0%,0%);fill-opacity:1;" />
<path d="M 457 130.5 L 472 130.5 C 476.140625 130.5 479.5 127.144531 479.5 123 C 479.5 118.855469 476.140625 115.5 472 115.5 L 457 115.5 C 452.859375 115.5 449.5 118.855469 449.5 123 C 449.5 127.144531 452.859375 130.5 457 130.5 Z M 457 130.5 " style=" stroke:none;fill-rule:nonzero;fill:rgb(0%,0%,0%);fill-opacity:1;" />
</g>
</svg>