<svg id="Layer_5" enable-background="new 0 0 64 64" height="512" viewBox="0 0 64 64" width="512" xmlns="http://www.w3.org/2000/svg"><g><path d="m50 6c-4.411 0-8 3.589-8 8s3.589 8 8 8 8-3.589 8-8-3.589-8-8-8zm0 14c-3.309 0-6-2.691-6-6s2.691-6 6-6 6 2.691 6 6-2.691 6-6 6z"/><path d="m50 10c-2.206 0-4 1.794-4 4s1.794 4 4 4 4-1.794 4-4-1.794-4-4-4zm0 6c-1.103 0-2-.897-2-2s.897-2 2-2 2 .897 2 2-.897 2-2 2z"/><path d="m63 17.708v-7.415l-1.826-.645c-.062-.157-.127-.314-.196-.471l.836-1.748-5.244-5.243-1.748.836c-.156-.069-.313-.135-.471-.196l-.643-1.826h-7.415l-.645 1.826c-.157.062-.314.127-.471.196l-1.747-.836-5.244 5.244.836 1.748c-.069.156-.135.313-.196.471l-1.826.643v3.286c-1.633-.379-3.308-.578-5-.578h-26.06c-1.621 0-2.94-1.328-2.94-2.96v-.1c0-1.621 1.319-2.94 2.94-2.94h3.161c.465 2.279 2.484 4 4.899 4 2.414 0 4.434-1.72 4.899-4h12.25l-2.774 2.219 1.249 1.562 5.977-4.781-5.976-4.781-1.249 1.562 2.774 2.219h-12.251c-.465-2.279-2.484-4-4.899-4-2.414 0-4.434 1.721-4.899 4h-3.161c-2.724 0-4.94 2.216-4.94 4.94v.1c0 2.735 2.216 4.96 4.94 4.96h16.912c-7.576 3.479-12.852 11.133-12.852 20v6.586l-2.293-2.293-1.414 1.414 4.707 4.707 4.707-4.707-1.414-1.414-2.293 2.293v-6.586c0-11.028 8.972-20 20-20 1.697 0 3.373.225 5 .644v2.064l1.826.645c.062.157.127.314.196.471l-.836 1.748 5.244 5.244 1.748-.836c.156.069.313.135.471.196l.643 1.824h4.036c1.105 2.524 1.672 5.211 1.672 8 0 11.028-8.972 20-20 20h-14.08c-.488-3.387-3.401-6-6.92-6-3.86 0-7 3.14-7 7s3.14 7 7 7c3.519 0 6.432-2.613 6.92-6h31.08v3.382c0 1.444 1.174 2.618 2.618 2.618.404 0 .809-.096 1.171-.276l8.763-4.382c.893-.446 1.448-1.343 1.448-2.342s-.555-1.896-1.447-2.342l-8.764-4.382c-.362-.18-.767-.276-1.171-.276-1.444 0-2.618 1.174-2.618 2.618v3.382h-7.852c7.576-3.479 12.852-11.133 12.852-20 0-2.774-.51-5.457-1.506-8h1.214l.645-1.826c.157-.062.314-.127.471-.196l1.748.836 5.244-5.244-.836-1.748c.069-.156.135-.313.196-.471zm-49-14.708c1.654 0 3 1.346 3 3s-1.346 3-3 3-3-1.346-3-3 1.346-3 3-3zm-3 58c-2.757 0-5-2.243-5-5s2.243-5 5-5 5 2.243 5 5-2.243 5-5 5zm40-9.382c0-.341.277-.618.618-.618.095 0 .191.022.276.065l8.764 4.382c.211.106.342.317.342.553s-.131.447-.342.553l-8.764 4.382c-.391.196-.894-.117-.894-.553zm10-35.326-1.392.491-.157.458c-.131.383-.292.769-.478 1.147l-.213.435.638 1.334-3.242 3.242-1.334-.638-.435.213c-.378.186-.764.346-1.147.478l-.458.157-.49 1.391h-4.585l-.491-1.392-.458-.157c-.383-.131-.769-.292-1.147-.478l-.435-.213-1.334.638-3.242-3.242.638-1.334-.213-.435c-.186-.378-.346-.764-.478-1.147l-.157-.458-1.39-.49v-4.585l1.392-.491.157-.458c.131-.383.292-.769.478-1.147l.213-.435-.638-1.334 3.242-3.242 1.334.638.435-.213c.378-.186.764-.346 1.147-.478l.458-.157.49-1.39h4.585l.491 1.392.458.157c.383.131.769.292 1.147.478l.435.213 1.334-.638 3.242 3.242-.638 1.334.213.435c.186.378.346.764.478 1.147l.157.458 1.39.49z"/><path d="m11 53c-1.654 0-3 1.346-3 3s1.346 3 3 3 3-1.346 3-3-1.346-3-3-3zm0 4c-.551 0-1-.449-1-1s.449-1 1-1 1 .449 1 1-.449 1-1 1z"/><path d="m26 25h-6v6h6zm-2 4h-2v-2h2z"/><path d="m20 39h6v-6h-6zm2-4h2v2h-2z"/><path d="m28 25h2v2h-2z"/><path d="m32 25h8v2h-8z"/><path d="m28 29h2v2h-2z"/><path d="m32 29h8v2h-8z"/><path d="m28 33h12v2h-12z"/><path d="m28 37h12v2h-12z"/><path d="m20 47h6v-6h-6zm2-4h2v2h-2z"/><path d="m28 41h12v2h-12z"/><path d="m28 45h12v2h-12z"/></g></svg>