<svg id="Layer_1" height="512" viewBox="0 0 91 91" width="512" xmlns="http://www.w3.org/2000/svg" data-name="Layer 1"><g fill="rgb(0,0,0)"><path d="m23.75 68.62a1.72 1.72 0 0 0 1.25-.52 1.75 1.75 0 0 0 0-2.47 28.56 28.56 0 0 1 9-46.47 1.75 1.75 0 1 0 -1.37-3.22 32.05 32.05 0 0 0 -10.12 52.16 1.73 1.73 0 0 0 1.24.52z"/><path d="m90.35 74.61-8.13-8.14a1.75 1.75 0 0 0 -2.48 2.53l5 5h-16.31a1.75 1.75 0 0 0 0 3.5h16.57l-5.25 5.25a1.76 1.76 0 0 0 1.24 3 1.78 1.78 0 0 0 1.24-.52l8.13-8.13a1.75 1.75 0 0 0 -.01-2.49z"/><path d="m76 54.1a10.77 10.77 0 0 0 9.33-8.18 1.75 1.75 0 0 0 -3.4-.83 7.34 7.34 0 1 1 -1.83-6.77l-3.93 3.92-1-1.47a1.75 1.75 0 0 0 -2.85 2l2.21 3.23a1.75 1.75 0 0 0 1.28.73h.19a1.76 1.76 0 0 0 1.23-.51l10.49-10.53a1.75 1.75 0 0 0 -2.48-2.48l-2.64 2.64a10.88 10.88 0 0 0 -7.76-3.3h-.34a31.94 31.94 0 0 0 -29.18-19.14l5.15-5.15a1.75 1.75 0 1 0 -2.47-2.48l-8.13 8.14a1.73 1.73 0 0 0 0 2.47l8.13 8.13a1.76 1.76 0 0 0 1.24.52 1.76 1.76 0 0 0 1.23-3l-5.13-5.14a28.43 28.43 0 0 1 25.66 16.37 10.8 10.8 0 0 0 1.45 20.62 28.52 28.52 0 0 1 -27.28 20.11h-27.29v-5.12a1.75 1.75 0 0 0 -1.75-1.75h-13.72a1.75 1.75 0 0 0 -1.75 1.75v13.72a1.75 1.75 0 0 0 1.75 1.75h13.72a1.75 1.75 0 0 0 1.75-1.75v-5.11h27.29a32 32 0 0 0 30.83-23.39zm-61.62 26.75h-10.22v-10.22h10.22z"/></g></svg>