<svg id="Layer_1" enable-background="new 0 0 1700 1700" height="512" viewBox="0 0 1700 1700" width="512" xmlns="http://www.w3.org/2000/svg"><g><path d="m1588 88h-1476c-9.9 0-18 8.1-18 18v1488c0 9.9 8.1 18 18 18h1476c9.9 0 18-8.1 18-18v-1488c0-9.9-8.1-18-18-18zm-18 1488h-1440v-1452h1440z"/><path d="m244.2 448.6h349.4v1008.4c0 9.9 8.1 18 18 18s18-8.1 18-18v-1008.4h440.9v1008.4c0 9.9 8.1 18 18 18s18-8.1 18-18v-1008.4h349.4c9.9 0 18-8.1 18-18s-8.1-18-18-18h-349.4v-169.6c0-9.9-8.1-18-18-18s-18 8.1-18 18v169.6h-441v-169.6c0-9.9-8.1-18-18-18s-18 8.1-18 18v169.6h-349.3c-9.9 0-18 8.1-18 18s8 18 18 18z"/><path d="m485.8 522h-225.4c-9.9 0-18 8.1-18 18v181.1c0 9.9 8.1 18 18 18h225.4c9.9 0 18-8.1 18-18v-181.1c0-9.9-8.1-18-18-18zm-18 181.1h-189.4v-145.1h189.4z"/><path d="m485.8 812.5h-225.4c-9.9 0-18 8.1-18 18v181.1c0 9.9 8.1 18 18 18h225.4c9.9 0 18-8.1 18-18v-181.1c0-9.9-8.1-18-18-18zm-18 181.1h-189.4v-145.1h189.4z"/><path d="m316.5 647.5 29.4 26.3c3.4 3.1 7.7 4.6 12 4.6 4.6 0 9.2-1.8 12.7-5.3l59.7-59.7c7-7 7-18.4 0-25.5s-18.4-7-25.5 0l-47.7 47.7-16.7-15c-7.4-6.6-18.8-6-25.4 1.4-6.5 7.5-5.9 18.9 1.5 25.5z"/><path d="m962.7 522h-225.4c-9.9 0-18 8.1-18 18v181.1c0 9.9 8.1 18 18 18h225.4c9.9 0 18-8.1 18-18v-181.1c0-9.9-8.1-18-18-18zm-18 181.1h-189.4v-145.1h189.4z"/><path d="m1439.6 522h-225.4c-9.9 0-18 8.1-18 18v181.1c0 9.9 8.1 18 18 18h225.4c9.9 0 18-8.1 18-18v-181.1c0-9.9-8-18-18-18zm-18 181.1h-189.4v-145.1h189.4z"/><path d="m1439.6 812.5h-225.4c-9.9 0-18 8.1-18 18v181.1c0 9.9 8.1 18 18 18h225.4c9.9 0 18-8.1 18-18v-181.1c0-9.9-8-18-18-18zm-18 181.1h-189.4v-145.1h189.4z"/><path d="m1439.6 1103.1h-225.4c-9.9 0-18 8.1-18 18v181.1c0 9.9 8.1 18 18 18h225.4c9.9 0 18-8.1 18-18v-181.1c0-10-8-18-18-18zm-18 181h-189.4v-145.1h189.4z"/><path d="m1270.4 1228.5 29.4 26.3c3.4 3.1 7.7 4.6 12 4.6 4.6 0 9.2-1.8 12.7-5.3l59.7-59.7c7-7 7-18.4 0-25.5-7-7-18.4-7-25.5 0l-47.7 47.7-16.7-15c-7.4-6.6-18.8-6-25.4 1.4-6.6 7.5-6 18.9 1.5 25.5z"/><path d="m793.4 647.5 29.4 26.3c3.4 3.1 7.7 4.6 12 4.6 4.6 0 9.2-1.8 12.7-5.3l59.7-59.7c7-7 7-18.4 0-25.5-7-7-18.4-7-25.5 0l-47.7 47.7-16.7-15c-7.4-6.6-18.8-6-25.4 1.4-6.5 7.5-5.9 18.9 1.5 25.5z"/></g></svg>