<svg id="Capa_1" enable-background="new 0 0 597.82 597.82" height="512" viewBox="0 0 597.82 597.82" width="512" xmlns="http://www.w3.org/2000/svg"><g><g id="Page-1_29_"><g id="_x30_80---Bug-Fixes"><path id="Shape_162_" d="m457.042 397.803c3.632-24.242-4.475-48.767-21.84-66.067l-20.515-20.614c-16.214-15.985-42.233-16.074-58.555-.199-3.967 3.878-6.208 9.188-6.217 14.736-.045 5.461 2.109 10.711 5.978 14.566l22.358 22.358c2.149 2.207 3.303 5.197 3.192 8.276s-1.477 5.978-3.779 8.024c-4.964 3.695-11.915 3.055-16.121-1.485l-21.391-21.411c-3.838-3.845-9.054-5.998-14.487-5.978h-.08c-5.545.01-10.855 2.246-14.736 6.207-15.892 16.335-15.791 42.384.229 58.595l22.368 22.358c17.028 17.004 41.326 24.55 64.991 20.186l58.565 58.655c16.32 16.088 42.534 16.088 58.854 0l.06-.06c16.108-16.323 16.108-42.561 0-58.884zm44.755 104.068c-8.528 8.381-22.199 8.381-30.727 0l-58.515-58.625c-4.731-4.633-11.431-6.654-17.934-5.41-17.162 3.044-34.729-2.474-47.067-14.786l-22.338-22.328c-8.361-8.444-8.423-22.028-.139-30.548l.996-.11 21.411 21.411c11.577 12.011 30.457 13.067 43.301 2.421 6.772-5.93 10.646-14.502 10.621-23.504.037-8.22-3.217-16.114-9.037-21.92l-22.358-22.358.11-.996c8.501-8.264 22.046-8.225 30.498.09l20.475 20.594c12.902 12.788 18.953 30.949 16.3 48.92-1.094 6.361.95 12.858 5.49 17.446l58.924 58.934c8.403 8.537 8.399 22.239-.011 30.769z"/><path id="Shape_161_" d="m418.463 239.196c-3.368 0-6.646.319-9.963.508v-31.395c26.722-2.902 49.584-20.489 59.242-45.573 11.687-34.145 33.009-43.331 34.085-43.779 5.128-1.997 7.667-7.774 5.669-12.903-1.997-5.128-7.774-7.667-12.903-5.669-1.255.488-30.777 12.305-45.702 55.895-6.773 17.086-22.193 29.223-40.392 31.793v-8.658c0-22.011-17.843-39.854-39.854-39.854v-9.963c-.054-29.139-21.09-54.003-49.817-58.884v-10.86c0-33.016-26.765-59.78-59.78-59.78s-59.78 26.765-59.78 59.78v10.86c-28.728 4.881-49.763 29.745-49.817 58.884v9.963c-22.011 0-39.854 17.843-39.854 39.854v8.598c-18.173-2.602-33.573-14.709-40.392-31.753-14.945-43.59-44.447-55.407-45.702-55.895-5.128-2.003-10.91.531-12.913 5.659s.531 10.91 5.659 12.913c.907.369 22.358 9.485 34.105 43.779 9.652 25.092 32.516 42.687 59.242 45.593v50.813h-99.633c-5.503 0-9.963 4.461-9.963 9.963 0 5.503 4.461 9.963 9.963 9.963h99.634v40.85c-26.722 2.902-49.584 20.489-59.242 45.573-11.687 34.135-33.009 43.351-34.085 43.799-5.128 1.997-7.667 7.774-5.669 12.903 1.997 5.128 7.774 7.667 12.903 5.669 1.255-.488 30.777-12.305 45.702-55.895 6.877-17.258 22.542-29.452 40.96-31.883 5.892 74.041 65.107 132.607 139.209 137.684 30.177 86.101 120.209 135.801 209.148 115.455s148.408-104.246 138.149-194.904c-10.259-90.655-86.973-159.146-178.209-159.103zm-29.89-59.781v62.481c-48.873 8.29-92.144 36.416-119.561 77.715v-80.415h19.927c33.002-.033 59.747-26.778 59.78-59.78v-19.927h19.927c11.005-.001 19.927 8.921 19.927 19.926zm-199.268-19.927h139.488v19.927c0 22.011-17.843 39.854-39.854 39.854h-59.78c-22.011 0-39.854-17.843-39.854-39.854zm29.89-99.634c0-22.011 17.843-39.854 39.854-39.854s39.854 17.843 39.854 39.854v9.963h-79.707v-9.963zm-49.817 69.744c0-22.011 17.843-39.854 39.854-39.854h99.634c22.011 0 39.854 17.843 39.854 39.854v9.963h-179.342zm-39.854 199.268v-149.451c0-11.005 8.922-19.927 19.927-19.927h19.927v19.927c.033 33.002 26.778 59.747 59.78 59.78h19.927v120.926c-10.993 31.246-12.934 64.962-5.599 97.263-64.887-8.112-113.671-63.126-113.962-128.518zm288.939 249.085c-88.042 0-159.415-71.372-159.415-159.415s71.372-159.415 159.415-159.415 159.415 71.372 159.415 159.415c-.105 88-71.416 159.311-159.415 159.415z"/></g></g></g></svg>