<svg id="Layer_1" enable-background="new 0 0 450 450" height="512" viewBox="0 0 450 450" width="512" xmlns="http://www.w3.org/2000/svg"><g><g><path d="m197.5 324.7c-48.3 0-87.6-39.3-87.6-87.6v-98c0-12.7 10.3-23.1 23.1-23.1h129.1c12.7 0 23.1 10.3 23.1 23.1v80c0 2.8-2.2 5-5 5s-5-2.2-5-5v-80c0-7.2-5.9-13.1-13.1-13.1h-129.1c-7.2 0-13.1 5.9-13.1 13.1v98c0 42.8 34.8 77.6 77.6 77.6 5.4 0 10.8-.6 16.1-1.7 2.7-.6 5.4 1.1 5.9 3.9.6 2.7-1.1 5.4-3.9 5.9-5.8 1.2-12 1.9-18.1 1.9z"/></g><g><path d="m147.9 308c-2.8 0-5-2.2-5-5v-9.3c0-22.3 18.1-40.4 40.4-40.4h28.6c7.6 0 15.1 2.2 21.5 6.2 2.3 1.5 3 4.6 1.6 6.9s-4.6 3-6.9 1.5c-4.9-3.1-10.4-4.7-16.2-4.7h-28.6c-16.8 0-30.4 13.6-30.4 30.4v9.3c0 2.8-2.3 5.1-5 5.1z"/></g><g><path d="m260.7 126c-2.8 0-5-2.2-5-5v-17.2c0-6.7-5.5-12.2-12.2-12.2h-92.1c-6.7 0-12.2 5.4-12.2 12.2v17.2c0 2.8-2.2 5-5 5s-5-2.2-5-5v-17.2c0-12.2 9.9-22.2 22.2-22.2h92.1c12.2 0 22.2 9.9 22.2 22.2v17.2c0 2.8-2.2 5-5 5z"/></g><g><path d="m227.8 91.7c-2.8 0-5-2.2-5-5v-17.1c0-6.7-5.4-12.2-12.2-12.2h-26.2c-6.7 0-12.2 5.4-12.2 12.2v17.2c0 2.8-2.2 5-5 5s-5-2.2-5-5v-17.2c0-12.2 9.9-22.2 22.2-22.2h26.2c12.2 0 22.2 9.9 22.2 22.2v17.2c0 2.7-2.2 4.9-5 4.9z"/></g><g><path d="m184.4 57.4c-2.4 0-4.5-1.7-4.9-4.2-.1-.3-4.4-24.6-21.5-32.4-2.5-1.1-3.6-4.1-2.5-6.6s4.1-3.6 6.6-2.5c22 10 27 38.6 27.3 39.8.4 2.7-1.4 5.3-4.1 5.8-.3.1-.6.1-.9.1z"/></g><g><path d="m210.6 57.4c-.3 0-.6 0-.8-.1-2.7-.4-4.6-3-4.1-5.8.2-1.2 5.2-29.8 27.3-39.8 2.5-1.1 5.5 0 6.6 2.5s0 5.5-2.5 6.6c-17.2 7.8-21.5 32.2-21.5 32.4-.5 2.5-2.6 4.2-5 4.2z"/></g><g><path d="m114.9 181.3h-20.9c-1.6 0-3.2-.8-4.1-2.1l-20-28.6-60.3-28.8c-2.5-1.2-3.5-4.2-2.4-6.7 1.2-2.5 4.2-3.6 6.7-2.4l61.5 29.3c.8.4 1.4.9 1.9 1.6l19.2 27.5h18.3c2.8 0 5 2.2 5 5s-2.1 5.2-4.9 5.2z"/></g><g><path d="m11.8 328.4c-1.9 0-3.7-1-4.5-2.9-1.2-2.5-.1-5.5 2.4-6.7l60.3-28.8 20-28.6c.9-1.3 2.5-2.1 4.1-2.1h25.6c2.8 0 5 2.2 5 5s-2.2 5-5 5h-23l-19.2 27.5c-.5.7-1.2 1.3-1.9 1.6l-61.5 29.3c-.9.5-1.6.7-2.3.7z"/></g><g><path d="m114.9 225.4h-105.6c-2.8 0-5-2.2-5-5s2.2-5 5-5h105.7c2.8 0 5 2.2 5 5s-2.3 5-5.1 5z"/></g><g><path d="m301.1 181.3h-21c-2.8 0-5-2.2-5-5s2.2-5 5-5h18.3l19.2-27.5c.5-.7 1.2-1.3 2-1.6l61.5-29.3c2.5-1.2 5.5-.1 6.7 2.4s.1 5.5-2.4 6.7l-60.3 28.8-20 28.6c-.8 1.1-2.4 1.9-4 1.9z"/></g><g><path d="m197.5 263.3c-2.8 0-5-2.2-5-5v-137.3c0-2.8 2.2-5 5-5s5 2.2 5 5v137.3c0 2.7-2.2 5-5 5z"/></g><g><path d="m327.9 440.2c-65.3 0-118.3-53.1-118.3-118.3s53.1-118.3 118.3-118.3 118.3 53.1 118.3 118.3-53 118.3-118.3 118.3zm0-226.6c-59.7 0-108.3 48.6-108.3 108.3s48.6 108.3 108.3 108.3 108.3-48.6 108.3-108.3c.1-59.8-48.5-108.3-108.3-108.3z"/></g><g><path d="m327.9 440.2c-7.8 0-15.7-.8-23.3-2.3-2.3-.5-4-2.5-4-4.9v-59.3c-23.3-10.7-38.2-33.7-38.2-59.6 0-27 16.2-50.9 41.3-60.9 1.5-.6 3.3-.4 4.7.5s2.2 2.5 2.2 4.1v56.2h34.7v-56.1c0-1.7.8-3.2 2.2-4.1s3.1-1.1 4.7-.5c25.1 10 41.3 33.9 41.3 60.9 0 25.9-14.9 48.9-38.2 59.6v59.2c0 2.8-2.2 5-5 5s-5-2.2-5-5v-62.6c0-2 1.3-3.9 3.1-4.6 21.3-8.5 35-28.7 35-51.6 0-20.3-10.8-38.6-28.2-48.4v53.2c0 2.8-2.2 5-5 5h-44.7c-2.8 0-5-2.2-5-5v-53.2c-17.3 9.8-28.2 28-28.2 48.4 0 22.9 13.8 43.2 35 51.6 1.9.8 3.1 2.6 3.1 4.6v58.4c5.7.9 11.5 1.4 17.4 1.4 2.8 0 5 2.2 5 5s-2.1 5-4.9 5z"/></g></g></svg>