<svg id="Layer_3" enable-background="new 0 0 60 60" height="512" viewBox="0 0 60 60" width="512" xmlns="http://www.w3.org/2000/svg"><path d="m21.3474121 10.5560913c-.3074341.307373-.3074341.8054199 0 1.112854l3.8773804 3.8777466c-1.3921509 1.2871094-2.2696533 3.1229248-2.2696533 5.166687 0 .2990723.015686.6060181.0629272.9050293 2.0383301-1.4637451 4.4229126-2.3137207 6.9805908-2.3137207 2.5655518 0 4.9580078.8499756 6.9962769 2.3137207.0393066-.2990112.0550537-.5980835.0550537-.9050293 0-2.045166-.8808594-3.8821411-2.2767944-5.1693115l3.8748169-3.8751221c.307373-.3074341.307373-.805481 0-1.112854-.3074341-.3074341-.8054199-.3074341-1.112854 0l-4.0450439 4.0453491c-1.0307617-.5895996-2.2208252-.9315186-3.4914551-.9315186-1.2716675 0-2.4616699.3425293-3.4918823.9329834l-4.0465088-4.046814c-.3074342-.307434-.805481-.307434-1.1128541.0000001z"/><path d="m15.0015869 34.489563c-.4349976 0-.7869873.352356-.7869873.7869873 0 .4345703.3519897.7869873.7869873.7869873h3.1309204c.0579224 1.281311.24646 2.5194702.5643921 3.690918-2.2844238.9491577-3.9821777 3.0020142-4.4293213 5.5219116l-.0407104.230957c-.0760498.4281006.2098389.8361816.6378784.9118652.0461426.0081177.0922241.0119629.1375732.0119629.375061 0 .7070923-.2686157.7739258-.6502075l.0407104-.2301636c.3445435-1.9394531 1.6370239-3.5163574 3.3759155-4.2834473 1.8832397 4.9528198 6.0117188 8.4071045 10.8057861 8.4071045 1.3555298 0 2.6539307-.2889404 3.8690796-.7962646l-3.5176392-6.097229c-.0023193 0-.0046387 0-.0061646 0-2.4278564 0-4.6973267-1.3234253-5.8823853-3.4703369-1.0629272-1.927124-1.1159668-4.2523193-.1422119-6.2197876.1298828-.2628784.395813-.4315186.6885986-.4380493.2989502.010376.5648804.1513672.7062988.4080811l1.6938477 3.0806885 2.8789673-.1790771 1.6915283-2.3502197-1.696167-3.0733643c-.1413574-.2570801-.1282959-.5717773.0346069-.8162231.1621704-.2439575.4396362-.3803711.7393188-.3461914 2.1880493.2366943 4.1255493 1.5213013 5.182312 3.4373169 1.1766357 2.1334229 1.0889893 4.7522583-.1937256 6.8111572l2.9348755 5.072876c.7373047-1.0262451 1.3503418-2.1831055 1.8276978-3.430481 1.7384644.7670898 3.0310059 2.34375 3.3755493 4.2826538l.0407104.230957c.0668335.3815918.3988647.6502075.7739258.6502075.0453491 0 .0914307-.0038452.1375732-.0119629.4280396-.0756836.7139282-.4837646.6378784-.9118652l-.0407104-.2316895c-.4474487-2.520874-2.1470337-4.5747681-4.4332275-5.5231323.3203735-1.1712036.5177612-2.4064941.5761719-3.6889648h3.1230469c.4349976 0 .7869873-.352417.7869873-.7869873 0-.4346313-.3519897-.7869873-.7869873-.7869873h-3.1255493c-.0947266-2.1101074-.5588379-4.1016235-1.3292236-5.8760986 2.6625366-.7783203 4.6933594-2.9957886 5.1887817-5.7884521l.0407104-.230896c.0760498-.4281006-.2098389-.8361816-.6378784-.9118652-.4265747-.0757446-.8369751.2105713-.911499.6382446l-.0407104.2301636c-.4066772 2.2896729-2.1311646 4.0750122-4.3574829 4.6116943-2.1473999-3.7891235-5.7506104-6.2836914-9.8269043-6.2836914-4.0764771 0-7.6768799 2.494751-9.8219604 6.2840576-2.2276611-.5361328-3.9529419-2.3217773-4.3597412-4.6112671l-.0407104-.230957c-.0753174-.4281006-.4849243-.7143555-.911499-.6382446-.4280396.0756836-.7139282.4837646-.6378784.9118652l.0407104.2316895c.4956665 2.7924805 2.5275269 5.0106201 5.1918335 5.7883301-.7692871 1.774353-1.232605 3.765564-1.3272095 5.8754272h-3.1306151z"/></svg>