<svg id="Layer_3" enable-background="new 0 0 60 60" height="512" viewBox="0 0 60 60" width="512" xmlns="http://www.w3.org/2000/svg"><circle cx="30.001" cy="35.664" r="4.513"/><path d="m33.2501831 40.8054199c-.9365234.5981446-2.0540161.944397-3.2501831.944397-1.196228 0-2.3137207-.3462524-3.2502441-.944397-1.416626.5744629-2.6442871 1.5031128-3.5808105 2.6835938-1.180481 1.4795532-1.8808594 3.3604736-1.8808594 5.3987427 0 .4328613.3540649.7869873.7869873.7869873h15.8497925c.4329224 0 .7869873-.354126.7869873-.7869873 0-2.038269-.7003784-3.9191895-1.8808594-5.3987427-.9364624-1.180481-2.1641846-2.1170044-3.5808106-2.6835938z"/><path d="m42.1177368 41.329895c2.1298828 0 3.8565063-1.7265625 3.8565063-3.8564453s-1.7266235-3.8565063-3.8565063-3.8565063-3.8564453 1.7266235-3.8564453 3.8565063 1.7265625 3.8564453 3.8564453 3.8564453z"/><path d="m17.8850098 41.329895c2.1298828 0 3.8565063-1.7265625 3.8565063-3.8564453s-1.7266235-3.8565063-3.8565063-3.8565063-3.8564453 1.7266235-3.8564453 3.8565063 1.7265625 3.8564453 3.8564453 3.8564453z"/><path d="m45.1572876 41.9780273h-.0078125c-.8657227.5823364-1.904541.9286499-3.0299683.9286499-1.1332397 0-2.1799316-.3463135-3.0534668-.9365234-.3463135.1495361-.6768188.3305664-.9994507.5430298 1.432251 1.7943115 2.2192383 4.0608521 2.2192383 6.3745728 0 .2754517-.0471802.5430298-.1416016.7869873h8.7434082c.4328613 0 .7869873-.354126.7869873-.7869873.0000001-3.085022-1.8572997-5.7449952-4.5173339-6.9097291z"/><path d="m11.1123657 49.6747437h8.7434082c-.0944824-.2439575-.1416626-.5115356-.1416626-.7869873 0-2.3137207.7869873-4.5723877 2.2192993-6.3745728-.3226929-.2124634-.6531982-.3934937-.9995117-.5430298-.8656616.59021-1.9202271.9365234-3.0455933.9365234-1.1175537 0-2.1642456-.3463135-3.0377808-.9286499-2.6599731 1.1569214-4.5251465 3.8168945-4.5251465 6.909729.0000001.4328614.3541261.7869874.7869874.7869874z"/><path d="m38.475769 23.4524536c-.0629272-.2125244-.2124023-.3778076-.4091797-.472229-.4249878-.1889038-.7476196-.8814087-.5587769-1.7077637.1730957-.7397461.7004395-1.2985229 1.2355957-1.2985229h.0078735c.2124634 0 .4170532-.0865479.5665894-.2439575.1495361-.1495361.2282104-.3619995.2203979-.5745239-.0551147-1.180481-.3069458-2.3137207-.7634277-3.3682861-.0865479-.1967163-.2439575-.354126-.4485474-.4249878-.2046509-.0786743-.4328613-.0629272-.6217041.0315552-.4171753.2045288-1.1569214.0235596-1.6842041-.6296387-.472168-.5980835-.5823364-1.3615112-.2439575-1.7785645.1337891-.1731567.1967773-.3856812.1652832-.5981445-.0236206-.2124634-.1416626-.4092407-.3148193-.5350952-.9365234-.6846924-1.9832153-1.1883545-3.1085815-1.4953003-.2046509-.0629883-.4249268-.0314941-.6138306.0865479-.1810303.1101685-.3148193.2911987-.3619995.5036621-.0944824.4486083-.7004394.9129027-1.5424804.9129027-.7634277 0-1.4244995-.3934937-1.5424805-.9129028-.0472412-.2124634-.1732178-.3934937-.3620605-.5036621-.1809692-.118042-.4013672-.1495361-.6138306-.0865479-1.1175537.3069458-2.1641846.8106079-3.1085815 1.4953003-.1731567.1258545-.2911987.3226318-.3148193.5350952-.0314331.2124634.0314941.4249878.1652832.5981445.3383789.4170532.236084 1.180481-.2439575 1.7785645-.5194702.6531982-1.2670288.8341675-1.6841431.6296387-.1889038-.0944824-.4171143-.1102295-.6217041-.0315552-.1967773.0708618-.3620605.2282715-.4486084.4249878-.4564819 1.0545654-.708313 2.1878052-.7554932 3.3682861-.0079346.2125244.0708008.4249878.2203369.5745239.1416626.1574097.3463135.2439575.5666504.2439575h.0078735c.5350952 0 1.062439.5587769 1.2276611 1.2985229.1889038.826355-.1337891 1.5188599-.5509033 1.7077637-.1967163.0944214-.3462524.2597046-.4170532.472229-.0629883.2045898-.0472412.4249268.0550537.6137695.5430298 1.0152588 1.2670898 1.9281616 2.1563721 2.6994019.1652832.1416626.369873.2045898.59021.1889038.2125244-.0236206.4092407-.1259766.5430298-.2990723.3305054-.4249878 1.1017456-.487915 1.7943115-.1574097.6846924.3305054 1.1096802.9758301.9915771 1.4952393-.0550537.2125244-.015686.4328613.102356.6138916.118042.1809692.3069458.3069458.5194092.3462524.5980835.1102297 1.1647338.1652834 1.7235107.1652834.5665894 0 1.1253662-.0550537 1.7234497-.1652832.2125244-.0393066.4013672-.1652832.5194092-.3462524.118103-.1810303.1574097-.4013672.1102295-.6138916-.1259766-.5194092.2990723-1.1647339.9915771-1.4952393.6846924-.3305054 1.4559326-.2675781 1.786438.1574097.1337891.1730957.3305054.2754517.5430298.2990723.2125244.015686.4328003-.0472412.59021-.1889038.8893433-.7712402 1.6133423-1.6762695 2.1563721-2.6994019.1022949-.1888428.1259155-.4091797.0550536-.6137696zm-8.475769.1022949c-2.1170044 0-3.8326416-1.7156372-3.8326416-3.8326416 0-2.1169434 1.7156372-3.8404541 3.8326416-3.8404541 2.1169434 0 3.8404541 1.7235107 3.8404541 3.8404541 0 2.1170044-1.7235107 3.8326416-3.8404541 3.8326416z"/></svg>