<svg id="Layer_3" enable-background="new 0 0 60 60" height="512" viewBox="0 0 60 60" width="512" xmlns="http://www.w3.org/2000/svg"><path d="m25.7698975 41.2145386c2.7702026 0 5.3672485-.7398071 7.618042-2.022583l9.2706909 9.2706909c.7712402.7790527 1.8021851 1.2119751 2.9118652 1.2119751 1.1017456 0 2.1326904-.4329224 2.8960571-1.2041016.7791138-.7712402 1.2041016-1.8021851 1.2041016-2.8961182.0078735-1.0939331-.4249878-2.1327515-1.2041016-2.9118652l-9.2785034-9.2785034c1.2827148-2.2507935 2.0303955-4.8400269 2.0303955-7.6101685 0-8.5230713-6.9333496-15.4484863-15.4485474-15.4484863s-15.4406128 6.925415-15.4406128 15.4484863c.0000001 8.5151368 6.9254151 15.4406739 15.4406129 15.4406739zm0-29.3151856c7.6495361 0 13.8745728 6.2250366 13.8745728 13.8745117 0 7.6416016-6.2250366 13.8666992-13.8745728 13.8666992-7.6494751 0-13.8666382-6.2250977-13.8666382-13.8666992 0-7.6494751 6.2171631-13.8745117 13.8666382-13.8745117z"/><path d="m30.8853149 33.8876953h3.5414429c.4328613 0 .7869873-.354187.7869873-.7869873v-14.1657104c0-.4329224-.354126-.7869873-.7869873-.7869873h-3.5414429c-.4328613 0-.7869873.3540649-.7869873.7869873v14.1657104c0 .4328003.354126.7869873.7869873.7869873z"/><path d="m17.1130981 33.8876953h3.5413819c.4329224 0 .7869873-.354187.7869873-.7869873v-5.1154175c0-.4328613-.3540649-.7869873-.7869873-.7869873h-3.5413818c-.4328613 0-.7869873.354126-.7869873.7869873v5.1154175c-.0000001.4328003.3541259.7869873.7869872.7869873z"/><path d="m23.9992065 33.8876953h3.5414429c.4328613 0 .7869263-.354187.7869263-.7869873v-10.0812988c0-.4406738-.3540649-.7869873-.7869263-.7869873h-3.5414429c-.4328613 0-.7869873.3463135-.7869873.7869873v10.0812988c0 .4328003.354126.7869873.7869873.7869873z"/></svg>