<svg id="Layer_3" enable-background="new 0 0 60 60" height="512" viewBox="0 0 60 60" width="512" xmlns="http://www.w3.org/2000/svg"><path d="m46.5739136 11.604187h-33.1556397c-1.7077637 0-3.0928955 1.3850708-3.0928955 3.0928955v24.4988403c0 1.7077026 1.3851318 3.100708 3.0928955 3.100708h8.3656006v1.9280396c-1.5188599.3778076-2.6599731 1.7471313-2.6599731 3.3840942 0 .4328613.354126.7869873.7869873.7869873h20.1704102c.4328613 0 .7869873-.354126.7869873-.7869873 0-1.6369629-1.1333008-3.0062866-2.6599731-3.3840942v-1.9280396h8.3656006c1.7077637 0 3.100708-1.3930054 3.100708-3.100708v-24.4988403c-.0000001-1.7078247-1.3929445-3.0928955-3.1007081-3.0928955zm1.5267334 27.5917359c0 .842041-.6846924 1.5267334-1.5267334 1.5267334h-33.1556397c-.8421021 0-1.5189209-.6846924-1.5189209-1.5267334v-24.4988404c0-.8421021.6768188-1.5189209 1.5189209-1.5189209h33.1556396c.842041 0 1.5267334.6768188 1.5267334 1.5189209v24.4988404z"/><path d="m35.7307129 23.2374268c-.3074341-.3074341-.8054199-.3074341-1.112854 0-.3074341.307373-.3074341.8054199 0 1.112854l2.5969238 2.5968628-2.5969238 2.5969238c-.3074341.307373-.3074341.8054199 0 1.112854.1536865.1536865.3551025.2305298.5564575.2305298s.40271-.0768433.5563965-.2305298l3.1533203-3.1533203c.3074341-.3074341.3074341-.805481 0-1.112854z"/><path d="m25.3769531 23.2374268c-.3074341-.3074341-.8054199-.3074341-1.112854 0l-3.1533203 3.1533203c-.3074341.307373-.3074341.8054199 0 1.112854l3.1533203 3.1533203c.1536865.1536865.3550415.2305298.5563965.2305298s.402771-.0768433.5564575-.2305298c.3074341-.3074341.3074341-.805481 0-1.112854l-2.5969238-2.5969238 2.5969238-2.5968628c.3074341-.3074341.3074341-.805481 0-1.112854z"/><path d="m32.6096802 19.1833496c-.4142456-.1375732-.8584595.0838013-.9975586.4949341l-4.7219238 14.0343018c-.1383057.4119873.0830078.8584595.4949341.9975586.0838013.02771.168335.0407715.2513428.0407715.3289185 0 .6355591-.2075195.7462158-.5357056l4.7219238-14.0343018c.1383056-.4119263-.0830079-.8584595-.4949341-.9975586z"/></svg>