<svg id="Layer_3" enable-background="new 0 0 60 60" height="512" viewBox="0 0 60 60" width="512" xmlns="http://www.w3.org/2000/svg"><path d="m47.2034912 24.7901611h-6.1699829v7.8068848c0 2.5340576-2.0618896 4.5959473-4.5960083 4.5959473h-9.0817871v1.9989624c0 1.3614502 1.1018066 2.4711304 2.4632568 2.4711304h10.7423706l4.3834839 4.3834839c.1495361.1495361.3463135.2282715.5508423.2282715.102356 0 .2046509-.0157471.3069458-.0551147.2911987-.1259155.4800415-.4092407.4800415-.7318726v-3.8247681h.9208374c1.3614502 0 2.4711304-1.1096802 2.4711304-2.4711304v-11.9307251c0-1.3614502-1.1096802-2.4710694-2.4711304-2.4710694z"/><path d="m13.3473511 35.6190186h1.4874268v5.3436279c0 .3148193.1889038.605957.4800415.7240601.102356.0393066.2046509.0629272.3069458.0629272.2046509 0 .4013672-.0786743.5509033-.236084l5.9024048-5.8945313h14.3624267c1.668457 0 3.0220337-1.3535767 3.0220337-3.0219727v-15.8499145c0-1.668396-1.3535767-3.0219727-3.0220337-3.0219727h-23.0901489c-1.668396 0-3.0219727 1.3535767-3.0219727 3.0219727v15.8499146c0 1.668396 1.3535767 3.0219727 3.0219727 3.0219727zm3.5123291-16.4517212h16.0678711c.4349976 0 .7869873.352417.7869873.7869873 0 .4346313-.3519897.7869873-.7869873.7869873h-16.0678711c-.4349976 0-.7869873-.352356-.7869873-.7869873 0-.4345703.3519897-.7869873.7869873-.7869873zm0 4.7173462h16.0678711c.4349976 0 .7869873.352356.7869873.7869873 0 .4345703-.3519897.7869263-.7869873.7869263h-16.0678711c-.4349976 0-.7869873-.352356-.7869873-.7869263 0-.4346314.3519897-.7869873.7869873-.7869873zm0 4.7176513h16.0678711c.4349976 0 .7869873.352356.7869873.7869873s-.3519897.7869873-.7869873.7869873h-16.0678711c-.4349976 0-.7869873-.352356-.7869873-.7869873s.3519897-.7869873.7869873-.7869873z"/></svg>