<svg id="Layer_3" enable-background="new 0 0 60 60" height="512" viewBox="0 0 60 60" width="512" xmlns="http://www.w3.org/2000/svg"><path d="m13.7734375 43.4180908c.0786743.236084.2675171.4249268.5036011.5036621l17.2113647 5.7134399c.0787354.0236816.1652832.0394287.2439575.0394287.2754517 0 .5352173-.1416626.6768188-.3856201l1.9281006-3.2424316c.3305664-.5587158.944397-.9050293 1.5975952-.9050293h3.3604736c1.5817871 0 2.9275513-1.2355347 3.0534668-2.8173828l.1810303-2.0855103c.0157471-.236145.0944214-.4643555.2124634-.6610718l.7318726-1.1726074c.0944824-.1495361.1810303-.3148193.236145-.4800415.0157471-.0236206.0314331-.0551147.0393066-.0787354.0944214-.2597046.1574097-.5351563.1809692-.8105469l.118103-1.416626 1.2119141-.5430298c.4564819-.2124634.8027344-.605957.9365234-1.0859985.1416626-.4801025.0629883-.9994507-.2124634-1.4244385l-1.9359741-2.9354858c-.5745239-.8735352-.6925659-1.9831543-.3069458-2.9590454.3305664-.8421021.4171143-1.7628784.2439575-2.6600342l-1.078186-5.5639038c-.1416016-.7319946-.4406738-1.4087524-.8971558-2.006897-1.3929443-1.8336182-5.5482178-6.1148071-13.9532471-6.1148071-3.8404541 0-6.8939819 1.2355347-9.0817871 3.6672974-3.0613403 3.4155273-3.7224121 8.5309448-3.3289185 12.1825562l.0708008.6846924c.5666504 5.12323 1.2670288 11.5057373-1.8336792 15.8577271-.1495359.2045898-.1888426.4643554-.1101072.7004394zm6.2879639-22.8855591c.0551147-.2833252.2597046-.5194092.5430298-.6138306.2754517-.0866089.5823364-.0078735.7947998.1967773l1.9910889 1.9989014 2.1091309-.7554932.7555542-2.1091309-1.9990234-1.9989624c-.2045288-.2045898-.2832642-.5115356-.1888428-.7869263.0865479-.2833252.3226929-.4879761.6138916-.5430298 1.8336182-.3226929 3.7145386.2675171 5.0209351 1.5818481 1.0860596 1.0859985 1.668396 2.5498047 1.668396 4.0372314 0 .4957886-.0629272.9993896-.1967163 1.4873657l8.0272217 8.0272217c1.1017456 1.1096802 1.1017456 2.9039917 0 4.0057983-.5509033.5509033-1.2749634.8262939-1.9989624.8262939s-1.447998-.2753906-2.0067749-.8262939l-8.0272829-8.0272824c-1.9517212.5272827-4.0765381-.0236206-5.5245972-1.4716187-1.31427-1.31427-1.904541-3.1951904-1.5818481-5.0288696z"/></svg>