<svg id="Layer_1" enable-background="new 0 0 512 512" height="512" viewBox="0 0 512 512" width="512" xmlns="http://www.w3.org/2000/svg"><path d="m337.897 159.373c2.615-27.58 25.898-49.231 54.151-49.231 29.999 0 54.405 24.405 54.405 54.404 0 .926-.031 1.849-.077 2.769l-3.455-5.503c-2.349-3.741-7.287-4.871-11.029-2.521s-4.87 7.288-2.521 11.029l13.759 21.912c1.23 1.959 3.249 3.29 5.535 3.649.413.065.828.097 1.24.097 1.87 0 3.695-.656 5.146-1.875l19.808-16.646c3.383-2.842 3.82-7.889.978-11.271-2.843-3.383-7.89-3.82-11.271-.978l-2.163 1.818c.029-.825.05-1.651.05-2.48 0-38.821-31.583-70.404-70.405-70.404-35.127 0-64.324 25.86-69.563 59.541-10.884-3.199-22.394-4.924-34.299-4.924-67.173 0-121.822 54.649-121.822 121.822 0 22.605 6.298 44.661 17.988 63.716l-8.001-1.81c-4.309-.979-8.593 1.729-9.568 6.038s1.729 8.593 6.038 9.567l29.138 6.591c.584.132 1.176.197 1.765.197 1.684 0 3.343-.532 4.726-1.545 1.867-1.367 3.051-3.476 3.246-5.781l2.516-29.769c.372-4.402-2.896-8.273-7.298-8.646-4.41-.373-8.273 2.896-8.646 7.298l-.735 8.701c-9.85-16.372-15.168-35.228-15.168-54.559 0-58.351 47.471-105.822 105.822-105.822s105.822 47.471 105.822 105.822-47.472 105.822-105.822 105.822h-124.005c-3.596-14.595-16.791-25.454-32.48-25.454s-28.884 10.859-32.48 25.454h-25.288c-3.596-14.595-16.791-25.454-32.48-25.454-18.447.003-33.454 15.01-33.454 33.456s15.007 33.454 33.454 33.454c15.689 0 28.883-10.859 32.479-25.453h25.29c3.596 14.594 16.791 25.453 32.479 25.453s28.883-10.859 32.479-25.453h124.004c67.173 0 121.822-54.649 121.822-121.822.001-49.476-29.648-92.153-72.11-111.209zm-296.443 242.484c-9.624 0-17.454-7.83-17.454-17.454s7.83-17.453 17.454-17.453 17.454 7.829 17.454 17.453-7.83 17.454-17.454 17.454zm90.248 0c-9.624 0-17.454-7.83-17.454-17.454s7.83-17.453 17.454-17.453 17.454 7.829 17.454 17.453-7.83 17.454-17.454 17.454zm372.298-17.453c0 2.313-1.002 4.515-2.747 6.034l-22.532 19.616c-1.515 1.318-3.387 1.966-5.25 1.966-2.234 0-4.455-.93-6.037-2.747-2.901-3.332-2.552-8.386.781-11.287l6.412-5.582h-88.529c-4.418 0-8-3.582-8-8s3.582-8 8-8h88.529l-6.412-5.582c-3.333-2.901-3.682-7.955-.781-11.287 2.9-3.332 7.954-3.683 11.287-.781l22.532 19.616c1.745 1.52 2.747 3.721 2.747 6.034z"/></svg>