<?xml version="1.0"?>
<svg xmlns="http://www.w3.org/2000/svg" id="Icons" viewBox="0 0 60 60" width="512" height="512"><path d="M45.771,16.542l3.687-2.382A1,1,0,0,1,50,14h7a1,1,0,0,0,1-1V3a1,1,0,0,0-1-1L41,2a1,1,0,0,0-1,1V13a1,1,0,0,0,1,1h3a1,1,0,0,1,1,1v1.122A.5.5,0,0,0,45.771,16.542ZM43,5H55a1,1,0,0,1,0,2H43a1,1,0,0,1,0-2Zm0,6a1,1,0,0,1,0-2h8a1,1,0,0,1,0,2Z"/><path d="M3,14h7a1.008,1.008,0,0,1,.539.157l3.687,2.353a.5.5,0,0,0,.769-.419L15,15a1.006,1.006,0,0,1,1.006-1H19a1,1,0,0,0,1-1V3a1,1,0,0,0-1-1H3A1,1,0,0,0,2,3V13A1,1,0,0,0,3,14ZM5,5H17a1,1,0,0,1,0,2H5A1,1,0,0,1,5,5ZM5,9h8a1,1,0,0,1,0,2H5A1,1,0,0,1,5,9Z"/><path d="M56.707,50.293a1,1,0,0,0-1.414,1.414L56.586,53H38.434A18.987,18.987,0,1,0,11.02,35.606L9.707,34.293a1,1,0,0,0-1.414,1.414l3,3a1,1,0,0,0,1.414,0l3-3a1,1,0,0,0-1.414-1.414l-1.271,1.271A16.992,16.992,0,1,1,30,53H1a1,1,0,0,0,0,2H56.586l-1.293,1.293a1,1,0,1,0,1.414,1.414l3-3a1,1,0,0,0,0-1.414Z"/></svg>
