<?xml version="1.0"?>
<svg xmlns="http://www.w3.org/2000/svg" id="Icons" viewBox="0 0 60 60" width="512" height="512"><path d="M58,0H40a2,2,0,0,0-2,2V14a2,2,0,0,0,2,2h3v1.04a1.929,1.929,0,0,0,1.02,1.709,2.032,2.032,0,0,0,2.068-.066L50.292,16H58a2,2,0,0,0,2-2V2A2,2,0,0,0,58,0Zm0,14H50a1.007,1.007,0,0,0-.538.157L45,17.04V15a1,1,0,0,0-1-1H40V2L58,2Z"/><path d="M2,16H9.708l4.205,2.684a2.033,2.033,0,0,0,2.067.065A1.929,1.929,0,0,0,17,17.04V16h3a2,2,0,0,0,2-2V2a2,2,0,0,0-2-2H2A2,2,0,0,0,0,2V14A2,2,0,0,0,2,16ZM2,2H20V14H16a1,1,0,0,0-1,1l-.012,2-4.45-2.84A1.007,1.007,0,0,0,10,14H2Z"/><path d="M43,7H55a1,1,0,0,0,0-2H43a1,1,0,0,0,0,2Z"/><path d="M43,11h8a1,1,0,0,0,0-2H43a1,1,0,0,0,0,2Z"/><path d="M5,7H17a1,1,0,0,0,0-2H5A1,1,0,0,0,5,7Z"/><path d="M14,10a1,1,0,0,0-1-1H5a1,1,0,0,0,0,2h8A1,1,0,0,0,14,10Z"/><path d="M56.707,52.293a1,1,0,0,0-1.414,1.414L56.586,55H38.434A18.987,18.987,0,1,0,11.02,37.606L9.707,36.293a1,1,0,0,0-1.414,1.414l3,3a1,1,0,0,0,1.414,0l3-3a1,1,0,0,0-1.414-1.414l-1.271,1.271A16.992,16.992,0,1,1,30,55H1a1,1,0,0,0,0,2H56.586l-1.293,1.293a1,1,0,1,0,1.414,1.414l3-3a1,1,0,0,0,0-1.414Z"/></svg>
