<svg id="Capa_1" enable-background="new 0 0 511.991 511.991" height="512" viewBox="0 0 511.991 511.991" width="512" xmlns="http://www.w3.org/2000/svg"><g><path d="m507.206 241.905-47.458-61.695c-4.344-5.647-11.191-9.019-18.317-9.019h-79.704v-96.529c0-4.142-3.358-7.5-7.5-7.5s-7.5 3.358-7.5 7.5v96.529h-102.274c-4.142 0-7.5 3.358-7.5 7.5s3.358 7.5 7.5 7.5h66.184c2.5 0 4.903 1.183 6.427 3.165l47.458 61.695c2.239 2.912 2.239 6.979 0 9.89l-47.458 61.695c-1.524 1.982-3.927 3.165-6.427 3.165h-107.877l42.857-55.714c6.381-8.296 6.381-19.884 0-28.181l-42.857-55.714h11.693c4.142 0 7.5-3.358 7.5-7.5s-3.358-7.5-7.5-7.5h-139.288v-96.53c0-4.142-3.358-7.5-7.5-7.5s-7.5 3.358-7.5 7.5v96.529h-39.555c-7.906 0-14.985 4.407-18.475 11.502-3.49 7.095-2.659 15.392 2.168 21.655l35.997 46.703c2.24 2.912 2.24 6.978-.003 9.894l-35.887 46.727c-4.811 6.265-5.63 14.557-2.139 21.642 3.492 7.085 10.568 11.486 18.467 11.486h35.819c4.142 0 7.5-3.358 7.5-7.5s-3.358-7.5-7.5-7.5h-35.819c-3.137 0-4.551-2.18-5.013-3.118s-1.33-3.386.581-5.874l35.883-46.723c6.381-8.296 6.381-19.885-.004-28.187l-36.001-46.709c-1.917-2.487-1.05-4.939-.588-5.878.461-.939 1.875-3.122 5.015-3.122h159.231c2.501 0 4.903 1.183 6.427 3.165l47.458 61.695c2.239 2.911 2.239 6.979 0 9.89l-47.458 61.695c-1.524 1.982-3.927 3.165-6.427 3.165h-93.284c-4.142 0-7.5 3.358-7.5 7.5s3.358 7.5 7.5 7.5h142.169v96.529c0 4.142 3.358 7.5 7.5 7.5s7.5-3.358 7.5-7.5v-96.528h197.704c7.126 0 13.973-3.372 18.317-9.019l47.458-61.696c6.381-8.295 6.381-19.883 0-28.18zm-11.89 19.035-47.458 61.695c-1.524 1.982-3.927 3.165-6.427 3.165h-107.877l42.857-55.715c6.381-8.296 6.381-19.884 0-28.18l-42.857-55.714h107.877c2.501 0 4.903 1.183 6.427 3.165l47.458 61.695c2.239 2.911 2.239 6.978 0 9.889z"/><path d="m105.816 82.162h32.849c4.142 0 7.5-3.358 7.5-7.5s-3.358-7.5-7.5-7.5h-32.849c-4.142 0-7.5 3.358-7.5 7.5s3.357 7.5 7.5 7.5z"/><path d="m105.816 116.233h64.954c4.142 0 7.5-3.358 7.5-7.5s-3.358-7.5-7.5-7.5h-64.954c-4.142 0-7.5 3.358-7.5 7.5 0 4.143 3.357 7.5 7.5 7.5z"/><path d="m392.378 82.162h32.849c4.142 0 7.5-3.358 7.5-7.5s-3.358-7.5-7.5-7.5h-32.849c-4.142 0-7.5 3.358-7.5 7.5s3.357 7.5 7.5 7.5z"/><path d="m392.378 116.233h64.954c4.142 0 7.5-3.358 7.5-7.5s-3.358-7.5-7.5-7.5h-64.954c-4.142 0-7.5 3.358-7.5 7.5 0 4.143 3.357 7.5 7.5 7.5z"/><path d="m307.227 429.829h-32.849c-4.142 0-7.5 3.358-7.5 7.5s3.358 7.5 7.5 7.5h32.849c4.142 0 7.5-3.358 7.5-7.5s-3.358-7.5-7.5-7.5z"/><path d="m339.331 395.758h-64.954c-4.142 0-7.5 3.358-7.5 7.5s3.358 7.5 7.5 7.5h64.954c4.142 0 7.5-3.358 7.5-7.5s-3.358-7.5-7.5-7.5z"/></g></svg>