<svg clip-rule="evenodd" fill-rule="evenodd" height="512" image-rendering="optimizeQuality" shape-rendering="geometricPrecision" text-rendering="geometricPrecision" viewBox="0 0 4335 4335" width="512" xmlns="http://www.w3.org/2000/svg"><g id="Layer_x0020_1"><path d="m2031 3224h-864c-74 0-74-116 0-116h864c74 0 74 116 0 116zm136 483h-2109c-74 0-74-115 0-115h2138c717-14 1325-543 1448-1239-746 559-1830 30-1830-917 0-332 143-632 370-842-811-4-1479 628-1514 1434l268-34c47-6 81 47 56 88l-282 459c-19 32-63 37-89 11l-386-376c-34-33-14-92 33-98l284-36c27-866 740-1563 1613-1563 51 0 102 2 154 7 182-123 402-195 638-195 631 0 1145 514 1145 1145 0 312-126 595-329 802-55 617-461 1133-1010 1354h1033v-279c0-48 57-75 94-45l421 336c28 23 28 68 0 91l-421 336c-37 30-94 3-94-45v-279zm1746-274v433l271-217zm-3510-1256 249 243 181-296zm2556 165c-698 0-1130-758-785-1359 247-430 804-581 1238-332 429 247 581 805 332 1238-161 279-461 453-785 453zm-58-1695c-102 8-199 35-286 77 24 43 91 122 25 160-65 38-101-59-125-102-83 56-154 128-210 210 43 25 140 60 102 125-39 67-119-1-160-25-43 88-69 184-77 287 49 0 151-19 151 57s-102 58-151 58c8 102 34 199 77 287 43-25 122-92 160-26s-59 101-102 125c56 83 127 154 210 210 24-42 59-140 125-102s-1 117-25 160c87 43 184 69 286 77 0-49-18-151 58-151s58 102 58 151c102-8 198-34 286-77-24-43-91-122-25-160 65-38 100 60 125 102 82-56 154-127 210-210-43-24-140-59-102-125s117 1 160 26c42-88 69-185 77-287-50 0-152 18-152-58s102-57 152-57c-8-103-35-199-77-287-42 24-121 92-160 25-38-65 59-100 102-125-56-82-128-154-210-210-24 42-60 140-125 102-66-38 1-117 25-160-88-42-184-69-286-77 0 50 18 152-58 152s-58-102-58-152zm58 977c-216 0-256-306-55-368v-305c0-74 115-74 115 0v307c124 42 167 204 81 302l77 135c38 65-62 122-100 57l-76-132c-14 3-28 4-42 4zm0-261c-95 0-96 146 0 146 95 0 96-145 0-146zm0-956c-568 0-1030 461-1030 1029s462 1030 1030 1030 1030-462 1030-1030-462-1029-1030-1029zm-682 3046h-1357c-31 0-57-26-57-58v-895c0-32 26-58 57-58h1357c32 0 58 26 58 58v895c0 32-26 58-58 58zm-1299-115h1242v-780h-1242zm1053-551h-864c-74 0-74-116 0-116h864c74 0 74 116 0 116zm0 218h-864c-74 0-74-115 0-115h864c74 0 74 115 0 115z" fill="rgb(0,0,0)"/></g></svg>