<svg id="Capa_1" enable-background="new 0 0 512 512" height="512" viewBox="0 0 512 512" width="512" xmlns="http://www.w3.org/2000/svg"><g><path d="m437.019 74.982c-48.353-48.353-112.64-74.982-181.019-74.982-52.61 0-103.154 15.84-146.168 45.809-42.031 29.283-74.021 69.897-92.512 117.453-1.501 3.861.412 8.207 4.272 9.708 3.86 1.5 8.207-.412 9.708-4.272 17.408-44.77 47.528-83.008 87.106-110.582 1.28-.892 2.567-1.77 3.861-2.635l-8.872 67.92c-.439 3.36 1.43 6.598 4.56 7.898l64.873 26.948c-28.785 21.601-47.754 55.601-48.919 94.001l-59.486 45.55-59.395-45.48c.285-18.936 2.771-37.737 7.4-55.94 1.021-4.014-1.406-8.096-5.42-9.117-4.018-1.022-8.096 1.406-9.117 5.42-5.236 20.59-7.891 41.893-7.891 63.319 0 68.379 26.629 132.666 74.981 181.018 48.353 48.353 112.64 74.982 181.019 74.982s132.666-26.629 181.019-74.982c48.352-48.352 74.981-112.639 74.981-181.018s-26.629-132.666-74.981-181.018zm59.471 165.438-54.354-41.62c-2.69-2.06-6.429-2.06-9.119 0l-55.731 42.675c-4.484-37.676-26.182-70.14-56.986-89.289l-9.711-74.335 69.194-28.743c16.776 10.078 32.432 22.284 46.629 36.48 41.827 41.828 66.369 96.324 70.078 154.832zm-367.477-120.771 9.697-74.23c35.718-19.96 75.819-30.419 117.29-30.419 37.701 0 74.074 8.611 106.893 24.881l-63.361 26.32c-3.13 1.3-4.999 4.537-4.56 7.898l9.093 69.609c-14.76-6.342-31.008-9.861-48.065-9.861-20.887 0-40.564 5.273-57.776 14.553zm126.987 29.198c59.084 0 107.153 48.069 107.153 107.153s-48.069 107.153-107.153 107.153-107.153-48.069-107.153-107.153 48.069-107.153 107.153-107.153zm-240.49 122.733 54.354 41.62c1.345 1.03 2.952 1.545 4.56 1.545s3.214-.515 4.56-1.545l55.731-42.675c4.484 37.676 26.182 70.14 56.986 89.289l9.711 74.335-69.194 28.743c-16.776-10.078-32.432-22.284-46.629-36.48-41.828-41.828-66.37-96.324-70.079-154.832zm410.902 154.832c-11.353 11.353-23.64 21.433-36.686 30.17l8.882-67.98c.439-3.361-1.431-6.599-4.561-7.898l-24.35-10.11c-3.825-1.589-8.215.225-9.803 4.051s.226 8.214 4.051 9.803l19.045 7.907-9.706 74.291c-35.455 19.808-75.557 30.354-117.284 30.354-37.701 0-74.074-8.611-106.893-24.881l63.361-26.32c3.13-1.3 4.999-4.537 4.56-7.898l-9.093-69.609c14.76 6.342 31.008 9.861 48.065 9.861 20.888 0 40.566-5.274 57.779-14.554l22.563 9.377c.941.391 1.916.576 2.875.576 2.939 0 5.73-1.74 6.929-4.624 1.589-3.825-.223-8.214-4.047-9.804l-12.926-5.372c28.785-21.602 47.753-55.601 48.918-94.001l59.486-45.55 59.379 45.468c-.935 62.999-25.891 122.09-70.544 166.743z"/></g></svg>