<svg viewBox="0 0 64 64" xmlns="http://www.w3.org/2000/svg"><g id="outline"><path d="m57.8 44.4a1 1 0 0 0 -.8-.4h-6.56a22 22 0 0 0 1.12-22 22 22 0 0 0 -41.56 10 21.73 21.73 0 0 0 3.56 12h-9.56a1 1 0 0 0 -1 1v8a1 1 0 0 0 1 1h53a1 1 0 0 0 .8-.4l3-4a1 1 0 0 0 0-1.2zm-25.8-32.4a20 20 0 0 1 16.71 9l-4.06-.84a1.05 1.05 0 0 0 -1.19.81l-.46 2.46a14 14 0 0 0 -25 8.22l-2.2 2.92-3.8-3a20 20 0 0 1 20-19.57zm10.72 14.61a11.88 11.88 0 0 1 1.28 5.39 12 12 0 1 1 -1.28-5.39zm-27.34 10.17a1 1 0 0 0 1.42-.18l1.47-2a14 14 0 0 0 6.58 9.4h-8.85a19.65 19.65 0 0 1 -3.89-9.82zm16.62 9.22a14.12 14.12 0 0 0 12.62-20l.63-3.61 4.75 1a20 20 0 0 1 -18 28.61h-27v-6zm17 0h7.5l2.25 3-2.25 3h-15.32a22 22 0 0 0 7.82-6z"/><circle cx="31.68" cy="24.5" r="1"/><circle cx="28.97" cy="25.11" r="1"/><circle cx="26.67" cy="26.65" r="1"/><circle cx="25.08" cy="28.93" r="1"/><circle cx="24.42" cy="31.62" r="1"/><circle cx="24.78" cy="34.37" r="1"/><circle cx="26.11" cy="36.81" r="1"/><circle cx="28.22" cy="38.6" r="1"/><circle cx="30.85" cy="39.5" r="1"/><circle cx="33.62" cy="39.4" r="1"/><circle cx="36.16" cy="38.3" r="1"/><circle cx="38.14" cy="36.36" r="1"/><circle cx="39.29" cy="33.83" r="1"/><circle cx="39.44" cy="31.07" r="1"/><circle cx="38.58" cy="28.43" r="1"/><circle cx="36.83" cy="26.28" r="1"/><circle cx="34.42" cy="24.91" r="1"/></g></svg>