<?xml version="1.0" encoding="UTF-8"?>
<svg xmlns="http://www.w3.org/2000/svg" id="Layer_1" data-name="Layer 1" viewBox="0 0 512 512" width="512" height="512"><path d="M27.806,256A221.786,221.786,0,0,1,192.675,41.684a8,8,0,1,1,4.088,15.468,205.711,205.711,0,0,0-78.334,357.366,8,8,0,1,1-10.2,12.326A221.109,221.109,0,0,1,27.806,256Zm443.321,0A221.675,221.675,0,0,0,271.333,35.413l27.029-21.107a8,8,0,0,0-9.847-12.612L244.542,36.033a8,8,0,0,0,0,12.611l43.973,34.339a8,8,0,1,0,9.847-12.609L274.707,51.9C375.953,64.486,455.127,151.925,455.127,256c0,113.4-92.259,205.661-205.661,205.661H8a8,8,0,0,0,0,16H249.466A221.664,221.664,0,0,0,471.127,256Zm37.8,207.356-43.973-34.339a8,8,0,1,0-9.847,12.609l25.654,20.035H392.882a8,8,0,0,0,0,16h87.875L455.1,497.694a8,8,0,0,0,9.847,12.612l43.973-34.339a8,8,0,0,0,0-12.611ZM128.777,177.931,252,106.788a8,8,0,0,1,8,0l123.222,71.143a8,8,0,0,1,4,6.927V327.143a8,8,0,0,1-4,6.927L260,405.213a8,8,0,0,1-8,0L128.777,334.07a8,8,0,0,1-4-6.927V184.858A8,8,0,0,1,128.777,177.931Zm12,144.592L248,384.429V260.619L140.777,198.714Zm230.445,0V198.714L264,260.619v123.81ZM148.777,184.859,256,246.763l107.222-61.9L256,122.953Z"/></svg>
