<?xml version="1.0"?>
<svg xmlns="http://www.w3.org/2000/svg" id="Icons" viewBox="0 0 60 60" width="512" height="512"><path d="M2.545,32.949l4.672,1.869a1,1,0,0,1,.6.688,22.728,22.728,0,0,0,2.607,6.278,1,1,0,0,1,.063.91L8.5,47.328a.693.693,0,0,0,.085.709c.5.594,1.04,1.187,1.615,1.761s1.171,1.122,1.764,1.617a.69.69,0,0,0,.708.084l4.634-1.985a.978.978,0,0,1,.393-.081.994.994,0,0,1,.517.144,22.728,22.728,0,0,0,6.278,2.607,1,1,0,0,1,.688.6l1.869,4.673a.688.688,0,0,0,.561.44,27.836,27.836,0,0,0,4.779,0,.687.687,0,0,0,.558-.441l1.869-4.672a1,1,0,0,1,.688-.6,22.728,22.728,0,0,0,6.278-2.607.988.988,0,0,1,.91-.063L47.328,51.5a.688.688,0,0,0,.708-.085c.593-.495,1.186-1.039,1.762-1.615s1.121-1.169,1.618-1.765a.689.689,0,0,0,.083-.707l-1.985-4.634a1,1,0,0,1,.063-.91,22.728,22.728,0,0,0,2.607-6.278,1,1,0,0,1,.6-.688l4.673-1.869a.687.687,0,0,0,.44-.561c.069-.765.1-1.569.1-2.388s-.035-1.623-.1-2.391a.687.687,0,0,0-.441-.558l-4.672-1.869a1,1,0,0,1-.6-.688,22.728,22.728,0,0,0-2.607-6.278,1,1,0,0,1-.063-.91L51.5,12.672a.691.691,0,0,0-.085-.708c-.495-.593-1.039-1.186-1.615-1.762s-1.169-1.121-1.765-1.618a.685.685,0,0,0-.707-.083l-4.634,1.985a1,1,0,0,1-.91-.063,22.728,22.728,0,0,0-6.278-2.607,1,1,0,0,1-.688-.6L32.949,2.544a.688.688,0,0,0-.561-.44,27.836,27.836,0,0,0-4.779,0,.687.687,0,0,0-.558.441L25.182,7.217a1,1,0,0,1-.688.6,22.728,22.728,0,0,0-6.278,2.607,1,1,0,0,1-.91.063L12.672,8.5a.694.694,0,0,0-.709.085c-.594.5-1.187,1.04-1.761,1.615S9.08,11.371,8.585,11.964a.689.689,0,0,0-.084.708l1.985,4.634a1,1,0,0,1-.063.91,22.728,22.728,0,0,0-2.607,6.278,1,1,0,0,1-.6.688L2.544,27.051a.688.688,0,0,0-.44.561C2.035,28.377,2,29.181,2,30s.035,1.623.1,2.391A.687.687,0,0,0,2.545,32.949ZM30,10A20,20,0,1,1,10,30,20.023,20.023,0,0,1,30,10Z"/><path d="M18.293,30.707a1,1,0,0,0,1.414,0l2-2a1,1,0,0,0-1.414-1.414l-.271.271A8.994,8.994,0,1,1,29,37H19a1,1,0,0,0,0,2H39.586l-.293.293a1,1,0,1,0,1.414,1.414l2-2a1,1,0,0,0,0-1.414l-2-2a1,1,0,0,0-1.414,1.414l.293.293H35.305A10.992,10.992,0,1,0,18.02,27.606l-.313-.313a1,1,0,0,0-1.414,1.414Z"/></svg>
