<?xml version="1.0" encoding="UTF-8" standalone="no"?>
<!-- Created with Inkscape (http://www.inkscape.org/) -->

<svg
   version="1.1"
   id="svg1575"
   xml:space="preserve"
   width="682.66669"
   height="682.66669"
   viewBox="0 0 682.66669 682.66669"
   xmlns="http://www.w3.org/2000/svg"
   xmlns:svg="http://www.w3.org/2000/svg"><defs
     id="defs1579"><clipPath
       clipPathUnits="userSpaceOnUse"
       id="clipPath1589"><path
         d="M 0,512 H 512 V 0 H 0 Z"
         id="path1587" /></clipPath></defs><g
     id="g1581"
     transform="matrix(1.3333333,0,0,-1.3333333,0,682.66667)"><g
       id="g1583"><g
         id="g1585"
         clip-path="url(#clipPath1589)"><g
           id="g1591"
           transform="translate(492.668,322.0498)"><path
             d="m 0,0 v 11.64 c 0,23.602 -19.133,42.735 -42.735,42.735 -23.603,0 -42.737,-19.133 -42.737,-42.735 V -32.578 L -201.266,83.216 c -14.466,14.467 -37.922,14.467 -52.39,0 v -10e-4 c -14.468,-14.467 -14.468,-37.923 0,-52.39 l -26.448,26.447 c -14.467,14.467 -37.923,14.467 -52.391,0 -14.467,-14.467 -14.467,-37.923 0,-52.391 l 15.312,-15.311 c -14.467,14.467 -37.923,14.467 -52.391,-10e-4 -14.467,-14.467 -14.467,-37.923 0,-52.39 l 37.786,-37.786 c -14.468,14.467 -37.924,14.467 -52.391,0 h -0.001 c -14.466,-14.468 -14.466,-37.924 0,-52.391 l 108.062,-108.062"
             style="fill:none;stroke:#000000;stroke-width:15;stroke-linecap:round;stroke-linejoin:round;stroke-miterlimit:10;stroke-dasharray:none;stroke-opacity:1"
             id="path1593" /></g><g
           id="g1595"
           transform="translate(243.6309,36.6069)"><path
             d="m 0,0 c 59.95,-43.508 144.297,-38.24 198.339,15.802 l 15.028,15.028 c 23.78,23.78 35.67,54.948 35.67,86.116 v 0.007 132.741"
             style="fill:none;stroke:#000000;stroke-width:15;stroke-linecap:round;stroke-linejoin:round;stroke-miterlimit:10;stroke-dasharray:none;stroke-opacity:1"
             id="path1597" /></g><g
           id="g1599"
           transform="translate(239.0117,352.8745)"><path
             d="M 0,0 71.797,-71.796"
             style="fill:none;stroke:#000000;stroke-width:15;stroke-linecap:round;stroke-linejoin:round;stroke-miterlimit:10;stroke-dasharray:none;stroke-opacity:1"
             id="path1601" /></g><g
           id="g1603"
           transform="translate(175.4854,311.6191)"><path
             d="M 0,0 83.775,-83.775"
             style="fill:none;stroke:#000000;stroke-width:15;stroke-linecap:round;stroke-linejoin:round;stroke-miterlimit:10;stroke-dasharray:none;stroke-opacity:1"
             id="path1605" /></g><g
           id="g1607"
           transform="translate(160.8799,221.4429)"><path
             d="M 0,0 55.265,-55.265"
             style="fill:none;stroke:#000000;stroke-width:15;stroke-linecap:round;stroke-linejoin:round;stroke-miterlimit:10;stroke-dasharray:none;stroke-opacity:1"
             id="path1609" /></g><g
           id="g1611"
           transform="translate(314.6582,451.8354)"><path
             d="M 0,0 C 24.013,-4.914 43.074,-23.423 48.79,-47.134"
             style="fill:none;stroke:#000000;stroke-width:15;stroke-linecap:round;stroke-linejoin:round;stroke-miterlimit:10;stroke-dasharray:none;stroke-opacity:1"
             id="path1613" /></g><g
           id="g1615"
           transform="translate(318.8135,504.5)"><path
             d="M 0,0 C 48.301,-9.884 86.64,-47.113 98.136,-94.806"
             style="fill:none;stroke:#000000;stroke-width:15;stroke-linecap:round;stroke-linejoin:round;stroke-miterlimit:10;stroke-dasharray:none;stroke-opacity:1"
             id="path1617" /></g><g
           id="g1619"
           transform="translate(71.9961,137.6069)"><path
             d="M 0,0 C 4.914,-24.014 23.423,-43.075 47.134,-48.79"
             style="fill:none;stroke:#000000;stroke-width:15;stroke-linecap:round;stroke-linejoin:round;stroke-miterlimit:10;stroke-dasharray:none;stroke-opacity:1"
             id="path1621" /></g><g
           id="g1623"
           transform="translate(19.332,133.4512)"><path
             d="M 0,0 C 9.883,-48.3 47.112,-86.64 94.806,-98.136"
             style="fill:none;stroke:#000000;stroke-width:15;stroke-linecap:round;stroke-linejoin:round;stroke-miterlimit:10;stroke-dasharray:none;stroke-opacity:1"
             id="path1625" /></g><g
           id="g1627"
           transform="translate(370.1504,140.3018)"><path
             d="M 0,0 C -14.505,33.465 -12.092,72.503 7.239,104.113"
             style="fill:none;stroke:#000000;stroke-width:15;stroke-linecap:round;stroke-linejoin:round;stroke-miterlimit:10;stroke-dasharray:none;stroke-opacity:1"
             id="path1629" /></g></g></g></g></svg>
