<?xml version="1.0" encoding="UTF-8" standalone="no"?>
<!-- Created with Inkscape (http://www.inkscape.org/) -->

<svg
   version="1.1"
   id="svg2535"
   xml:space="preserve"
   width="682.66669"
   height="682.66669"
   viewBox="0 0 682.66669 682.66669"
   xmlns="http://www.w3.org/2000/svg"
   xmlns:svg="http://www.w3.org/2000/svg"><defs
     id="defs2539"><clipPath
       clipPathUnits="userSpaceOnUse"
       id="clipPath2549"><path
         d="M 0,512 H 512 V 0 H 0 Z"
         id="path2547" /></clipPath></defs><g
     id="g2541"
     transform="matrix(1.3333333,0,0,-1.3333333,0,682.66667)"><g
       id="g2543"><g
         id="g2545"
         clip-path="url(#clipPath2549)"><g
           id="g2551"
           transform="translate(492.668,153.5596)"><path
             d="m 0,0 v 180.13 c 0,23.602 -19.133,42.736 -42.735,42.736 -23.603,0 -42.737,-19.134 -42.737,-42.736 v -44.218 l -115.794,115.794 c -14.466,14.467 -37.922,14.467 -52.39,0 v 0 c -14.468,-14.468 -14.468,-37.923 0,-52.391 l -26.448,26.447 c -14.467,14.467 -37.923,14.467 -52.391,0 -14.467,-14.467 -14.467,-37.923 0,-52.39 l 15.312,-15.312 c -14.467,14.467 -37.923,14.467 -52.391,0 -14.467,-14.468 -14.467,-37.924 0,-52.391 l 37.786,-37.786 c -14.468,14.468 -37.924,14.468 -52.391,0 h -0.001 c -14.466,-14.467 -14.466,-37.924 0,-52.391 l 116.644,-116.643 c 59.878,-59.878 156.96,-59.878 216.838,0 l 15.028,15.028 C -11.89,-62.343 0,-31.175 0,-0.006 Z"
             style="fill:#f9ef80;fill-opacity:1;fill-rule:nonzero;stroke:none"
             id="path2553" /></g><g
           id="g2555"
           transform="translate(166.3213,216.0015)"><path
             d="m 0,0 -5.441,5.441 -13.47,8.596 c -13.117,4.788 -28.397,1.929 -38.921,-8.596 h -10e-4 c -14.467,-14.467 -14.467,-37.923 0,-52.391 0,0 46.385,-46.383 72.03,-72.029 C -9.241,-78.395 -13.958,-28.044 0,0"
             style="fill:#f9d171;fill-opacity:1;fill-rule:nonzero;stroke:none"
             id="path2557" /></g><g
           id="g2559"
           transform="translate(123.0938,259.2285)"><path
             d="M 0,0 20.287,-20.287 C 16.65,-9.027 7.766,36.208 23.422,63.127 14.886,62.49 6.527,58.918 0,52.391 -14.467,37.923 -14.467,14.467 0,0"
             style="fill:#f9d171;fill-opacity:1;fill-rule:nonzero;stroke:none"
             id="path2561" /></g><g
           id="g2563"
           transform="translate(492.668,322.0498)"><path
             d="m 0,0 v 11.64 c 0,23.602 -19.133,42.735 -42.735,42.735 -23.603,0 -42.737,-19.133 -42.737,-42.735 V -32.578 L -201.266,83.216 c -14.466,14.467 -37.922,14.467 -52.39,0 v -10e-4 c -14.468,-14.467 -14.468,-37.923 0,-52.39 l -26.448,26.447 c -14.467,14.467 -37.923,14.467 -52.391,0 -14.467,-14.467 -14.467,-37.923 0,-52.391 l 15.312,-15.311 c -14.467,14.467 -37.923,14.467 -52.391,-10e-4 -14.467,-14.467 -14.467,-37.923 0,-52.39 l 37.786,-37.786 c -14.468,14.467 -37.924,14.467 -52.391,0 h -0.001 c -14.466,-14.468 -14.466,-37.924 0,-52.391 l 108.062,-108.062"
             style="fill:none;stroke:#000000;stroke-width:15;stroke-linecap:round;stroke-linejoin:round;stroke-miterlimit:10;stroke-dasharray:none;stroke-opacity:1"
             id="path2565" /></g><g
           id="g2567"
           transform="translate(243.6309,36.6069)"><path
             d="m 0,0 c 59.95,-43.508 144.297,-38.24 198.339,15.802 l 15.028,15.028 c 23.78,23.78 35.67,54.948 35.67,86.116 v 0.007 132.741"
             style="fill:none;stroke:#000000;stroke-width:15;stroke-linecap:round;stroke-linejoin:round;stroke-miterlimit:10;stroke-dasharray:none;stroke-opacity:1"
             id="path2569" /></g><g
           id="g2571"
           transform="translate(239.0117,352.8745)"><path
             d="M 0,0 71.797,-71.796"
             style="fill:none;stroke:#000000;stroke-width:15;stroke-linecap:round;stroke-linejoin:round;stroke-miterlimit:10;stroke-dasharray:none;stroke-opacity:1"
             id="path2573" /></g><g
           id="g2575"
           transform="translate(175.4854,311.6191)"><path
             d="M 0,0 83.775,-83.775"
             style="fill:none;stroke:#000000;stroke-width:15;stroke-linecap:round;stroke-linejoin:round;stroke-miterlimit:10;stroke-dasharray:none;stroke-opacity:1"
             id="path2577" /></g><g
           id="g2579"
           transform="translate(160.8799,221.4429)"><path
             d="M 0,0 55.265,-55.265"
             style="fill:none;stroke:#000000;stroke-width:15;stroke-linecap:round;stroke-linejoin:round;stroke-miterlimit:10;stroke-dasharray:none;stroke-opacity:1"
             id="path2581" /></g><g
           id="g2583"
           transform="translate(314.6582,451.8354)"><path
             d="M 0,0 C 24.013,-4.914 43.074,-23.423 48.79,-47.134"
             style="fill:none;stroke:#000000;stroke-width:15;stroke-linecap:round;stroke-linejoin:round;stroke-miterlimit:10;stroke-dasharray:none;stroke-opacity:1"
             id="path2585" /></g><g
           id="g2587"
           transform="translate(318.8135,504.5)"><path
             d="M 0,0 C 48.301,-9.884 86.64,-47.113 98.136,-94.806"
             style="fill:none;stroke:#000000;stroke-width:15;stroke-linecap:round;stroke-linejoin:round;stroke-miterlimit:10;stroke-dasharray:none;stroke-opacity:1"
             id="path2589" /></g><g
           id="g2591"
           transform="translate(71.9961,137.6069)"><path
             d="M 0,0 C 4.914,-24.014 23.423,-43.075 47.134,-48.79"
             style="fill:none;stroke:#000000;stroke-width:15;stroke-linecap:round;stroke-linejoin:round;stroke-miterlimit:10;stroke-dasharray:none;stroke-opacity:1"
             id="path2593" /></g><g
           id="g2595"
           transform="translate(19.332,133.4512)"><path
             d="M 0,0 C 9.883,-48.3 47.112,-86.64 94.806,-98.136"
             style="fill:none;stroke:#000000;stroke-width:15;stroke-linecap:round;stroke-linejoin:round;stroke-miterlimit:10;stroke-dasharray:none;stroke-opacity:1"
             id="path2597" /></g><g
           id="g2599"
           transform="translate(370.1504,140.3018)"><path
             d="M 0,0 C -14.505,33.465 -12.092,72.503 7.239,104.113"
             style="fill:none;stroke:#000000;stroke-width:15;stroke-linecap:round;stroke-linejoin:round;stroke-miterlimit:10;stroke-dasharray:none;stroke-opacity:1"
             id="path2601" /></g></g></g></g></svg>
