<?xml version="1.0" encoding="UTF-8"?>
<svg xmlns="http://www.w3.org/2000/svg" id="icons" viewBox="0 0 60 60" width="512" height="512"><path d="M54.984,26.58c.011-.2.016-.39.016-.58A11.971,11.971,0,0,0,43.986,14.056a11.973,11.973,0,0,0-7.875-3.051L39.072,6.5a4.126,4.126,0,0,0,.187-4.287A4.16,4.16,0,0,0,35.543,0h-7.9a4.15,4.15,0,0,0-3.883,2.64l-3.447,8.714A7.855,7.855,0,0,0,18,11a8.018,8.018,0,0,0-6.92,4A7.989,7.989,0,0,0,3,22.753,7.973,7.973,0,0,0,1,32.86c0,.046,0,.093,0,.14A10.011,10.011,0,0,0,11,43c.156,0,.311-.005.46-.014a9.949,9.949,0,0,0,14.79,5.5A5.036,5.036,0,0,0,31.09,52a1.017,1.017,0,0,1,.757.337l5.793,6.636A3.115,3.115,0,0,0,39.94,60,3.063,3.063,0,0,0,43,56.94V52.915A13.843,13.843,0,0,0,44.5,53C50.841,53,56,48.738,56,43.5a7.885,7.885,0,0,0-.371-2.379,7.991,7.991,0,0,0-.645-14.541Zm-29.37-23.2A2.164,2.164,0,0,1,27.638,2h7.9A2.191,2.191,0,0,1,37.5,3.162a2.155,2.155,0,0,1-.1,2.24l-4.054,6.169-.018.026-2.4,3.648A1.791,1.791,0,0,0,32.448,18h6.346a.189.189,0,0,1,.189.118.176.176,0,0,1-.042.206l-16.957,18,4.983-11.9A1.744,1.744,0,0,0,25.353,22H19.3a.718.718,0,0,1-.666-.974ZM39.93,58a1.1,1.1,0,0,1-.8-.357l-5.784-6.625A3.068,3.068,0,0,0,31,50a3,3,0,0,1-2.991-2.907,9.973,9.973,0,0,0,1.173-1.358,14.112,14.112,0,0,0,4.622,1.2A10.862,10.862,0,0,0,41,52.526V56.94A1.064,1.064,0,0,1,39.93,58ZM54,43.5c0,4.136-4.262,7.5-9.5,7.5a11.134,11.134,0,0,1-2.307-.231,9.436,9.436,0,0,1-6.1-3.818,14.08,14.08,0,0,0,10.881-6.733A7.924,7.924,0,0,0,53.745,41.8,5.923,5.923,0,0,1,54,43.5ZM52,40a6.061,6.061,0,0,1-5.752-4.285,1,1,0,0,0-1.917.57,7.971,7.971,0,0,0,1.208,2.409A11.979,11.979,0,0,1,29.294,43.56a12.127,12.127,0,0,1-1.679-1.1,1,1,0,0,0-1.23,1.576c.329.258.673.5,1.025.726a8,8,0,0,1-14.392-5.3,1,1,0,0,0-.933-1.064.99.99,0,0,0-1.064.933A10.116,10.116,0,0,0,11.062,41c-.021,0-.041,0-.062,0a8.008,8.008,0,0,1-7.575-5.448,8,8,0,0,0,1.145.677,1,1,0,1,0,.86-1.806,6,6,0,0,1-2.541-2.286c-.007-.012-.009-.026-.016-.037a5.993,5.993,0,0,1,4.268-9.038,1,1,0,0,0-.282-1.981,7.956,7.956,0,0,0-1.665.434A6,6,0,0,1,11,17c.2,0,.385.008.573.026a5.946,5.946,0,0,1,2,.551,1,1,0,1,0,.86-1.806,7.959,7.959,0,0,0-1.153-.437A6,6,0,0,1,18,13a5.869,5.869,0,0,1,1.569.222l-2.791,7.056A2.737,2.737,0,0,0,19.3,24h5.678L19.754,36.473a1.832,1.832,0,0,0,3.007,1.943L40.394,19.7a2.207,2.207,0,0,0-1.6-3.7H32.827l1.912-2.908a9.773,9.773,0,0,1,8.145,2.666.268.268,0,0,0,.028.018,9.977,9.977,0,0,1,2.18,3.053,1,1,0,0,0,.909.582.986.986,0,0,0,.417-.092,1,1,0,0,0,.49-1.326,11.9,11.9,0,0,0-.833-1.49A9.968,9.968,0,0,1,53,26a9.534,9.534,0,0,1-.073,1.151c0,.012,0,.023,0,.035a9.938,9.938,0,0,1-.611,2.451,1,1,0,0,0,.569,1.295A.985.985,0,0,0,53.25,31a1,1,0,0,0,.932-.637,11.877,11.877,0,0,0,.509-1.711A5.991,5.991,0,0,1,52,40Z"/></svg>
