<?xml version="1.0" encoding="UTF-8"?>
<svg xmlns="http://www.w3.org/2000/svg" id="Icons" viewBox="0 0 60 60" width="512" height="512"><path d="M54.691,28.652a11.877,11.877,0,0,1-.509,1.711A1,1,0,0,1,53.25,31a.985.985,0,0,1-.363-.068,1,1,0,0,1-.569-1.295,9.938,9.938,0,0,0,.611-2.451c0-.012,0-.023,0-.035A9.534,9.534,0,0,0,53,26a9.968,9.968,0,0,0-6.925-9.5,11.9,11.9,0,0,1,.833,1.49,1,1,0,0,1-1.816.836,9.871,9.871,0,0,0-10.353-5.737L32.827,16h5.967a2.207,2.207,0,0,1,1.6,3.7c-2.766,2.936-14.245,15.65-17.548,18.628-1.417,1.278-3.945.175-3.092-1.852L24.978,24H19.3a2.735,2.735,0,0,1-2.522-3.722l2.791-7.056A5.869,5.869,0,0,0,18,13a6,6,0,0,0-4.723,2.334,7.959,7.959,0,0,1,1.153.437A1,1,0,0,1,14.9,17.1a1.037,1.037,0,0,1-1.334.474A6.086,6.086,0,0,0,11,17a6,6,0,0,0-5.806,4.515,7.956,7.956,0,0,1,1.665-.434,1,1,0,0,1,.282,1.981,5.963,5.963,0,0,0-2.562,1.01A6.078,6.078,0,0,0,5.43,34.423a1,1,0,0,1-.86,1.806,8,8,0,0,1-1.145-.677A8.008,8.008,0,0,0,11,41c.021,0,.041,0,.062,0a10.116,10.116,0,0,1-.041-1.661.99.99,0,0,1,1.064-.933,1,1,0,0,1,.933,1.064,7.988,7.988,0,0,0,14.392,5.3c-.352-.228-.7-.468-1.025-.726a1,1,0,0,1,1.23-1.576,12.155,12.155,0,0,0,17.924-3.766,7.971,7.971,0,0,1-1.208-2.409,1,1,0,0,1,1.917-.57,6,6,0,1,0,8.443-7.063Z"/><path d="M33.328,11.6l.018-.026L37.4,5.4a2.155,2.155,0,0,0,.1-2.24A2.191,2.191,0,0,0,35.543,2h-7.9a2.164,2.164,0,0,0-2.024,1.375L18.633,21.026a.689.689,0,0,0,.063.653.721.721,0,0,0,.6.321h6.053a1.744,1.744,0,0,1,1.614,2.427l-4.983,11.9,16.957-18a.176.176,0,0,0,.042-.206A.189.189,0,0,0,38.794,18H32.448a1.791,1.791,0,0,1-1.517-2.755Z"/><path d="M52,42a8.053,8.053,0,0,1-5.022-1.782A14.08,14.08,0,0,1,36.1,46.951a9.436,9.436,0,0,0,6.1,3.818C46.959,51.707,54,49.291,54,43.5a5.923,5.923,0,0,0-.255-1.7A7.97,7.97,0,0,1,52,42Z"/><path d="M33.8,46.935a14.112,14.112,0,0,1-4.622-1.2,9.973,9.973,0,0,1-1.173,1.358A3,3,0,0,0,31,50a3.068,3.068,0,0,1,2.349,1.018l5.784,6.625A1.078,1.078,0,0,0,41,56.94V52.526A10.862,10.862,0,0,1,33.8,46.935Z"/></svg>
