<svg id="Capa_1" enable-background="new 0 0 511.903 511.903" height="512" viewBox="0 0 511.903 511.903" width="512" xmlns="http://www.w3.org/2000/svg"><g><path d="m257.756 327.776h.015s.01 0 .015 0c38.383-.008 69.496-31.125 69.496-69.51v-39.389c0-38.39-31.121-69.51-69.51-69.51-38.39 0-69.51 31.121-69.51 69.51v39.389c-.002 38.385 31.111 69.502 69.494 69.51z"/><path d="m328.843 327.838c-18.075 18.461-43.257 29.938-71.073 29.938s-52.998-11.477-71.073-29.938c-26.468 1.286-47.533 23.151-47.533 49.938v134.127h237.211v-134.127c.001-26.787-21.064-48.651-47.532-49.938z"/><path d="m240.954 100.932 27.435 12.134 23.171-52.388-29.709-18.528 13.065-30.259-27.543-11.891-23.293 53.951 29.511 18.404z"/><path d="m429.661 90.192-11.067-27.884-54.621 21.679 7.855 33.881-29.144 11.271 10.82 27.98 53.429-20.661-7.907-34.107z"/><path d="m177.054 142.101-20.661-53.428-34.107 7.907-12.159-30.635-27.884 11.067 21.677 54.621 33.883-7.855 11.271 29.143z"/></g></svg>