<svg id="Layer_1" height="512" viewBox="0 0 64 64" width="512" xmlns="http://www.w3.org/2000/svg"><path d="m59.04 22.31c.25-.32.48-.65.71-.99 4.26-6.38 3.77-14.55-.66-20.32l-18.37 27.49c6.63 1.75 13.98-.55 18.32-6.18z"/><path d="m6.74 52.36c0 1.29 1.03 2.32 2.32 2.32h8.54v2h-3.88v7.32h19.4s-.33-5.36 1.41-11.67c.84-3.01 2.32-5.8 4.09-8.37 2.12-3.11 3.27-6.92 3-11.02-.1-1.55-.41-3.05-.9-4.46h-33.06c-.56 1.65-.88 3.41-.93 5.24l-5.43 9.32h5.44z"/><path d="m43.56 10.08c-.43.42-.87.76-1.31 1.02-.48-.89-1.15-1.64-1.78-2.16-.65-.53-1.4-.85-2.17-.93-1.17-.11-3.06.39-3.51 2.26-.28 1.15.32 2.31 1.57 3.02 1.18.67 2.83.9 4.55.49-.06.65-.37 1.27-.95 1.88-.27.29-.54.53-.79.74-.53-1.37-1.48-1.85-2.05-2.02-1-.3-2.08-.05-2.84.66-.68.64-.96 1.56-.75 2.46.2.85 1.02 1.59 2.08 1.88.19.05.42.1.69.12-.95.61-2.21.98-2.76 1.09l.4 1.96c.37-.08 3.67-.8 4.99-2.85.2-.32.35-.65.44-1 .63-.38 1.31-.91 2.03-1.65 1.08-1.13 1.59-2.39 1.51-3.74 0-.09-.01-.19-.02-.28.71-.38 1.41-.88 2.06-1.52l-1.39-1.44zm-6.21 1.48c-.35-.2-.69-.52-.61-.82.17-.69 1-.74 1.28-.74h.09c.38.04.76.21 1.1.48.4.33.85.82 1.19 1.38-1.27.29-2.38.07-3.04-.31zm-1.06 5.92c-.51-.1-.78-.37-.81-.44-.02-.08-.07-.31.17-.54.14-.13.38-.24.63-.24.08 0 .17.01.26.04.39.12.69.51.85 1.11-.48.14-.85.12-1.1.08z"/><path d="m17.31 22.11c.04-.38.35-3.74-1.21-5.62-.24-.29-.51-.53-.82-.72-.17-.72-.47-1.53-.96-2.43-.75-1.37-1.79-2.24-3.11-2.57-.09-.02-.18-.04-.27-.06-.15-.79-.41-1.61-.82-2.43l-1.79.89c.27.54.46 1.06.58 1.56-.99.19-1.91.6-2.6 1.04-.7.46-1.23 1.07-1.54 1.79-.46 1.07-.55 3.03 1.1 4.03 1.01.61 2.3.39 3.35-.58 1-.92 1.71-2.42 1.84-4.19.6.25 1.1.74 1.5 1.48.19.35.34.67.46.97-1.46.09-2.21.85-2.55 1.34-.59.86-.68 1.97-.23 2.91.4.84 1.19 1.38 2.11 1.45.88.06 1.82-.49 2.42-1.42.11-.17.22-.38.32-.62.29 1.09.26 2.4.21 2.96l1.99.21zm-9.44-6.57c-.29.27-.7.5-.97.34-.72-.44-.3-1.52-.29-1.53.15-.35.42-.66.79-.9.44-.29 1.04-.57 1.68-.72-.11 1.3-.65 2.29-1.21 2.8zm5.32 2.8c-.25.46-.59.63-.67.64-.08 0-.32-.02-.46-.32-.11-.24-.13-.61.07-.91.21-.31.64-.48 1.21-.48h.11c-.02.5-.14.85-.26 1.08z"/><path d="m27.89 7.2c-.05-.08-.11-.15-.17-.22.4-.7.72-1.5.93-2.38l-1.94-.47c-.14.58-.33 1.1-.56 1.57-.88-.5-1.85-.77-2.66-.88-.83-.1-1.64.03-2.33.37-1.04.52-2.37 1.97-1.75 3.79.38 1.12 1.5 1.78 2.94 1.72 1.35-.06 2.87-.75 4.11-2.02.3.58.37 1.27.2 2.1-.08.39-.17.73-.27 1.04-1.57-1.16-3.19-.78-4.11.15-1.08 1.1-1.11 2.76-.06 3.78.62.61 1.71.8 2.76.48.19-.06.41-.14.65-.27-.48 1.02-1.34 2-1.75 2.4l1.39 1.44c.27-.26 2.68-2.64 2.69-5.07 0-.37-.05-.73-.16-1.07.34-.66.63-1.47.83-2.48.31-1.53.07-2.87-.72-3.97zm-5.63 1.49c-.39.02-.86-.07-.96-.36-.27-.8.75-1.35.76-1.36.26-.13.56-.2.88-.2.1 0 .2 0 .31.02.52.06 1.16.24 1.75.53-.92.92-1.98 1.33-2.73 1.36zm2.27 5.57c-.48.19-.86.1-.92.06-.34-.33-.09-.77.09-.95.18-.19.4-.28.64-.28.33 0 .71.17 1.08.52-.33.37-.65.56-.89.65z"/></svg>