<?xml version="1.0" encoding="UTF-8" standalone="no"?>
<!DOCTYPE svg PUBLIC "-//W3C//DTD SVG 1.1//EN" "http://www.w3.org/Graphics/SVG/1.1/DTD/svg11.dtd">
<!-- Created with Vectornator (http://vectornator.io/) -->
<svg height="100%" stroke-miterlimit="10" style="fill-rule:nonzero;clip-rule:evenodd;stroke-linecap:round;stroke-linejoin:round;" version="1.1" viewBox="0 0 686.305 205.866" width="100%" xml:space="preserve" xmlns="http://www.w3.org/2000/svg" xmlns:vectornator="http://vectornator.io" xmlns:xlink="http://www.w3.org/1999/xlink">
<defs/>
<clipPath id="ArtboardFrame">
<rect height="205.866" width="686.305" x="0" y="0"/>
</clipPath>
<g clip-path="url(#ArtboardFrame)" id="Untitled" vectornator:layerName="Untitled">
<g opacity="1" vectornator:layerName="path">
<clipPath clip-rule="nonzero" id="ClipPath">
<path d="M0-2.68555e-06L686.305-2.68555e-06L686.305 205.866L0 205.866L0-2.68555e-06Z"/>
</clipPath>
<g clip-path="url(#ClipPath)">
<path d="M635.734 119.862C635.734 117.556 634.899 115.41 633.233 113.423C631.565 111.436 629.312 110.443 626.473 110.443C623.634 110.443 621.365 111.419 619.662 113.37C617.959 115.322 617.108 117.466 617.108 119.808C617.108 122.15 618.029 124.279 619.875 126.195C621.718 128.111 623.955 129.069 626.581 129.069C629.205 129.069 631.386 128.111 633.127 126.195C634.864 124.279 635.734 122.169 635.734 119.862M609.18 124.06C609.282 123.286 609.333 122.122 609.333 120.568L609.333 60.1341C609.333 58.5831 609.282 57.4191 609.18 56.6421C609.079 55.8661 608.776 54.9711 608.269 53.9601C607.762 52.9461 606.868 52.2381 605.587 51.8341C604.303 51.4281 602.6 51.2261 600.474 51.2261C598.348 51.2261 596.644 51.4281 595.363 51.8341C594.08 52.2381 593.187 52.9301 592.679 53.9081C592.173 54.8871 591.87 55.7661 591.769 56.5411C591.668 57.3181 591.617 58.4821 591.617 60.0321L591.617 81.2921C588.848 77.9181 584.968 76.2301 579.975 76.2301C573.968 76.2301 568.452 78.8971 563.424 84.2271C558.397 89.5591 555.882 95.7511 555.882 102.802C555.882 109.854 558.38 116.03 563.375 121.327C568.368 126.626 573.902 129.273 579.975 129.273C585.037 129.273 588.985 127.654 591.82 124.415C592.359 127.721 594.973 129.375 599.665 129.375C604.355 129.375 607.207 128.464 608.218 126.641C608.757 125.698 609.079 124.837 609.18 124.06M592.605 102.807C592.605 105.114 591.736 107.224 589.998 109.139C588.257 111.055 586.076 112.013 583.452 112.013C580.826 112.013 578.59 111.055 576.747 109.139C574.901 107.224 573.979 105.095 573.979 102.754C573.979 100.413 574.831 98.2671 576.534 96.3151C578.237 94.3631 580.506 93.3871 583.345 93.3871C586.182 93.3871 588.435 94.3821 590.104 96.3671C591.769 98.3551 592.605 100.502 592.605 102.807M547.613 117.101C550.391 112.931 551.783 108.165 551.783 102.798C551.783 95.0401 549.098 88.6551 543.734 83.6451C538.367 78.6341 532.193 76.1291 525.211 76.1291C518.229 76.1291 512.022 78.6501 506.59 83.6931C501.16 88.7361 498.445 95.1361 498.445 102.895C498.445 108.068 499.818 112.706 502.566 116.81C505.314 120.918 508.691 124.02 512.701 126.121C516.708 128.222 520.846 129.272 525.114 129.272C529.38 129.272 533.502 128.288 537.479 126.314C541.455 124.343 544.833 121.271 547.613 117.101M535.111 102.807C535.111 105.114 534.242 107.224 532.503 109.139C530.763 111.055 528.582 112.013 525.958 112.013C523.332 112.013 521.096 111.055 519.252 109.139C517.406 107.224 516.485 105.095 516.485 102.754C516.485 100.413 517.336 98.2671 519.039 96.3151C520.742 94.3631 523.012 93.3871 525.85 93.3871C528.688 93.3871 530.942 94.3821 532.61 96.3671C534.276 98.3551 535.111 100.502 535.111 102.807M489.235 117.101C492.013 112.931 493.405 108.165 493.405 102.798C493.405 95.0401 490.721 88.6551 485.356 83.6451C479.989 78.6341 473.815 76.1291 466.833 76.1291C459.851 76.1291 453.644 78.6501 448.213 83.6931C442.782 88.7361 440.067 95.1361 440.067 102.895C440.067 108.068 441.44 112.706 444.189 116.81C446.936 120.918 450.313 124.02 454.323 126.121C458.331 128.222 462.468 129.272 466.736 129.272C471.003 129.272 475.125 128.288 479.101 126.314C483.077 124.343 486.455 121.271 489.235 117.101M476.734 102.807C476.734 105.114 475.864 107.224 474.126 109.139C472.385 111.055 470.204 112.013 467.58 112.013C464.954 112.013 462.718 111.055 460.875 109.139C459.029 107.224 458.107 105.095 458.107 102.754C458.107 100.413 458.959 98.2671 460.662 96.3151C462.365 94.3631 464.634 93.3871 467.473 93.3871C470.311 93.3871 472.564 94.3821 474.232 96.3671C475.899 98.3551 476.734 100.502 476.734 102.807M438.035 90.1491C438.472 88.9011 438.693 87.2311 438.693 85.1371C438.693 83.0471 438.49 81.3591 438.085 80.0771C437.276 77.5121 434.542 76.2301 429.885 76.2301L423.305 76.8371L423.305 71.2701C423.305 69.5841 424.553 68.7381 427.05 68.7381L429.885 68.7381C431.91 68.6051 433.394 67.9971 434.339 66.9171C435.487 65.5001 436.061 63.1711 436.061 59.9321C436.061 55.6131 435.149 53.0151 433.328 52.1361C432.315 51.5981 431.42 51.2771 430.645 51.1751C429.868 51.0741 428.704 51.0241 427.152 51.0241C420.132 51.0241 414.767 53.1331 411.056 57.3511C407.344 61.5691 405.489 66.2761 405.489 71.4711L405.489 76.8371L402.149 76.8371C398.166 76.8371 396.175 79.6051 396.175 85.1371C396.175 88.7811 396.817 91.2471 398.099 92.5281C398.84 93.2031 400.088 93.6081 401.844 93.7421L405.489 93.7421L405.489 120.568C405.489 122.122 405.54 123.3 405.64 124.111C405.742 124.921 406.062 125.815 406.603 126.794C407.141 127.772 408.036 128.481 409.286 128.92C410.533 129.359 412.204 129.578 414.297 129.578C416.387 129.578 418.091 129.375 419.408 128.969C420.723 128.564 421.702 127.74 422.343 126.49C422.985 125.242 423.305 123.336 423.305 120.77L423.305 93.6411L429.784 94.0461C432.483 94.0461 434.542 93.6411 435.959 92.8321C436.904 92.2921 437.594 91.3981 438.035 90.1491M178.732 105.543C180.713 103.629 181.704 100.673 181.704 96.6781C181.704 92.6851 180.599 89.0001 178.392 85.6221C174.169 79.2581 167.545 76.0741 158.519 76.0741C150.595 76.0741 143.987 78.5271 138.695 83.4291C133.401 88.3341 130.755 94.8761 130.755 103.059C130.755 109.553 132.801 115.43 136.893 120.69C138.97 123.419 141.876 125.611 145.612 127.266C149.345 128.923 153.615 129.751 158.422 129.751C172.254 129.751 179.171 126.862 179.171 121.081C179.171 119.847 178.748 118.352 177.905 116.599C176.41 113.677 174.624 112.216 172.547 112.216C171.506 112.216 170.209 112.574 168.65 113.288L167.578 113.677C165.435 114.457 162.479 114.845 158.713 114.845C156.57 114.845 154.427 114.229 152.284 112.995C150.141 111.761 149.07 110.236 149.07 108.417L172.157 108.417C174.559 108.417 176.751 107.46 178.732 105.543M164.851 96.4351C164.851 98.5131 163.616 99.5511 161.149 99.5511L148.875 99.5511C148.875 97.6041 149.913 95.7701 151.992 94.0481C154.07 92.3281 156.164 91.4661 158.275 91.4661C160.385 91.4661 162.009 91.9221 163.146 92.8311C164.282 93.7401 164.851 94.9421 164.851 96.4351M127.109 89.0421C128.188 86.5101 128.73 84.6731 128.73 83.5241C128.73 80.7571 126.568 78.4281 122.25 76.5381C120.832 75.8631 119.481 75.5261 118.2 75.5261C114.96 75.5261 112.53 77.6871 110.91 82.0061L104.734 98.8131C104.126 97.4631 102.135 92.0641 98.7604 82.6121L97.9504 80.8921C97.4094 79.8131 96.4144 78.7321 94.9634 77.6521C93.5114 76.5721 91.7744 76.0311 89.7504 76.0311C87.7244 76.0311 85.7334 77.0101 83.7764 78.9671C82.6954 79.9801 81.9534 81.1621 81.5474 82.5111L75.5754 98.9141C71.9304 88.9251 69.5334 82.5801 68.3864 79.8791C68.1844 79.2721 67.9134 78.6821 67.5764 78.1081C67.2384 77.5351 66.6484 76.9611 65.8044 76.3851C64.9604 75.8141 63.8644 75.5261 62.5144 75.5261C61.1634 75.5261 59.4084 75.9661 57.2494 76.8411C53.4024 78.3951 51.4784 80.5221 51.4784 83.2201C51.4784 83.8281 51.8154 85.1441 52.4904 87.1691L67.7794 124.427C68.2504 125.642 69.1964 126.841 70.6144 128.021C72.0314 129.204 73.7864 129.794 75.8784 129.794C77.9704 129.794 79.8274 128.984 81.4474 127.364C82.0554 126.757 82.5944 126.048 83.0674 125.238C83.5394 124.427 83.8264 123.871 83.9284 123.568C84.0294 123.263 84.2654 122.656 84.6364 121.745C85.0064 120.834 85.8514 118.54 87.1684 114.86C88.4844 111.181 89.4794 108.532 90.1544 106.912C93.5974 116.091 95.5874 121.356 96.1284 122.707L96.9384 124.427C97.4094 125.642 98.3714 126.841 99.8234 128.021C101.274 129.204 102.776 129.794 104.329 129.794C105.88 129.794 107.164 129.556 108.177 129.085C110.538 127.87 112.226 125.779 113.239 122.807L124.376 95.6741C125.118 93.7851 126.029 91.5721 127.109 89.0421" fill="#0c2340" fill-rule="nonzero" opacity="1" stroke="none" vectornator:layerName="path"/>
<path d="M549.111 140.576C549.111 138.62 547.525 137.034 545.569 137.034L504.659 137.034C502.703 137.034 501.116 138.62 501.116 140.576C501.116 154.843 515.664 154.843 520.445 154.843L529.783 154.843C542.608 154.843 549.111 150.041 549.111 140.576M490.733 140.576C490.733 138.62 489.148 137.034 487.192 137.034L446.281 137.034C444.325 137.034 442.739 138.62 442.739 140.576C442.739 154.843 457.287 154.843 462.067 154.843L471.406 154.843C484.23 154.843 490.733 150.041 490.733 140.576M390.456 124.175C390.557 123.399 390.608 122.235 390.608 120.681L390.608 102.862C390.608 95.437 388.363 89.16 383.875 84.03C379.386 78.901 373.766 76.335 367.018 76.335C362.495 76.335 358.546 78.395 355.172 82.511L355.172 60.135C355.172 58.584 355.121 57.419 355.02 56.642C354.918 55.867 354.597 54.972 354.058 53.959C353.18 52.137 350.615 51.226 346.363 51.226C342.043 51.226 339.41 52.137 338.466 53.959C337.993 54.905 337.706 55.766 337.605 56.541C337.504 57.318 337.453 58.482 337.453 60.034L337.453 120.58C337.453 122.2 337.504 123.383 337.605 124.124C337.706 124.867 337.993 125.744 338.466 126.757C339.41 128.579 342.009 129.49 346.262 129.49C350.581 129.49 353.18 128.613 354.058 126.857C354.597 125.846 354.918 124.951 355.02 124.175C355.121 123.399 355.172 122.235 355.172 120.681L355.172 101.04C355.441 99.217 356.488 97.581 358.31 96.129C360.133 94.678 362.241 93.952 364.638 93.952C367.033 93.952 369.008 94.729 370.561 96.281C372.113 97.834 372.89 99.994 372.89 102.76L372.89 120.479C372.89 122.099 372.94 123.314 373.042 124.124C373.143 124.934 373.463 125.846 374.004 126.857C375.016 128.613 377.58 129.49 381.698 129.49C386.017 129.49 388.616 128.613 389.494 126.857C390.034 125.846 390.355 124.951 390.456 124.175M305.257 109.493C303.366 107.908 302.422 105.681 302.422 102.811C302.422 99.943 303.399 97.698 305.358 96.078C307.315 94.458 309.424 93.648 311.686 93.648C313.946 93.648 315.685 94.222 316.9 95.37C319.262 96.855 321.084 97.597 322.367 97.597C324.595 97.597 326.924 95.741 329.353 92.028C330.771 89.869 331.48 87.928 331.48 86.207C331.48 84.486 330.602 82.951 328.847 81.6C328.172 81.129 327.227 80.486 326.012 79.676L324.392 78.664C323.244 77.99 321.456 77.297 319.026 76.588C316.596 75.879 314.098 75.525 311.534 75.525C305.189 75.525 299.215 77.752 293.613 82.208C290.845 84.368 288.584 87.219 286.83 90.763C285.074 94.306 284.197 98.255 284.197 102.609C284.197 106.963 285.074 110.946 286.83 114.556C288.584 118.167 290.845 121.054 293.613 123.213C299.417 127.736 305.459 129.996 311.736 129.996C317.338 129.996 322.064 128.647 325.911 125.946C329.622 123.72 331.48 121.324 331.48 118.759C331.48 117.206 330.703 115.451 329.151 113.493C326.248 109.916 323.785 108.127 321.76 108.127C320.611 108.127 319.11 108.751 317.254 110C315.397 111.249 313.407 111.873 311.281 111.873C309.155 111.873 307.146 111.08 305.257 109.493M275.162 105.543C277.142 103.628 278.133 100.672 278.133 96.678C278.133 92.684 277.028 88.999 274.821 85.621C270.599 79.258 263.974 76.075 254.948 76.075C247.024 76.075 240.417 78.527 235.124 83.43C229.83 88.334 227.185 94.876 227.185 103.059C227.185 109.554 229.231 115.43 233.322 120.691C235.4 123.418 238.305 125.61 242.041 127.266C245.774 128.923 250.044 129.75 254.851 129.75C268.684 129.75 275.6 126.861 275.6 121.081C275.6 119.847 275.177 118.353 274.334 116.599C272.839 113.678 271.054 112.217 268.976 112.217C267.936 112.217 266.638 112.573 265.079 113.287L264.008 113.678C261.865 114.456 258.909 114.847 255.143 114.847C253 114.847 250.857 114.23 248.714 112.995C246.57 111.763 245.499 110.236 245.499 108.416L268.586 108.416C270.988 108.416 273.18 107.459 275.162 105.543M261.28 96.434C261.28 98.514 260.046 99.552 257.578 99.552L245.304 99.552C245.304 97.603 246.342 95.769 248.421 94.048C250.499 92.328 252.593 91.466 254.705 91.466C256.814 91.466 258.438 91.922 259.575 92.83C260.711 93.74 261.28 94.941 261.28 96.434M226.162 85.245C226.162 80.926 225.284 78.327 223.529 77.449C222.517 76.909 221.622 76.588 220.846 76.487C220.07 76.386 218.923 76.335 217.404 76.335C215.885 76.335 213.64 76.471 210.671 76.74L210.671 66.818C210.671 64.456 210.502 62.735 210.165 61.654C209.287 59.158 206.553 57.908 201.964 57.908C197.643 57.908 195.044 58.753 194.168 60.439C193.627 61.317 193.307 62.127 193.206 62.869C193.105 63.613 193.054 64.76 193.054 66.312L193.054 76.74L189.713 76.335C188.093 76.335 186.742 76.775 185.663 77.651C185.056 78.192 184.583 79.086 184.246 80.334C183.907 81.584 183.739 83.592 183.739 86.359C183.739 89.127 184.228 91.084 185.207 92.231C186.185 93.379 187.417 93.952 188.903 93.952C190.387 93.952 191.771 93.851 193.054 93.648L193.054 108.634C193.054 116.193 194.877 121.559 198.521 124.731C202.166 127.905 207.498 129.49 214.518 129.49C216.002 129.49 217.133 129.439 217.91 129.339C218.685 129.237 219.581 128.95 220.593 128.477C222.482 127.533 223.428 124.934 223.428 120.681C223.428 117.036 222.651 114.776 221.1 113.898C220.154 113.358 219.26 113.037 218.416 112.936C217.572 112.835 216.357 112.784 214.772 112.784C213.185 112.784 212.104 112.38 211.532 111.569C210.957 110.76 210.671 109.443 210.671 107.62L210.671 93.648L217.252 94.053C218.804 94.053 219.968 94.003 220.745 93.902C221.52 93.8 222.416 93.514 223.428 93.041C225.251 92.096 226.162 89.497 226.162 85.245" fill="#ff6720" fill-rule="nonzero" opacity="1" stroke="none" vectornator:layerName="path"/>
</g>
</g>
</g>
</svg>
