<svg width="225" height="225" viewBox="0 0 225 225" fill="none" xmlns="http://www.w3.org/2000/svg">
<path d="M163.606 51.8868L113.645 101.848L62.3681 50.571L0.215332 112.724L20.9538 133.462L63.9652 91.4684L113.492 139.824L165.378 89.1657L207.184 129.983L224.443 112.724L163.606 51.8868Z" fill="#CF3D3D"/>
<path d="M44.5886 157.097L30.1468 142.655L63.9652 109.637L113.492 157.992L165.378 107.334L197.991 139.176L183.549 153.617L165.378 135.876L113.492 186.534L63.9652 138.179L44.5886 157.097Z" fill="#CF3D3D"/>
<path d="M53.7816 166.29L112.329 224.837L174.356 162.811L165.378 154.045L113.492 204.703L63.9652 156.347L53.7816 166.29Z" fill="#CF3D3D"/>
<path fill-rule="evenodd" clip-rule="evenodd" d="M157.919 46.1999L112.329 0.610107L66.7391 46.1999L74.2303 53.6911L109.854 18.0674L112.329 15.5925L114.804 18.0674L150.428 53.6911L157.919 46.1999ZM145.478 58.6409L112.329 25.492L79.18 58.6408L85.4145 64.8753L109.854 40.4358L112.329 37.9609L114.804 40.4358L139.243 64.8753L145.478 58.6409ZM96.5987 76.0595L90.3642 69.825L112.329 47.8604L134.294 69.8251L128.059 76.0595L114.804 62.8042L112.329 60.3293L109.854 62.8042L96.5987 76.0595ZM101.548 81.0093L112.329 91.7898L123.109 81.0093L112.329 70.2288L101.548 81.0093Z" fill="black"/>
</svg>
