<svg width="226" height="226" viewBox="0 0 226 226" fill="none" xmlns="http://www.w3.org/2000/svg">
<path d="M164.338 52.8868L114.377 102.848L63.1004 51.571L0.947632 113.724L21.6861 134.462L64.6975 92.4684L114.224 140.824L166.11 90.1657L207.916 130.983L225.175 113.724L164.338 52.8868Z" fill="#692125"/>
<path d="M45.3209 158.097L30.8791 143.655L64.6975 110.637L114.224 158.992L166.11 108.334L198.723 140.176L184.281 154.617L166.11 136.876L114.224 187.534L64.6975 139.179L45.3209 158.097Z" fill="#692125"/>
<path d="M54.5139 167.29L113.061 225.837L175.088 163.811L166.11 155.045L114.224 205.703L64.6975 157.347L54.5139 167.29Z" fill="#692125"/>
<rect x="114.061" y="0.911621" width="63.158" height="63.158" transform="rotate(45 114.061 0.911621)" fill="black"/>
</svg>
