<svg width="225" height="175" viewBox="0 0 225 175" fill="none" xmlns="http://www.w3.org/2000/svg">
<path d="M163.606 1.88684L113.645 51.8477L62.3681 0.571045L0.215332 62.7238L20.9538 83.4622L63.9652 41.4684L113.492 89.8236L165.378 39.1657L207.184 79.9827L224.443 62.7238L163.606 1.88684Z" fill="#CF3D3D"/>
<path d="M44.5886 107.097L30.1468 92.6552L63.9652 59.637L113.492 107.992L165.378 57.3343L197.991 89.1757L183.549 103.617L165.378 85.8762L113.492 136.534L63.9652 88.1789L44.5886 107.097Z" fill="#CF3D3D"/>
<path d="M53.7816 116.29L112.329 174.837L174.356 112.811L165.378 104.045L113.492 154.703L63.9652 106.347L53.7816 116.29Z" fill="#CF3D3D"/>
</svg>
