<svg width="92" height="92" viewBox="0 0 92 92" fill="none" xmlns="http://www.w3.org/2000/svg">
<path fill-rule="evenodd" clip-rule="evenodd" d="M91.9188 46.1999L46.329 0.610107L0.739136 46.1999L8.23028 53.6911L43.8541 18.0674L46.329 15.5925L48.8038 18.0674L84.4276 53.6911L91.9188 46.1999ZM79.4779 58.6409L46.329 25.492L13.18 58.6408L19.4145 64.8753L43.8541 40.4358L46.329 37.9609L48.8038 40.4358L73.2434 64.8753L79.4779 58.6409ZM30.5987 76.0595L24.3642 69.825L46.329 47.8604L68.2936 69.8251L62.0592 76.0595L48.8038 62.8042L46.329 60.3293L43.8541 62.8042L30.5987 76.0595ZM35.5485 81.0093L46.329 91.7898L57.1094 81.0093L46.329 70.2288L35.5485 81.0093Z" fill="black"/>
</svg>
